<svg xmlns="http://www.w3.org/2000/svg" xmlns:xlink="http://www.w3.org/1999/xlink" viewBox="0 0 619.73 344.13">
  <defs>
    <style>
      .b36d6814-6449-43a6-b9dd-cb542d522bdf {
        opacity: 0.2;
      }

      .ff7097bf-1164-4a5a-abef-9a1d2bef95d8 {
        fill: #23001e;
      }

      .bc0c5163-2a40-4611-bcf4-2e3c09d7de04 {
        fill: #fff;
      }

      .a3e52038-d53f-4d75-83d5-7113d8da4ff7, .b88ece18-0993-42f0-83a6-b9234fd25da9, .bfa723c6-a366-407f-997d-f529c495586f, .f5781aae-51a5-443f-a705-7dd25ee0812c, .faa6d6dd-5023-4a62-a430-0a82acccba53, .ff990ffa-7b4a-4506-977b-1a6fcfe899e0 {
        stroke: #1a1a1a;
      }

      .a32f5702-17f5-4d6d-94d0-9ca6d9f418fd, .a3e52038-d53f-4d75-83d5-7113d8da4ff7, .a80e1273-22e8-43f6-abef-adad7727d04b, .a881460a-001e-4b3c-a37e-06ecb990b493, .afa49214-7368-447d-8add-d8f6822795f5, .b5cffe8c-e7a8-41a9-a930-1c9c4f15f1f3, .b7c8312d-4f0f-4044-9a92-c67d29da80cf, .bfa723c6-a366-407f-997d-f529c495586f, .f5781aae-51a5-443f-a705-7dd25ee0812c, .faa6d6dd-5023-4a62-a430-0a82acccba53, .ff990ffa-7b4a-4506-977b-1a6fcfe899e0 {
        stroke-linecap: round;
        stroke-linejoin: round;
      }

      .ff990ffa-7b4a-4506-977b-1a6fcfe899e0 {
        stroke-width: 1.26px;
        fill: url(#ae72b3e4-08ac-46a1-9d26-814d134a9ee8);
      }

      .a32f5702-17f5-4d6d-94d0-9ca6d9f418fd, .a80e1273-22e8-43f6-abef-adad7727d04b, .a881460a-001e-4b3c-a37e-06ecb990b493, .afa49214-7368-447d-8add-d8f6822795f5, .b5cffe8c-e7a8-41a9-a930-1c9c4f15f1f3, .b7c8312d-4f0f-4044-9a92-c67d29da80cf {
        stroke: #000;
      }

      .a32f5702-17f5-4d6d-94d0-9ca6d9f418fd, .a80e1273-22e8-43f6-abef-adad7727d04b, .a881460a-001e-4b3c-a37e-06ecb990b493, .afa49214-7368-447d-8add-d8f6822795f5, .b7c8312d-4f0f-4044-9a92-c67d29da80cf {
        stroke-width: 2.39px;
      }

      .a80e1273-22e8-43f6-abef-adad7727d04b {
        fill: url(#ecb03bd7-62cf-4fe5-973e-9bbb44de9663);
      }

      .afa49214-7368-447d-8add-d8f6822795f5 {
        fill: url(#a6928826-50f5-44ea-9ac0-70f5cda2247d);
      }

      .b1209b00-40f1-44b1-9016-9d917c52e7ef {
        fill: url(#ace65918-c056-4c2c-84cb-b578b3b22411);
      }

      .a62845c0-7285-473f-8b2d-26f967f386c4, .b88ece18-0993-42f0-83a6-b9234fd25da9 {
        fill: #1a1a1a;
      }

      .b88ece18-0993-42f0-83a6-b9234fd25da9 {
        stroke-miterlimit: 10;
        stroke-width: 0.96px;
      }

      .a3e52038-d53f-4d75-83d5-7113d8da4ff7 {
        stroke-width: 1.19px;
        fill: url(#a3ef9318-7aef-4e95-be1b-f2e5efaabf96);
      }

      .a881460a-001e-4b3c-a37e-06ecb990b493 {
        fill: url(#ae14752e-5268-4cd1-a086-e1bb2d4ffdfb);
      }

      .b5cffe8c-e7a8-41a9-a930-1c9c4f15f1f3, .faa6d6dd-5023-4a62-a430-0a82acccba53 {
        stroke-width: 1.91px;
      }

      .b5cffe8c-e7a8-41a9-a930-1c9c4f15f1f3 {
        fill: url(#efca66c3-9fea-45a0-a7c8-61af990f80fd);
      }

      .f5781aae-51a5-443f-a705-7dd25ee0812c {
        stroke-width: 1.28px;
        fill: url(#fc57d2a2-f76e-492c-bc9f-f32eae86bae9);
      }

      .a32f5702-17f5-4d6d-94d0-9ca6d9f418fd {
        fill: url(#edba2748-2eab-4f0c-9806-14ea2033c9ba);
      }

      .e9cd786e-a238-4733-9904-5b4b469ced63 {
        fill: url(#bf41808d-86a1-4736-9127-5f2e78b05495);
      }

      .bfa723c6-a366-407f-997d-f529c495586f {
        stroke-width: 1.26px;
        fill: url(#b6ce2f0c-8763-46e2-bf6a-09d0bff444bb);
      }

      .b7c8312d-4f0f-4044-9a92-c67d29da80cf {
        fill: url(#ad54c58f-86e6-4d72-9cb4-6eb6a3ecbb34);
      }

      .faa6d6dd-5023-4a62-a430-0a82acccba53 {
        fill: url(#ea0080d8-ccf7-4df3-971b-53d2af2965d7);
      }

      .ab919f27-fe45-4dd7-af08-d1693ae836e1 {
        fill: url(#b6f11975-254a-4d65-9252-447a135bb420);
      }

      .a1062120-eed1-4393-bf58-c3ab59acd328 {
        fill: #e3fffa;
      }

      .bf6cf2c9-043a-4ca2-ba16-0fb494b5c934 {
        fill: #fbff12;
      }

      .b50d97fb-c587-4dbb-80fe-d4c81c7ed80b {
        fill: url(#fdef960d-f10e-461c-a7d3-53b2e8c50eb8);
      }

      .bd568e29-72ce-43e7-94d6-9716852151ec {
        fill: url(#a8898d88-45b8-4e28-9798-475a5c56813c);
      }

      .a9ad2cd4-44f9-46f8-ba8d-c5d12c87b3ad {
        fill: url(#e9d2d47d-b798-4667-bad3-e1852b518585);
      }
    </style>
    <linearGradient id="ae72b3e4-08ac-46a1-9d26-814d134a9ee8" data-name="New Gradient Swatch copy" x1="196.84" y1="979.35" x2="196.84" y2="823.82" gradientTransform="matrix(1.14, 0.51, -0.38, 0.86, 355.63, -758.4)" gradientUnits="userSpaceOnUse">
      <stop offset="0" stop-color="#390099"/>
      <stop offset="1" stop-color="#ff0054"/>
    </linearGradient>
    <linearGradient id="ecb03bd7-62cf-4fe5-973e-9bbb44de9663" x1="104.76" y1="1072.13" x2="104.76" y2="910.35" gradientTransform="matrix(1.02, 0.41, -0.35, 0.87, 369.92, -732.38)" xlink:href="#ae72b3e4-08ac-46a1-9d26-814d134a9ee8"/>
    <linearGradient id="a6928826-50f5-44ea-9ac0-70f5cda2247d" x1="204.52" y1="1103.27" x2="204.52" y2="967.37" gradientTransform="matrix(1.02, 0.41, -0.35, 0.87, 369.92, -732.38)" xlink:href="#ae72b3e4-08ac-46a1-9d26-814d134a9ee8"/>
    <linearGradient id="ace65918-c056-4c2c-84cb-b578b3b22411" data-name="New Gradient Swatch" x1="140.84" y1="1078.22" x2="140.84" y2="810.78" gradientTransform="matrix(1.02, 0.41, -0.35, 0.87, 369.92, -732.38)" gradientUnits="userSpaceOnUse">
      <stop offset="0.13" stop-color="#ff206e"/>
      <stop offset="0.95" stop-color="#fbff12"/>
    </linearGradient>
    <linearGradient id="a3ef9318-7aef-4e95-be1b-f2e5efaabf96" x1="223.12" y1="1210.31" x2="223.12" y2="1146.07" gradientTransform="matrix(0.81, 0.59, -0.59, 0.81, 828.37, -948.95)" xlink:href="#ae72b3e4-08ac-46a1-9d26-814d134a9ee8"/>
    <linearGradient id="ae14752e-5268-4cd1-a086-e1bb2d4ffdfb" x1="226.17" y1="1263.74" x2="226.17" y2="1154.54" gradientTransform="matrix(0.81, 0.59, -0.59, 0.81, 828.37, -948.95)" xlink:href="#ae72b3e4-08ac-46a1-9d26-814d134a9ee8"/>
    <linearGradient id="efca66c3-9fea-45a0-a7c8-61af990f80fd" x1="274.69" y1="213.17" x2="274.69" y2="104.59" gradientTransform="matrix(1, 0.1, -0.1, 1, 48.51, -56.86)" xlink:href="#ace65918-c056-4c2c-84cb-b578b3b22411"/>
    <linearGradient id="fc57d2a2-f76e-492c-bc9f-f32eae86bae9" x1="359.23" y1="127.63" x2="359.23" y2="99.95" gradientTransform="translate(45.96 -61.84) rotate(5.28)" xlink:href="#ae72b3e4-08ac-46a1-9d26-814d134a9ee8"/>
    <linearGradient id="edba2748-2eab-4f0c-9806-14ea2033c9ba" x1="393.54" y1="284.72" x2="393.54" y2="69.4" gradientTransform="translate(45.96 -61.84) rotate(5.28)" xlink:href="#ae72b3e4-08ac-46a1-9d26-814d134a9ee8"/>
    <linearGradient id="bf41808d-86a1-4736-9127-5f2e78b05495" x1="382.71" y1="259.66" x2="382.71" y2="68.19" gradientTransform="translate(45.96 -61.84) rotate(5.28)" xlink:href="#ace65918-c056-4c2c-84cb-b578b3b22411"/>
    <linearGradient id="b6ce2f0c-8763-46e2-bf6a-09d0bff444bb" x1="3255.43" y1="-505.61" x2="3255.43" y2="-569.4" gradientTransform="matrix(0.8, 0.74, -0.71, 0.77, -2432.92, -1882.86)" xlink:href="#ae72b3e4-08ac-46a1-9d26-814d134a9ee8"/>
    <linearGradient id="ad54c58f-86e6-4d72-9cb4-6eb6a3ecbb34" x1="3258.61" y1="-453.29" x2="3258.61" y2="-560.43" gradientTransform="matrix(0.8, 0.74, -0.71, 0.77, -2432.92, -1882.86)" xlink:href="#ae72b3e4-08ac-46a1-9d26-814d134a9ee8"/>
    <linearGradient id="ea0080d8-ccf7-4df3-971b-53d2af2965d7" x1="500.94" y1="231.14" x2="500.94" y2="123.94" gradientTransform="matrix(0.99, 0.14, -0.14, 0.99, 72.87, -123.03)" xlink:href="#ace65918-c056-4c2c-84cb-b578b3b22411"/>
    <linearGradient id="b6f11975-254a-4d65-9252-447a135bb420" x1="228.1" y1="422.91" x2="270.89" y2="422.91" gradientTransform="matrix(-0.92, -0.28, 0.28, -1.04, 584.49, 541.39)" xlink:href="#ace65918-c056-4c2c-84cb-b578b3b22411"/>
    <linearGradient id="fdef960d-f10e-461c-a7d3-53b2e8c50eb8" x1="220.39" y1="-58.74" x2="251.21" y2="-58.74" gradientTransform="matrix(1.34, -0.59, 0.82, 0.87, 36.13, 211.66)" xlink:href="#ace65918-c056-4c2c-84cb-b578b3b22411"/>
    <linearGradient id="a8898d88-45b8-4e28-9798-475a5c56813c" x1="119.45" y1="101.83" x2="175.3" y2="101.83" gradientTransform="matrix(-1.34, -0.02, -0.02, 1.02, 237.56, 47.84)" xlink:href="#ace65918-c056-4c2c-84cb-b578b3b22411"/>
    <linearGradient id="e9d2d47d-b798-4667-bad3-e1852b518585" x1="-308.42" y1="471.76" x2="-261.38" y2="471.76" gradientTransform="matrix(0.64, 1.28, 1.86, -0.96, -295.43, 1071.73)" xlink:href="#ace65918-c056-4c2c-84cb-b578b3b22411"/>
  </defs>
  <g id="b5f79e20-ce43-484b-8b16-5bae6317d26e" data-name="Layer 2">
    <g id="a6592166-1890-402b-9702-78f6c3b4cb46" data-name="Layer 1">
      <g>
        <g>
          <path class="b36d6814-6449-43a6-b9dd-cb542d522bdf" d="M615.7,129.26l-.14-.87a199.39,199.39,0,0,0-4.88-23.8,57.52,57.52,0,0,0-20.15-29.53,55.26,55.26,0,0,0-8.26-5.29,97.8,97.8,0,0,0-9.3-4l-2.34-.9-1.85-.72a2,2,0,0,0-.54-.14c-1.66-.22-3.28-.42-4.82-.58H563l-2.89.25c-5.08.37-10.41.56-16.29.56h-2.19l-.37,0-2.55.4c-22.43,3.54-30.68,4.84-39.19,9.84l-7.32-23a17.05,17.05,0,0,0-1.44-3.59c-3-5.68-9.35-9.61-16.51-10.27-.69-.07-1.4-.1-2.11-.11H472c-.35,0-.71,0-1.06,0-9.65.48-19.4.72-29,.72h0a23.15,23.15,0,0,0-3.33-.56c-.62,0-1.39-.09-2-.1h-.14a24.6,24.6,0,0,0-5,.54c-14.73-.25-29.07-1-43.85-2.41-1.7-.15-3.41-.32-5.12-.49l-.18,0c-.62-.06-1.25-.09-1.86-.09h-.18c-13.49,0-22.35,9.43-27.65,15.06l-.09.11c-.34.35-.63.67-.86.9-1.61,1.64-5.19,6.31-6.81,8.54C343.25,61,333.11,65.12,327,67.06l-1.66.48h0l-.14,0c-.77.23-1.55.47-2.35.73-8.83.74-17.32,3.23-24.49,5.58-2.81.93-5.68,1.94-8.52,3-16.93,5-31.86,11-39.95,16.22l-.61.39c.34-3.13.69-6.27,1.06-9.38.63-3.79,1.21-7.19,1.8-10.4.07-.36.14-.84.19-1.28a15.23,15.23,0,0,0,.08-2l0-1.85c1.64-11.51,3.57-23,5.72-34.12,1.66-8.62-3.31-17.12-12.08-20.67-.56-.22-1.26-.47-1.83-.64a20,20,0,0,0-6.3-1c-5.45,0-12,2-20,6l-1.26.64c-7.66,3.85-19.25,9.67-23.22,20.62a678.4,678.4,0,0,1-30.36,71c-7.6-19.36-12.25-40-16.38-58.48a18.62,18.62,0,0,0-11.4-13,16.79,16.79,0,0,0-1.68-.6,19.93,19.93,0,0,0-5.92-.93c-5.27,0-11.64,2.14-22,7.38C86.75,54.4,83,60.86,81.68,66.42c-8.28,35.91-30.39,92.13-47.48,133a18.16,18.16,0,0,0-1.32,7,15.17,15.17,0,0,0-1,5.6l.38,27.41c.1,7.16,5.16,14,12.61,17,.57.24,1.27.48,1.86.66a22.6,22.6,0,0,0,6.77,1,25.24,25.24,0,0,0,3-.17,40.6,40.6,0,0,0,6.95-1.5,90.14,90.14,0,0,0,10.23-3.79l2.75-1.33a75.82,75.82,0,0,0,11.34-6.53,35.78,35.78,0,0,0,5.71-5.08,24.86,24.86,0,0,0,4.48-7c1-2.44,4.82-13.78,8.49-24.75,1.85-5.53,3.64-10.88,4.92-14.63l1.72,3.06c5.53,9.87,12.41,22.15,18.67,29.08a23,23,0,0,0,8.44,5.86c.65.26,1.29.49,2,.7a24.92,24.92,0,0,0,7.33,1.09,26.08,26.08,0,0,0,3-.18,33.06,33.06,0,0,0,5.71-1.19,54.37,54.37,0,0,0,8-3.22c2.59-1.27,5.28-2.76,8-4.45a671.19,671.19,0,0,0,16.41,104.74c1.37,5.76,6.2,10.95,12.62,13.55.59.24,1.19.45,1.78.64a25.57,25.57,0,0,0,7.69,1.18c.66,0,1.34,0,2-.08a36.15,36.15,0,0,0,5.91-1,114.9,114.9,0,0,0,13.72-4.7l.11,0h0l.61-.28,1.26-.56.14-.06a79.8,79.8,0,0,0,11.71-6,28.48,28.48,0,0,0,5-4.07,17.51,17.51,0,0,0,4.33-7.38,13.93,13.93,0,0,0,.39-1.83,15.82,15.82,0,0,0,.14-3.31l-1.3-26.18h0c0-.28-.05-.76-.05-.76a15.88,15.88,0,0,0-2.13-6.49,19.22,19.22,0,0,0-.81-2.54c-2.61-16.87-4.65-34-6.08-51a55.79,55.79,0,0,0,25,7.77c1.51.11,3.06.16,4.63.16a75.06,75.06,0,0,0,8.75-.53,93.23,93.23,0,0,0,9.39-1.64c3.17-.72,6.3-1.53,9.28-2.4a127.37,127.37,0,0,0,19.79-7.56,94.58,94.58,0,0,0,15.51-9.41,76.52,76.52,0,0,0,8.14-7.08,66.89,66.89,0,0,0,8.61-10.63c.46-.7.9-1.42,1.34-2.16,24.13,15.61,41.91,36.32,51.4,59.92l5.18,16.31c2.32,7.25,9.27,12.44,17.72,13.22.59.06,1.37.1,2,.1h.18a24.85,24.85,0,0,0,9.79-2.05,34.58,34.58,0,0,0,5.37-2.92,75.64,75.64,0,0,0,9.1-7.24h0l2.95-2.67a72.86,72.86,0,0,0,8.64-9.17,35.19,35.19,0,0,0,4-6.44,24.3,24.3,0,0,0,2.35-8.78c.29-4.73.54-9.48.72-14.1.2-4.89.34-9.92.42-15a61,61,0,0,0,22.61,10,73.8,73.8,0,0,0,13.66,1.62c.78,0,1.6,0,2.4,0,2.37,0,4.83-.09,7.33-.28,3.29-.25,6.55-.6,9.68-1a125.38,125.38,0,0,0,20.86-4.69,90.66,90.66,0,0,0,16.68-7.21,72.48,72.48,0,0,0,8.95-6,61.68,61.68,0,0,0,16.58-19.75,66.79,66.79,0,0,0,3-6.51c.1-.27,10.44-26.19,10.57-26.5h0l.09-.24a83.31,83.31,0,0,0,5.3-25.12A2.45,2.45,0,0,0,615.7,129.26Z"/>
          <g>
            <path class="ff7097bf-1164-4a5a-abef-9a1d2bef95d8" d="M216.82,335.93a24.44,24.44,0,0,1-7.33-1.12c-.56-.18-1.13-.38-1.69-.61-6.07-2.45-10.63-7.32-11.91-12.71A669.53,669.53,0,0,1,179.37,215a99.56,99.56,0,0,1-9.62,5.44,51.9,51.9,0,0,1-7.84,3.15,31.65,31.65,0,0,1-5.5,1.16,25.93,25.93,0,0,1-2.91.16,23.92,23.92,0,0,1-7-1c-.65-.2-1.27-.42-1.88-.66a21.94,21.94,0,0,1-8-5.57c-6.16-6.82-13-19-18.51-28.85-1.05-1.89-2.07-3.7-3-5.38-1.26,3.62-3.47,10.24-5.79,17.16-3.66,10.94-7.44,22.26-8.45,24.66a23.66,23.66,0,0,1-4.27,6.64,34.81,34.81,0,0,1-5.52,4.91,74.51,74.51,0,0,1-11.15,6.42l-2.75,1.33a88.46,88.46,0,0,1-10.06,3.72,38.33,38.33,0,0,1-6.75,1.46,25,25,0,0,1-2.83.17,21.6,21.6,0,0,1-6.42-1c-.56-.17-1.21-.4-1.76-.62-7-2.84-11.77-9.23-11.86-15.92L37.09,205a14.2,14.2,0,0,1,1-5.37,17.11,17.11,0,0,1,1.22-6.72C56.41,152,78.54,95.68,86.84,59.69,88.06,54.41,91.73,48.25,110.1,39c10.18-5.15,16.4-7.25,21.46-7.25a18.86,18.86,0,0,1,5.57.87c.54.17,1.07.36,1.59.56a17.44,17.44,0,0,1,10.67,12.13c4.32,19.27,9.2,41,17.43,61.16a679.74,679.74,0,0,0,31.6-73.49c3.81-10.5,15.15-16.2,22.64-20l1.26-.64c7.75-3.92,14.31-5.91,19.5-5.91a18.89,18.89,0,0,1,6,1c.54.16,1.2.4,1.73.61,8.24,3.33,12.91,11.28,11.36,19.33-2.17,11.19-4.1,22.72-5.75,34.27l0,2a12.7,12.7,0,0,1-.08,1.79c0,.4-.11.86-.18,1.21-.58,3.19-1.17,6.62-1.8,10.46-.47,3.91-.92,7.92-1.33,11.93.89-.61,1.8-1.21,2.71-1.8,8-5.13,22.86-11.15,39.73-16.1C297,70,299.85,69,302.66,68c7.14-2.34,15.6-4.83,24.35-5.54.83-.27,1.62-.51,2.41-.75l.13,0,1.76-.51c6.7-2.1,17.35-6.46,18.38-7.72,1.89-2.59,5.3-7,6.77-8.49.23-.24.55-.57.9-1,5.22-5.56,13.87-14.76,26.84-14.76h.17c.58,0,1.17,0,1.76.09l.19,0c1.69.17,3.41.34,5.11.49,14.86,1.37,29.28,2.17,44.08,2.42a22.89,22.89,0,0,1,4.92-.54h.13c.59,0,1.35,0,1.92.09a22.61,22.61,0,0,1,3.29.56h.2c9.58,0,19.34-.24,29-.72l1,0a19.59,19.59,0,0,1,2.1.1c6.76.62,12.73,4.31,15.57,9.64a16.27,16.27,0,0,1,1.35,3.4l7.78,24.47c8.77-5.54,16.06-6.68,40.06-10.47l2.55-.4.19,0h2.19c5.91,0,11.26-.18,16.36-.56l2.92-.25h.23c1.55.16,3.16.35,4.79.57l.27.07,4.19,1.63a95.48,95.48,0,0,1,9.18,4A54.28,54.28,0,0,1,593.81,69a56.29,56.29,0,0,1,19.72,28.91,197.65,197.65,0,0,1,4.85,23.65l.14.88a1.23,1.23,0,0,1,0,.27,82.41,82.41,0,0,1-5.23,24.78,1.32,1.32,0,0,1-.08.22l-10.57,26.5a65.8,65.8,0,0,1-3,6.4,60.35,60.35,0,0,1-6.69,10,61.57,61.57,0,0,1-9.56,9.32,71.3,71.3,0,0,1-8.81,5.86A89.14,89.14,0,0,1,558.18,213a123.34,123.34,0,0,1-20.67,4.64c-3.1.44-6.33.79-9.6,1-2.47.18-4.9.28-7.24.28q-1.2,0-2.37,0a72.48,72.48,0,0,1-13.44-1.6,59.68,59.68,0,0,1-24-11.17c-.07,5.87-.21,11.68-.44,17.31-.19,4.62-.43,9.36-.73,14.08a22.8,22.8,0,0,1-2.23,8.34,34.33,34.33,0,0,1-3.85,6.23,73.09,73.09,0,0,1-8.5,9l-2.95,2.68a74.37,74.37,0,0,1-8.94,7.11A34,34,0,0,1,448,273.7a23.59,23.59,0,0,1-9.32,2h-.16c-.59,0-1.33,0-1.89-.1-8-.73-14.52-5.6-16.69-12.39l-5.21-16.4c-9.55-23.79-27.51-44.74-51.91-60.5-.33-.21-.66-.44-1-.68-.64,1.11-1.29,2.19-2,3.21a65.65,65.65,0,0,1-8.45,10.45,75.36,75.36,0,0,1-8,7,93.23,93.23,0,0,1-15.31,9.28A125.44,125.44,0,0,1,308.49,223c-2.95.87-6.05,1.67-9.2,2.38A87.92,87.92,0,0,1,290,227a72.42,72.42,0,0,1-8.6.53c-1.54,0-3.06-.06-4.54-.16a54.58,54.58,0,0,1-24.52-7.64c-.66-.39-1.3-.8-1.94-1.22,1.43,17.88,3.55,35.9,6.3,53.63a15.61,15.61,0,0,1,.84,2.67,14.56,14.56,0,0,1,2.07,6.13c0,.18,0,.54,0,.73h0l1.3,26.21a14.79,14.79,0,0,1-.13,3.05,13.3,13.3,0,0,1-.36,1.68,16.24,16.24,0,0,1-4.05,6.87,27.45,27.45,0,0,1-4.78,3.91,80.89,80.89,0,0,1-11.5,5.92l-.09,0c-.55.24-1,.44-1.38.61l-.59.26a113.17,113.17,0,0,1-13.64,4.68,33.77,33.77,0,0,1-5.71,1C218.1,335.91,217.45,335.93,216.82,335.93Z"/>
            <path class="bc0c5163-2a40-4611-bcf4-2e3c09d7de04" d="M241.82,7.61a17.77,17.77,0,0,1,5.61.9c.5.15,1.13.37,1.62.57,7.7,3.11,12.08,10.51,10.64,18q-3.33,17.14-5.77,34.42l0,2.08a11,11,0,0,1-.07,1.64c0,.36-.1.79-.16,1.11q-1,5.22-1.81,10.49-.89,7.31-1.6,14.63,2.31-1.7,4.8-3.29c8.39-5.37,23.55-11.3,39.43-16,2.74-1,5.56-2,8.5-3,7.19-2.36,15.59-4.81,24.21-5.49.9-.29,1.76-.56,2.6-.81h0l.09,0c.58-.17,1.15-.34,1.71-.49,5.59-1.76,17.77-6.45,19-8.16,1.82-2.5,5.24-6.92,6.65-8.36l1-1c5-5.36,13.45-14.31,25.91-14.31h.17c.55,0,1.1,0,1.65.08l.16,0c1.72.17,3.43.34,5.14.49,14.9,1.38,29.43,2.18,44.31,2.43a21.82,21.82,0,0,1,4.8-.55h.13c.55,0,1.26,0,1.81.09a21.42,21.42,0,0,1,3.25.57H446c9.61,0,19.37-.24,29.08-.72.31,0,.63,0,.94,0h.1c.67,0,1.3,0,1.9.1,6.37.58,12,4,14.62,9a14.83,14.83,0,0,1,1.26,3.14l8.2,25.81.06.22c9.5-6.35,16.49-7.29,43.46-11.55h2.19c5.5,0,11-.16,16.46-.57,1-.07,2-.16,2.94-.25,1.59.16,3.17.35,4.75.57L576.11,61a93.14,93.14,0,0,1,9.06,3.93A52.82,52.82,0,0,1,593.08,70a54.87,54.87,0,0,1,19.31,28.29c2.32,8,3.62,16.21,5,24.4a80.62,80.62,0,0,1-5.14,24.41c0,.07-.05.14-.08.22s-10.57,26.5-10.57,26.5a64.41,64.41,0,0,1-2.91,6.28,59.24,59.24,0,0,1-15.94,19,69.26,69.26,0,0,1-8.66,5.76,87.72,87.72,0,0,1-16.23,7,121.27,121.27,0,0,1-20.47,4.6c-3.08.43-6.29.78-9.53,1-2.44.18-4.83.27-7.14.27q-1.18,0-2.34,0a71.71,71.71,0,0,1-13.21-1.57A58.54,58.54,0,0,1,481.3,205c-.55-.43-1.1-.88-1.64-1.33q-.07,9.88-.46,19.74c-.19,4.65-.44,9.37-.73,14.05a21.86,21.86,0,0,1-2.12,7.91,32.53,32.53,0,0,1-3.72,6,70.58,70.58,0,0,1-8.36,8.86l-2.94,2.67a73.44,73.44,0,0,1-8.8,7,32.88,32.88,0,0,1-5,2.72,22.53,22.53,0,0,1-8.85,1.86h-.15c-.55,0-1.25,0-1.79-.09-7.49-.69-13.64-5.23-15.66-11.56l-5.21-16.4c-9.68-24.11-27.79-45.24-52.4-61.14a17.56,17.56,0,0,1-2-1.5q-1.22,2.25-2.6,4.38a64.4,64.4,0,0,1-8.3,10.26,75.22,75.22,0,0,1-7.89,6.86,92.71,92.71,0,0,1-15.12,9.16,124.11,124.11,0,0,1-19.41,7.41c-3,.87-6,1.66-9.13,2.37a91.49,91.49,0,0,1-9.16,1.6,72.27,72.27,0,0,1-8.46.51c-1.51,0-3,0-4.46-.15a53.55,53.55,0,0,1-24-7.47c-1.17-.71-2.34-1.48-3.46-2.28-.17-.11-.32-.23-.48-.35q2.16,28.17,6.53,56.38a15.41,15.41,0,0,1,.88,2.8,13.64,13.64,0,0,1,2,5.8c0,.18.05.66.05.67l1.3,26.21a13.8,13.8,0,0,1-.12,2.81,12.21,12.21,0,0,1-.33,1.54,15.09,15.09,0,0,1-3.76,6.37,26.33,26.33,0,0,1-4.58,3.73,77.05,77.05,0,0,1-11.35,5.83c-.58.26-1.09.48-1.46.66l-.63.27a109.7,109.7,0,0,1-13.39,4.59,33.47,33.47,0,0,1-5.51.94c-.61,0-1.22.07-1.83.07a23.11,23.11,0,0,1-7-1.07c-.55-.17-1.08-.37-1.61-.58-5.67-2.29-10-6.82-11.19-11.88a668.22,668.22,0,0,1-16.63-108.36,103.22,103.22,0,0,1-11.19,6.47,52.1,52.1,0,0,1-7.66,3.08,30.13,30.13,0,0,1-5.29,1.11,26.21,26.21,0,0,1-2.78.16,22.54,22.54,0,0,1-6.63-1c-.63-.19-1.21-.4-1.78-.63h0a20.69,20.69,0,0,1-7.57-5.26c-7.78-8.6-16.65-25.92-22.67-36.25-1.75,4.44-13.28,39.83-15.1,44.18a22.54,22.54,0,0,1-4.06,6.3,33.44,33.44,0,0,1-5.34,4.74,73.14,73.14,0,0,1-11,6.32l-2.74,1.33a90.19,90.19,0,0,1-9.88,3.65,39.19,39.19,0,0,1-6.54,1.42,25,25,0,0,1-2.7.15,20.61,20.61,0,0,1-6.08-.89c-.52-.16-1.15-.39-1.66-.59-6.56-2.66-11-8.61-11.11-14.83l-.38-27.4a12.89,12.89,0,0,1,1-5.13,16,16,0,0,1,1.13-6.48C55.39,157.51,79.3,97.69,88,60c1.15-5,4.7-10.87,22.63-19.94,10.5-5.31,16.37-7.13,20.92-7.13a17.4,17.4,0,0,1,5.22.83,15.44,15.44,0,0,1,1.49.52,16.33,16.33,0,0,1,9.95,11.28c4.59,20.46,9.61,42.84,18.49,63.76a679.81,679.81,0,0,0,32.84-75.95c3.64-10,14.72-15.62,22-19.3l1.26-.64c9.11-4.61,15-5.78,19-5.78m0-2.39v0c-5.45,0-12,2-20,6l-1.26.64c-7.66,3.85-19.25,9.67-23.22,20.62a678.4,678.4,0,0,1-30.36,71c-7.6-19.36-12.24-40-16.38-58.48a18.62,18.62,0,0,0-11.4-13,16.79,16.79,0,0,0-1.68-.6,19.93,19.93,0,0,0-5.92-.93c-5.27,0-11.64,2.14-22,7.38C90.75,47.4,87,53.86,85.68,59.42c-8.28,35.91-30.39,92.13-47.48,133a18.16,18.16,0,0,0-1.32,7,15.17,15.17,0,0,0-1,5.6l.38,27.41c.1,7.16,5.16,14,12.61,17,.57.24,1.27.48,1.86.66a22.6,22.6,0,0,0,6.77,1,25.24,25.24,0,0,0,3-.17,40.6,40.6,0,0,0,6.95-1.5,90.14,90.14,0,0,0,10.23-3.79l2.75-1.33a75.82,75.82,0,0,0,11.34-6.53,35.78,35.78,0,0,0,5.71-5.08,24.86,24.86,0,0,0,4.48-7c1-2.44,4.82-13.78,8.49-24.75,1.85-5.53,3.64-10.88,4.92-14.63l1.72,3.06c5.53,9.87,12.41,22.15,18.67,29.08a23,23,0,0,0,8.44,5.86c.65.26,1.29.49,2,.7a24.92,24.92,0,0,0,7.33,1.09,26.08,26.08,0,0,0,3-.18,33.06,33.06,0,0,0,5.71-1.19,54.37,54.37,0,0,0,8-3.22c2.59-1.27,5.28-2.76,8-4.45a671.19,671.19,0,0,0,16.41,104.74c1.37,5.76,6.2,10.95,12.62,13.55.59.24,1.19.45,1.78.64a25.57,25.57,0,0,0,7.69,1.18c.66,0,1.34,0,2-.08a36.15,36.15,0,0,0,5.91-1,114.9,114.9,0,0,0,13.72-4.7l.1,0h0l.61-.28,1.28-.56.12-.06a79.8,79.8,0,0,0,11.71-6,28.48,28.48,0,0,0,5-4.07,17.51,17.51,0,0,0,4.33-7.38,13.93,13.93,0,0,0,.39-1.83,15.82,15.82,0,0,0,.14-3.31l-1.3-26.18h0c0-.27-.05-.76-.05-.76a15.88,15.88,0,0,0-2.13-6.49,19.22,19.22,0,0,0-.81-2.54c-2.61-16.87-4.65-34-6.08-51a55.79,55.79,0,0,0,25,7.77c1.51.11,3.06.16,4.63.16a75.06,75.06,0,0,0,8.75-.53,93.23,93.23,0,0,0,9.39-1.64c3.17-.72,6.3-1.53,9.28-2.4a127.37,127.37,0,0,0,19.79-7.56,94.58,94.58,0,0,0,15.51-9.41,76.52,76.52,0,0,0,8.14-7.08,66.89,66.89,0,0,0,8.61-10.63c.46-.7.9-1.42,1.34-2.16,24.13,15.61,41.91,36.32,51.4,59.92l5.18,16.31c2.32,7.25,9.27,12.44,17.72,13.22.59.06,1.37.1,2,.1h.18a24.85,24.85,0,0,0,9.79-2.05,34.58,34.58,0,0,0,5.37-2.92,75.64,75.64,0,0,0,9.1-7.24h0l2.95-2.67a73.56,73.56,0,0,0,8.64-9.17,35.19,35.19,0,0,0,4-6.44,24.3,24.3,0,0,0,2.35-8.78c.29-4.73.54-9.48.72-14.1.2-4.89.34-9.92.42-15a61,61,0,0,0,22.61,10,73.8,73.8,0,0,0,13.66,1.62c.78,0,1.6,0,2.4,0,2.37,0,4.83-.09,7.33-.28,3.29-.25,6.55-.6,9.68-1a125.38,125.38,0,0,0,20.86-4.69,90.66,90.66,0,0,0,16.68-7.21,72.48,72.48,0,0,0,8.95-6,61.68,61.68,0,0,0,16.58-19.75,66.79,66.79,0,0,0,3-6.51c.1-.27,10.39-26,10.57-26.5h0l.09-.24a83.31,83.31,0,0,0,5.3-25.12,2.45,2.45,0,0,0,0-.54l-.14-.87a199.39,199.39,0,0,0-4.88-23.8,57.52,57.52,0,0,0-20.15-29.53,55.26,55.26,0,0,0-8.26-5.29,97.8,97.8,0,0,0-9.3-4l-2.34-.9-1.85-.72a2,2,0,0,0-.54-.14c-1.66-.22-3.28-.42-4.82-.58H567l-2.89.25c-5.08.37-10.41.56-16.29.56h-2.19l-.37,0-2.55.4c-22.43,3.54-30.68,4.84-39.19,9.84l-7.32-23a17.05,17.05,0,0,0-1.44-3.59c-3-5.68-9.35-9.61-16.51-10.27-.69-.07-1.4-.1-2.11-.11H476c-.35,0-.71,0-1.06,0-9.65.48-19.4.72-29,.72h0a23.38,23.38,0,0,0-3.33-.56c-.62-.05-1.39-.09-2-.1h-.14a24.6,24.6,0,0,0-5,.54c-14.72-.25-29.07-1-43.85-2.41-1.7-.15-3.41-.32-5.12-.49l-.18,0c-.62-.06-1.25-.09-1.86-.09h-.18c-13.49,0-22.35,9.43-27.65,15.06l-.09.11c-.34.35-.63.67-.86.9-1.61,1.64-5.19,6.31-6.81,8.54C347.25,54,337.11,58.12,331,60.06l-1.67.48h0l-.15,0c-.76.23-1.54.47-2.34.73-8.83.74-17.32,3.23-24.49,5.58-2.81.93-5.67,1.94-8.52,3-16.93,5-31.86,11-39.95,16.22l-.61.39c.34-3.13.69-6.27,1.06-9.38.63-3.79,1.21-7.19,1.8-10.4.07-.36.14-.84.19-1.28a15.3,15.3,0,0,0,.08-2l0-1.85c1.64-11.5,3.57-23,5.72-34.12,1.66-8.62-3.31-17.12-12.08-20.67-.56-.22-1.26-.47-1.83-.64a20,20,0,0,0-6.3-1Z"/>
          </g>
          <path class="ff990ffa-7b4a-4506-977b-1a6fcfe899e0" d="M233.56,115.1q2.59-26.2,7.53-51.88a.68.68,0,0,0,0-.14,1.09,1.09,0,0,0,0-.18l-.77-26.68a1.09,1.09,0,0,1,0,.18.77.77,0,0,1,0,.15q-4.94,25.65-7.53,51.87a602,602,0,0,0-2.64,76.63l.77,26.67A601.81,601.81,0,0,1,233.56,115.1Z"/>
          <path class="a80e1273-22e8-43f6-abef-adad7727d04b" d="M153.47,202.35a34.29,34.29,0,0,0,5.19-2.07,90,90,0,0,0,12.52-7.52,32.24,32.24,0,0,0,4.44-3.63,3.29,3.29,0,0,0,.33-.41q13.34-20.68,25-42.16l-.48-26.16q-11.67,21.48-25,42.17a2.92,2.92,0,0,1-.32.41,33,33,0,0,1-4.44,3.63,90,90,0,0,1-12.52,7.52A35.82,35.82,0,0,1,153,176.2a13.09,13.09,0,0,1-2.37.5,5.05,5.05,0,0,1-2.06-.12,2.36,2.36,0,0,1-1-.63c-16.38-17.93-26.43-38.07-33.76-58.83q-1.48,4.56-3.06,9.09c-4.3,12.5-20.23,45.82-25.35,58.05A9.8,9.8,0,0,1,83.54,187a19,19,0,0,1-3.16,2.75,57.46,57.46,0,0,1-8.53,4.8l-2.63,1.26a36.41,36.41,0,0,1-7.34,3.51,21.43,21.43,0,0,1-3.61.8,3.75,3.75,0,0,1-1.46,0,.63.63,0,0,1-.53-.6l.49,26.15c0,.31.19.5.53.61a4.16,4.16,0,0,0,1.46,0,23.77,23.77,0,0,0,3.6-.8,76,76,0,0,0,7.3-2.61l2.63-1.25a58,58,0,0,0,8.54-4.8A20.45,20.45,0,0,0,84,214.08a10.07,10.07,0,0,0,1.82-2.76c5.12-12.23,21.08-46.46,25.39-58.95q1.56-4.55,3-9.1c7.33,20.76,17.39,40.9,33.76,58.83a2.25,2.25,0,0,0,1,.63,5.19,5.19,0,0,0,2.06.13A13.26,13.26,0,0,0,153.47,202.35Z"/>
          <path class="afa49214-7368-447d-8add-d8f6822795f5" d="M240.47,305.1,240,279a2,2,0,0,1,0,.49,2.82,2.82,0,0,1-.07.31,5,5,0,0,1-1.16,1.88,15.3,15.3,0,0,1-2.43,2.09c-3.5,2.51-8.51,4.75-10.51,5.79h0a96.75,96.75,0,0,1-10.58,4.15,15.87,15.87,0,0,1-2.49.56,3.09,3.09,0,0,1-1.13,0A666,666,0,0,1,199,177.52l.48,26.15a666.93,666.93,0,0,0,12.57,116.67,3.1,3.1,0,0,0,1.13,0,16.92,16.92,0,0,0,2.49-.55,95.22,95.22,0,0,0,10.58-4.16h0c2-1,7-3.28,10.51-5.79a15.4,15.4,0,0,0,2.44-2.09,5.16,5.16,0,0,0,1.15-1.87c0-.11,0-.21.07-.32A2,2,0,0,0,240.47,305.1Z"/>
          <path class="b1209b00-40f1-44b1-9016-9d917c52e7ef" d="M211.37,294.7a.67.67,0,0,1-.42-.48,662.12,662.12,0,0,1-11.33-170.9C192.28,136.69,184.35,150,176,162.9c-1.82,2.81-21.4,16.13-27.61,14.22l-.3-.1a3.06,3.06,0,0,1-1.07-.74c-14.15-15.49-24.73-33.7-33.23-57.21C108.8,134.22,92,170.14,86,184.51c-2.12,5-9.69,8.63-15.22,11.25l-1.18.57c-.1,0-10.13,5.15-12.9,4.29l-.17-.06a1.31,1.31,0,0,1-.73-.63,1.35,1.35,0,0,1,0-1.19C70,164.82,92.51,107.55,100.46,71.64c.76-3.41,11.92-8.91,15.33-10.52,4.37-2.06,12.27-5.4,14.1-4.84l.06,0a.67.67,0,0,1,.42.45C137.51,85.08,145.59,117.15,165,145A607.77,607.77,0,0,0,208.61,50c1.8-5,9.81-8.75,15.11-11.24l1.29-.6c.39-.19,9.52-4.46,12.57-3.52l.19.07a1.56,1.56,0,0,1,1,1.85c-14.1,77.22-13.78,156.9.94,236.81a1.84,1.84,0,0,1,.69,1.42l.22,4.18c.19,3.51-6.51,7.1-12.8,10.19l-1.67.83c-.13.07-11.92,5.58-14.73,4.71Z"/>
          <path class="b88ece18-0993-42f0-83a6-b9234fd25da9" d="M237.56,35.24a1,1,0,0,1,.59,1.19c-14.1,77.21-13.78,157.24,1,237.23a1.25,1.25,0,0,1,.63,1.1c.07,1.4.16,2.79.23,4.19.21,4-11,8.87-14.2,10.56-.27.13-11.78,5.43-14.21,4.68A659.64,659.64,0,0,1,200.47,120.4q-11.67,21.48-25,42.17c-1.71,2.64-21.07,15.81-26.9,14l-.22-.08a2.2,2.2,0,0,1-.81-.55c-16.38-17.93-26.43-38.07-33.76-58.83-5.11,15.6-22,51.95-28.41,67.14-2.2,5.24-10.88,9-16.14,11.56-.48.22-10,5-12.41,4.26l-.1,0c-.41-.17-.55-.5-.31-1.06,14.28-34.08,36.71-91.11,44.69-127.17,1-4.69,26.05-15.8,28.65-15,7.69,30.49,15.84,61.78,35.32,89.29a606.15,606.15,0,0,0,44.16-95.86C211.1,45,220.3,41.1,225.36,38.69c.76-.36,9.45-4.3,12.07-3.49l.13,0m.42-1-.25-.09c-3.26-1-12.07,3.08-13.07,3.54l-1.28.61C218,40.79,209.86,44.61,208,49.79a606.12,606.12,0,0,1-43.12,94C146,116.28,138.05,84.66,131,56.69a1.39,1.39,0,0,0-.84-.9l-.12,0c-2.41-.74-11.79,3.54-14.6,4.87C111,62.7,100.61,67.94,99.83,71.47c-8,35.88-30.44,93.12-44.65,127a1.86,1.86,0,0,0,0,1.63,2.05,2.05,0,0,0,1.1,1l.23.08c3.11,1,13.3-4.27,13.39-4.32l1.19-.56c5.61-2.66,13.29-6.31,15.47-11.52,5.8-13.85,22.43-49.19,27.3-63.76,8.41,22.71,18.86,40.46,32.7,55.61a3.49,3.49,0,0,0,1.35.92l.35.13c6.64,2,26.45-11.53,28.33-14.44,7.79-12.08,15.24-24.52,22.2-37a662.51,662.51,0,0,0,11.51,168.09,1.4,1.4,0,0,0,.85,1l.13,0c3.21,1,15.1-4.67,15.21-4.73.46-.24,1-.51,1.69-.84,6.44-3.16,13.29-6.85,13.08-10.67,0-.69-.07-1.39-.11-2.09s-.08-1.39-.11-2.09a2.49,2.49,0,0,0-.73-1.68c-14.68-79.78-15-159.33-.9-236.43A2.18,2.18,0,0,0,238,34.21Z"/>
          <path class="a3e52038-d53f-4d75-83d5-7113d8da4ff7" d="M292.43,105.58a47.39,47.39,0,0,0-4.38,8.19,43.68,43.68,0,0,0-1.47,4.16l-7.73,26.16q.63-2.11,1.47-4.17a47.3,47.3,0,0,1,4.38-8.18,49.66,49.66,0,0,1,4.77-6,22.94,22.94,0,0,1,3.39-2.94c1.52-1.12,3.13-2.16,4.63-3.27.39-.29.77-.58,1.14-.88.25.17.49.33.72.47a14.92,14.92,0,0,0,2.9,1.25,14.56,14.56,0,0,1,2.87,1.23,14.16,14.16,0,0,1,2.7,2.16,3.57,3.57,0,0,0,.69.52,5.81,5.81,0,0,0,2.2.69c4.14,13.78,7.33,28,5.49,42.14a54.71,54.71,0,0,1-1.79,8.52l7.73-26.16a54.71,54.71,0,0,0,1.79-8.52c1.84-14.17-1.35-28.36-5.49-42.14-4.39-3.17-10.32-5.24-11.36-5.85a3.26,3.26,0,0,0-1.86.41c-1.5,1.11-3.11,2.15-4.63,3.27a24.1,24.1,0,0,0-3.39,2.94A50.44,50.44,0,0,0,292.43,105.58Z"/>
          <path class="a881460a-001e-4b3c-a37e-06ecb990b493" d="M319.88,197.35A74.55,74.55,0,0,0,332.27,190a55.38,55.38,0,0,0,6.16-5.23,47.51,47.51,0,0,0,6.22-7.53,45.77,45.77,0,0,0,4.1-7.71,49.49,49.49,0,0,0,1.71-4.83l7.73-26.16a46.17,46.17,0,0,1-1.71,4.83,45.39,45.39,0,0,1-4.1,7.71,47.07,47.07,0,0,1-6.22,7.53,57.41,57.41,0,0,1-6.15,5.24,75.34,75.34,0,0,1-12.4,7.33,108.37,108.37,0,0,1-16.75,6.21c-2.7.77-5.4,1.44-8.06,2s-5,1-7.51,1.27a54,54,0,0,1-10,.25A38.88,38.88,0,0,1,268,175.69c-.84-.5-1.67-1-2.49-1.61-16-11.2-19.37-28.76-14.66-44.69l-7.73,26.15c-4.71,15.93-1.36,33.5,14.66,44.7.82.58,1.65,1.11,2.49,1.61a38.88,38.88,0,0,0,17.27,5.27,54,54,0,0,0,10-.25,75.78,75.78,0,0,0,7.5-1.27c2.67-.59,5.37-1.26,8.07-2A107.4,107.4,0,0,0,319.88,197.35Z"/>
          <path class="b5cffe8c-e7a8-41a9-a930-1c9c4f15f1f3" d="M346.16,158.63c-10.56,11.65-27.83,17.4-43.36,20.81-12.06,2.64-24.05,2.59-34.77-3.75-.84-.5-1.67-1-2.49-1.61-24.76-17.31-19.25-49.82-.52-68,11.54-11.19,27-18.41,42.43-23.48C314.38,80.32,322.3,78,330,77.66,364.45,70.47,375.67,126.1,346.16,158.63Zm-32.29,6.55c5.78-6.8,8.92-15.55,10.06-24.27,1.84-14.17-3.34-36.62-5.49-42.14-.31-.79-7.23-6.67-12.08-6.31-3.76.27-6.61,4.31-9.16,7.08a46,46,0,0,0-11.65,22.74c-2.7,15.05,3.31,31.7,17.43,40.06l1,.57c.35.19,5.32,2,9.08,3.11.28-.27.54-.54.81-.84"/>
          <path class="f5781aae-51a5-443f-a705-7dd25ee0812c" d="M369.33,96.16q28.21,2.91,56.53,3.22l-8.43-26.53q-28.31-.34-56.53-3.22a.36.36,0,0,1-.34-.26L369,95.9A.37.37,0,0,0,369.33,96.16Z"/>
          <path class="a32f5702-17f5-4d6d-94d0-9ca6d9f418fd" d="M431.62,242.6,437,259.43a1.17,1.17,0,0,0,1.23.88,4.44,4.44,0,0,0,1.67-.42,16.08,16.08,0,0,0,2.43-1.36,59.5,59.5,0,0,0,6.87-5.5c.86-.78,1.86-1.67,2.9-2.63a58.18,58.18,0,0,0,6.7-7,20.55,20.55,0,0,0,2.27-3.64,9.51,9.51,0,0,0,1-3.45q.44-6.89.71-13.78A610,610,0,0,0,455.1,99c2.64-.09,5.29-.18,7.93-.32a8.34,8.34,0,0,0,2.82-.7,15.54,15.54,0,0,0,2.38-1.3,30.14,30.14,0,0,0,3.72-3,103.11,103.11,0,0,0,8.2-9c.27-.31,1-1.17,1.83-2.29a34.38,34.38,0,0,0,3.61-5.57,5.57,5.57,0,0,0,.64-2.15c0-.07,0-.13,0-.18a1.07,1.07,0,0,0-.06-.27l-8.43-26.54a1.86,1.86,0,0,1,0,.27,1.09,1.09,0,0,1,0,.18,5.53,5.53,0,0,1-.63,2.16,36,36,0,0,1-3.61,5.57c-.85,1.11-1.57,2-1.84,2.29a102.85,102.85,0,0,1-8.19,9,30.14,30.14,0,0,1-3.72,3,16,16,0,0,1-2.38,1.3,8.16,8.16,0,0,1-2.82.7c-2.65.14-5.29.23-7.93.32A610.74,610.74,0,0,1,454.29,196q-.29,6.89-.71,13.77a9.61,9.61,0,0,1-1,3.46,20.34,20.34,0,0,1-2.28,3.63,57.34,57.34,0,0,1-6.69,7l-2.9,2.63a62.32,62.32,0,0,1-6.87,5.51,16.51,16.51,0,0,1-2.44,1.35,4.26,4.26,0,0,1-1.67.42,1.32,1.32,0,0,1-.64-.15l-3-9.47c-9.63-30.3-31.29-57.18-61.4-76.64a1.08,1.08,0,0,1-.48-.63l8.43,26.54a1.2,1.2,0,0,0,.48.63C400.55,191.75,420.92,215.62,431.62,242.6Z"/>
          <path class="e9cd786e-a238-4733-9904-5b4b469ced63" d="M429.55,234.36a1.85,1.85,0,0,1-1.73-1.51c-7.94-33.39-30.5-63.53-63.52-84.87-.92-.59-1.08-1.7-.49-3.31,2.52-6.89,18.69-23,24.32-23h.27a2.42,2.42,0,0,1,1.06.35,160.89,160.89,0,0,1,38.31,34.25,614.84,614.84,0,0,0-10.93-82.89c-16.59-.21-33.25-1.08-49.54-2.58q-3.24-.3-6.46-.63a1.08,1.08,0,0,1-.9-.58c-1.11-2.28,9.45-14.78,9.56-14.9.35-.35.75-.78,1.19-1.25C374,49.94,379.6,44,384.7,44c1.85.19,3.61.36,5.37.52,16.35,1.51,32.26,2.34,48.63,2.55a5.41,5.41,0,0,1,2.2-.59h.23a1.88,1.88,0,0,1,1.29.63h.38c11.06.07,22.36-.18,33.59-.73h.35a1.85,1.85,0,0,1,1.54.9c1.32,2.46-4.77,9.79-6,11.24-.36.4-.75.88-1.2,1.4-3.93,4.68-10.52,12.49-16.42,12.79-2.4.12-4.8.21-7.2.29a612.1,612.1,0,0,1,6.81,136.73c-.36,5.69-7.33,12-11.94,16.15l-1.08,1c-3.05,2.79-8.6,7.48-11.47,7.46Z"/>
          <path class="b88ece18-0993-42f0-83a6-b9234fd25da9" d="M476.68,47c4,.37-3.9,9.94-5,11.19-3.23,3.73-10.85,13.64-17.11,13.95-2.65.14-5.29.23-7.93.32a610.45,610.45,0,0,1,6.91,137.25c-.38,5.94-8.41,12.72-12.84,16.76-.84.77-8,7.3-11,7.28h-.16a1.18,1.18,0,0,1-1.11-1c-8-33.79-30.84-64-63.78-85.24-4.26-2.74,17.23-25.25,23.43-25.21h.2a1.61,1.61,0,0,1,.72.23,159.87,159.87,0,0,1,39.53,35.86,612.85,612.85,0,0,0-11.16-85.55q-25.08-.3-50.08-2.59-3.23-.3-6.45-.63c-2.49-.25,8.32-13.67,9.13-14.5,2.9-3,9.26-10.53,14.69-10.5l5.3.51c16.53,1.53,32.69,2.36,48.87,2.55a5.07,5.07,0,0,1,2-.59h.16a1.13,1.13,0,0,1,1,.63h.78q16.8.11,33.63-.74h.23m.11-1.18-.37,0h-.09c-11.22.55-22.5.8-33.54.73h-.06a2.64,2.64,0,0,0-1.55-.63l-.3,0a5.9,5.9,0,0,0-2.36.59c-16.29-.21-32.13-1-48.39-2.54l-5.29-.51h-.15c-5.43,0-11.13,6-14.54,9.67-.44.46-.84.89-1.19,1.24s-3,3.64-5.43,6.93c-5,6.92-4.55,7.91-4.23,8.57a1.79,1.79,0,0,0,1.48,1c2.15.22,4.31.43,6.46.63,16.12,1.49,32.6,2.36,49,2.58A614,614,0,0,1,427,154.28a162.37,162.37,0,0,0-37.08-32.68,3.15,3.15,0,0,0-1.42-.47l-.34,0c-6.33,0-22.54,16.74-25,23.36-.69,1.88-.44,3.22.74,4,32.88,21.25,55.34,51.26,63.25,84.51a2.53,2.53,0,0,0,2.35,2l.3,0c3,0,8.15-4.15,12-7.64l1.08-1c4.68-4.22,11.75-10.6,12.12-16.51a612.8,612.8,0,0,0-6.71-136.21c2.14-.08,4.32-.16,6.47-.27,6.22-.31,12.92-8.26,16.92-13l1.19-1.41c2.3-2.69,7.48-9.22,6.08-11.84a2.54,2.54,0,0,0-2.12-1.25Z"/>
          <path class="bfa723c6-a366-407f-997d-f529c495586f" d="M532.73,96.23a47.26,47.26,0,0,0-5.36,8,45.37,45.37,0,0,0-1.93,4.19l-10.57,26.5a45.37,45.37,0,0,1,1.93-4.19,45.91,45.91,0,0,1,5.36-8,48,48,0,0,1,5.56-5.67,22.92,22.92,0,0,1,3.82-2.6c1.7-1,3.48-1.82,5.15-2.76.44-.25.86-.5,1.28-.76.24.22.48.42.71.6a16.35,16.35,0,0,0,2.91,1.76,14.11,14.11,0,0,1,5.51,4.43,3.69,3.69,0,0,0,.66.65,6.21,6.21,0,0,0,2.24,1.06c3,15.2,5,30.69,1.73,45.4a58.26,58.26,0,0,1-2.68,8.73l10.57-26.5a57.12,57.12,0,0,0,2.68-8.73c3.27-14.71,1.28-30.2-1.73-45.39a6.39,6.39,0,0,1-2.24-1.07,3.69,3.69,0,0,1-.66-.65A16.09,16.09,0,0,0,555,88.54a15.88,15.88,0,0,0-2.88-1.74A15.77,15.77,0,0,1,549.25,85c-.23-.18-.47-.38-.71-.6-.41.26-.84.52-1.28.76-1.67.94-3.45,1.8-5.15,2.76a22.92,22.92,0,0,0-3.82,2.6A48.83,48.83,0,0,0,532.73,96.23Z"/>
          <path class="b7c8312d-4f0f-4044-9a92-c67d29da80cf" d="M552.69,197.41a73.37,73.37,0,0,0,13.66-5.88,55.59,55.59,0,0,0,6.93-4.61,45.47,45.47,0,0,0,12.24-14.56,48.5,48.5,0,0,0,2.24-4.86L598.33,141a49.39,49.39,0,0,1-2.24,4.85,45.06,45.06,0,0,1-5,7.53,45.91,45.91,0,0,1-7.22,7,55.59,55.59,0,0,1-6.93,4.61,73.37,73.37,0,0,1-13.66,5.88,108.65,108.65,0,0,1-18.1,4.06c-2.89.4-5.78.71-8.62.93a78.94,78.94,0,0,1-8,.21,56.2,56.2,0,0,1-10.47-1.24,42.73,42.73,0,0,1-17.55-8.18c-.83-.65-1.65-1.34-2.45-2.07-15.69-14.26-17.51-33.34-11.08-49.48l-10.57,26.5c-6.44,16.14-4.61,35.22,11.08,49.48.8.73,1.62,1.42,2.45,2.07a42.73,42.73,0,0,0,17.55,8.18A56.09,56.09,0,0,0,518,202.6a73.22,73.22,0,0,0,8-.21c2.85-.21,5.74-.52,8.63-.92A108.65,108.65,0,0,0,552.69,197.41Z"/>
          <path class="faa6d6dd-5023-4a62-a430-0a82acccba53" d="M583.85,160.42c-12.76,10-30.75,14.21-47.31,15.48-12.86,1-25.39-.88-36-9.21-.83-.65-1.65-1.34-2.45-2.07-24.24-22-15.39-55.59,5.93-72,13.13-10.08,30-15.4,46.59-18.44,7.46-1.36,17.83-1.77,24.65,2.64C608,98,609.9,140,583.85,160.42Zm-34.38,2.06c6.69-6.31,10.81-15.09,12.83-24.14,3.27-14.71,1.28-30.2-1.73-45.39a6.39,6.39,0,0,1-2.24-1.07,3.69,3.69,0,0,1-.66-.65A16.09,16.09,0,0,0,555,88.54a15.88,15.88,0,0,0-2.88-1.74A15.77,15.77,0,0,1,549.25,85c-.23-.18-.47-.38-.71-.6-3.3,2.06-7.32,3.58-10.25,6.12A45.89,45.89,0,0,0,524,112.85c-4.25,15.51.44,34,14.4,45,.33.26.66.52,1,.76s5.38,2.87,9.19,4.66c.32-.24.62-.49.93-.77"/>
        </g>
        <g>
          <path class="ab919f27-fe45-4dd7-af08-d1693ae836e1" d="M445.84,58c-.89-.3,2.79-1.14,3.37-2,2.29-3.32,48.43-47.28,41.52-47.61A19.57,19.57,0,0,0,480,10.6a1.43,1.43,0,0,0-.62,1.6h0c.26,1-.61,2-1.52,1.72a20.38,20.38,0,0,0-5.53-1,1.35,1.35,0,0,1-.71-2.33A19.74,19.74,0,0,0,475.24,6a1.14,1.14,0,0,1,2-.16l.28.45a1.09,1.09,0,0,0,1.3.49c3.71-1.24,18.92-6,23.32-2.64,4.74,3.63-44,49.35-49.49,54.51-.32.3-1.9,3.22-2.29,3.09Z"/>
          <path class="a1062120-eed1-4393-bf58-c3ab59acd328" d="M494.43,9.74c-.07-1.8-2-1.64-3.4-1.28,6,1.75-41.25,45.86-41.25,45.86l.76.39.72.48C462.24,46.41,494.54,12.6,494.43,9.74Z"/>
          <path class="bf6cf2c9-043a-4ca2-ba16-0fb494b5c934" d="M472.12,11.2l4.71-3-.21,1a25.23,25.23,0,0,1,5.23-1.45,69,69,0,0,1,14.74-1.68,6.45,6.45,0,0,1,4,1.06,1,1,0,0,1,.39.54,1.15,1.15,0,0,1,0,.55,6.17,6.17,0,0,1-.19.61c1.6-2.42,2.22-4.09,1.46-4.68C497.15.33,478,7.09,478,7.09L476,3.7c-.17,4-7,9.39-7,9.39l.79-.07A12.51,12.51,0,0,1,472.12,11.2Z"/>
          <path class="ff7097bf-1164-4a5a-abef-9a1d2bef95d8" d="M468.81,34.89c-10.86,11.17-21.91,20.87-21.9,21A1.36,1.36,0,0,0,448,57c.27,0,3.27-2.8,4.28-3.29,4.35-4.26,12.45-11.36,18.49-17.59,6.5-6.72,11.63-12.29,15.23-16.57a72.73,72.73,0,0,0,4.88-6.34c1.44-2.21,2.61-4.45,1.63-4.68a19.16,19.16,0,0,0-14.88,3l.77,1.33a20.62,20.62,0,0,0-6.26-1.08,28.36,28.36,0,0,0,4.17-6.55l1.49,2.23s20-5.64,23.59-2.33c-.06.53-.78,2.82-7.26,10.32-4.13,4.78-9.94,10.93-17.27,18.29-7.79,7.83-20.2,20.84-25.07,25.45-.85,1.36.32,1.59.68,1.45.16-.06,13.15-12.41,25.62-24.93,7.33-7.36,13.17-13.54,17.36-18.36,7.25-8.36,8.15-11.06,8.12-12.48a2.09,2.09,0,0,0-.78-1.67,6.9,6.9,0,0,0-3.19-1.22c-2.69-.43-6.52-.07-11.57,1.06a91.22,91.22,0,0,0-9.84,3L475,0l-.15,3.69c-.1,2.45-4.07,6.46-6.55,8.41L465,14.74l4-.44c6.52-.72,10.54,1.61,10.58,1.63l2.32,1.4-1.46-5.61a18.51,18.51,0,0,1,9.94-2.1c-.29.83-1.51,3.14-6.49,9C480.24,22.85,475.17,28.33,468.81,34.89Z"/>
        </g>
        <g>
          <path class="bf6cf2c9-043a-4ca2-ba16-0fb494b5c934" d="M218.42,64.67s89.25-58.64,88.45-49-6.62,14.08-6.62,14.08l-5.85-1.51s3.4,5.44.9,14c0,0,10.08-8,16.66-7.86l-5.19-2.89s14.52-23,9.12-29.59S216.76,58.8,216.76,58.8Z"/>
          <path class="bc0c5163-2a40-4611-bcf4-2e3c09d7de04" d="M305.37,11c2.93.25,2.33,2.6,1.48,4.31-1.79-7.53-87.12,50.38-87.12,50.38h0s-1.52-.66-1.31-1C225.79,54,300.7,10.57,305.37,11Z"/>
          <path class="b50d97fb-c587-4dbb-80fe-d4c81c7ed80b" d="M299,38.42l5.74-5.57L303,33a27.53,27.53,0,0,0,3.31-6.35c2.45-5.95,4.72-12,5.41-18.07.19-1.72.22-3.55-1-5a1.48,1.48,0,0,0-.81-.53,2.58,2.58,0,0,0-.92,0c-.35.05-.69.12-1,.19,4.26-1.76,7.12-2.38,7.94-1.39,5.4,6.56-9.12,29.59-9.12,29.59L312,34.35c-6.58-.16-16.66,7.86-16.66,7.86.09-.33.18-.66.26-1A19.79,19.79,0,0,0,299,38.42Z"/>
          <path class="ff7097bf-1164-4a5a-abef-9a1d2bef95d8" d="M259.53,40.4c-20.28,12.43-39.75,25.77-40.21,25.66-1.56-.36,3.56-4.36,5.05-5.79a37.72,37.72,0,0,1,4.63-3.6c5.82-3.86,17.61-11.91,28.92-18.82,12.18-7.45,22.24-13.29,29.9-17.37,4.6-2.44,8.39-4.28,11.27-5.46,3.89-1.59,7.77-2.84,8-1.61,1.65,10.65-7.57,18.14-7.57,18.14l-2-1.08a19.55,19.55,0,0,1,.65,7.85c2.61-1.68,8.07-3.56,11.48-4.57l-3.4-2.05s12.86-24.25,8.06-29c-.88,0-4.76.72-18.22,8.06-8.58,4.68-19.71,11.32-33.1,19.73-14.23,8.94-38.28,24.06-46.71,29.66-2.38.94-.85-2.3-.85-2.3.22-.15,21.79-14.75,44.55-29.06C273.3,20.42,284.48,13.75,293.14,9c15-8.23,19.6-9.09,21.92-8.93a3.61,3.61,0,0,1,2.6,1.11,6.91,6.91,0,0,1,1.43,4.05c.21,3.37-1,8.07-3.81,14.22a107,107,0,0,1-6.73,11.89l9.3,4.49-6.07-.14c-4-.09-11.33,4.46-15,7.35L291.88,47,293.32,42c2.35-8-.75-13.17-.78-13.22l-1.88-3,8.94,2.3A20.25,20.25,0,0,0,304.84,16c-1.43.29-5.42,1.59-15.89,7.23C281.32,27.34,271.42,33.12,259.53,40.4Z"/>
        </g>
        <g>
          <path class="bd568e29-72ce-43e7-94d6-9716852151ec" d="M74.73,184.35S7.09,119.18,19.32,120.16s17.45,5.27,17.45,5.27l-2.41,4s7.22-2.14,17.94,0c0,0-9.42-7.43-8.68-12L39.51,121s-28.24-11.21-37.06-7.72,64.64,72,64.64,72Z"/>
          <path class="bc0c5163-2a40-4611-bcf4-2e3c09d7de04" d="M13.2,121c.56-2,3.51-1.52,5.63-.85-9.76.92,57.25,63.32,57.25,63.32h0s-1,1-1.35.87C61.67,178.71,12.32,124.27,13.2,121Z"/>
          <path class="bf6cf2c9-043a-4ca2-ba16-0fb494b5c934" d="M47.75,126.73l-6.63-4.28.08,1.19a47.3,47.3,0,0,0-7.83-2.6,141.41,141.41,0,0,0-22.65-4.6,13.69,13.69,0,0,0-6.48.5,1.37,1.37,0,0,0-.75.54,1,1,0,0,0-.07.65,5,5,0,0,0,.16.73c-1.91-3.07-2.47-5.1-1.13-5.63,8.82-3.49,37.06,7.72,37.06,7.72l4.11-3.51c-.74,4.6,8.68,12,8.68,12-.42-.09-.83-.16-1.23-.23A17.86,17.86,0,0,0,47.75,126.73Z"/>
          <path class="a62845c0-7285-473f-8b2d-26f967f386c4" d="M47.08,154.45c14.21,14.77,29.67,29,29.49,29.34-.59,1.07-5.28-2.7-7-3.81a32.68,32.68,0,0,1-4.22-3.4c-4.46-4.25-13.78-12.88-21.69-21.11-8.52-8.87-15.16-16.19-19.74-21.74a76.47,76.47,0,0,1-6.06-8.14c-1.72-2.8-3-5.57-1.41-5.65A36.4,36.4,0,0,1,39,126.06l-1.54,1.37a45.7,45.7,0,0,1,10.07-.1c-1.93-1.91-3.9-5.82-4.91-8.25l-2.88,2.29s-29.93-10.1-36.35-7c0,.62.53,3.37,8.82,13.14,5.28,6.21,12.85,14.32,22.5,24.07C45,162,62.35,179.54,68.82,185.7c1,1.71-3,.49-3,.49-.17-.15-17.06-15.93-33.48-32.52-9.66-9.76-17.27-17.89-22.63-24.18C.42,118.61-.32,115.35.08,113.73A2.55,2.55,0,0,1,1.71,112a14.46,14.46,0,0,1,5.3-.82c4.31,0,10.22,1.1,17.84,3.31,6.26,1.81,12.31,4.35,14.64,5.24L46,113.37l-.68,4.25c-.45,2.83,4.77,8.14,8.16,10.83l4.6,3.63-6.19-1.24c-10-2-16.88-.06-17,0L31,132l3.67-6.16c-1.89-1.13-6.7-3.47-15-4.21.25,1,1.58,3.87,7.93,11.45C32.16,138.6,38.74,145.8,47.08,154.45Z"/>
        </g>
        <g>
          <path class="a9ad2cd4-44f9-46f8-ba8d-c5d12c87b3ad" d="M435.31,199.31s-63.65,102.93-67.43,92.4.08-17.9.08-17.9l6.73-1.1s-6.08-4.16-7.59-14.34c0,0-6.54,13.1-13.36,16l6.71.65s-3.92,31,4.76,35.42,74.61-105.66,74.61-105.66Z"/>
          <path class="bc0c5163-2a40-4611-bcf4-2e3c09d7de04" d="M371.67,296c-3.13,1.09-3.63-1.67-3.58-3.87,5.44,7.12,65.41-93.21,65.41-93.21h0s1.88,0,1.81.42C432.84,214,376.65,294.24,371.67,296Z"/>
          <path class="bf6cf2c9-043a-4ca2-ba16-0fb494b5c934" d="M365.14,264.06l-3.24,8.51,1.65-1a32.22,32.22,0,0,0-.38,8.22c.33,7.4.88,14.8,3.08,21.55.63,1.91,1.46,3.85,3.45,4.82a1.73,1.73,0,0,0,1.08.19,3,3,0,0,0,1-.43c.33-.21.65-.44,1-.68-3.52,3.82-6.16,5.8-7.48,5.12C356.53,306,360.45,275,360.45,275l-6.71-.65c6.82-2.86,13.36-16,13.36-16,.06.4.12.78.2,1.15A21.58,21.58,0,0,0,365.14,264.06Z"/>
          <path class="a62845c0-7285-473f-8b2d-26f967f386c4" d="M404.68,243.83c14.89-22.44,28.52-45.47,29-45.57,1.78-.33-1.58,6.24-2.42,8.44a44.17,44.17,0,0,1-3,5.92c-4.14,6.76-12.4,20.67-20.71,33.16-9,13.46-16.5,24.26-22.42,32.08-3.55,4.69-6.56,8.37-9,10.94-3.24,3.47-6.62,6.57-7.41,5.36-6.78-10.47-.88-22.62-.88-22.62l2.59.2a23.41,23.41,0,0,1-4.4-8c-1.88,3-6.59,7.47-9.61,10.11l4.46.59s-1.62,31.5,5.55,34.27c.89-.44,4.55-3,14.87-16.89,6.57-8.88,14.83-21,24.56-36,10.35-16,27.82-43,33.8-52.79,2-2.08,2,2,2,2-.16.25-15.33,25.57-31.87,51.14-9.73,15-18,27.22-24.66,36.21C373.68,308,369.38,311,366.92,311.92a4,4,0,0,1-3.2,0,8.12,8.12,0,0,1-3.4-3.62c-1.83-3.46-2.78-9-2.87-16.76a122.16,122.16,0,0,1,1.23-15.63l-11.7-.47,6.3-2.64c4.2-1.76,9.51-9.91,11.87-14.64l3.19-6.4.87,5.88c1.41,9.51,7.06,13.55,7.12,13.58l3.36,2.31-10.28,1.68a23.64,23.64,0,0,0,.4,15.17c1.32-1,4.81-4.17,12.86-14.93C388.55,267.63,396,257,404.68,243.83Z"/>
        </g>
      </g>
    </g>
  </g>
</svg>
