<svg fill="currentColor" viewBox="0 0 18 16" xmlns="http://www.w3.org/2000/svg">
  <path fill-rule="evenodd" d="M0 7.967c0 4.38.03 7.966.066 7.966.052 0 6.62-15.748 6.62-15.881C6.686.022 5.18 0 3.343 0H0zM11.314.044c0 .023.897 2.194 1.991 4.832s1.999 4.825 2.006 4.87c.015.036.103.259.198.481.103.222.676 1.6 1.279 3.053.602 1.46 1.124 2.653 1.152 2.653.03 0 .059-3.587.059-7.966V0h-3.343c-1.837 0-3.343.022-3.343.044M8.5 6.981c-1.63 3.861-2.402 5.706-2.402 5.766 0 .044.64.081 1.55.089l1.55.022.61 1.556.603 1.556 1.41.023c.94.014 1.403-.008 1.403-.06 0-.096-4.114-9.945-4.187-10.027-.03-.037-.272.452-.537 1.075"/>
</svg>
