<svg fill="currentColor" viewBox="0 0 16 16" xmlns="http://www.w3.org/2000/svg">
  <path d="M.667.687h14.666v14.266H.667zM0 15.62h16V.02H0zm11.32-8.08c.34 0 .46 0 .493-.013 0-.047.014-.08.014-.114 0-.36-.174-1.026-.867-1.026-.64 0-.913.56-.98 1.153zm-1.353.913c.013.9.44 1.507 1.453 1.507a2.6 2.6 0 0 0 1.087-.207c.046-.02.08-.013.08.047v.833c0 .067-.02.1-.067.134-.353.173-.793.253-1.34.253-1.76 0-2.42-1.3-2.42-2.747 0-1.573.813-2.86 2.247-2.86 1.453 0 1.96 1.22 1.96 2.214 0 .32-.02.58-.054.706-.013.054-.033.074-.086.087-.134.02-.527.047-1.114.047H9.967zm-3.574-.68c-.186-.74-.64-2.353-.806-3.133h-.014c-.14.78-.506 2.1-.78 3.133zM4.52 8.853l-.527 1.994c-.013.053-.033.073-.1.073h-.98c-.066 0-.08-.02-.066-.1L4.74 4.2c.033-.12.053-.213.067-.547q.002-.067.053-.066h1.4c.047 0 .067.013.08.066l2.12 7.18c.013.054 0 .087-.053.087h-1.1q-.08.002-.1-.067l-.547-2z"/>
</svg>
