<svg fill="currentColor" aria-label="Airbnb" viewBox="0 0 15 16" xmlns="http://www.w3.org/2000/svg">
  <path d="M13.8 12.935a2.38 2.38 0 0 1-1.455 1.87c-.384.16-.8.208-1.216.16a3.15 3.15 0 0 1-1.215-.415c-.575-.32-1.151-.816-1.822-1.551 1.055-1.295 1.694-2.479 1.934-3.534.112-.495.128-.943.08-1.359a2.6 2.6 0 0 0-.432-1.087c-.495-.72-1.327-1.135-2.254-1.135s-1.759.432-2.254 1.135c-.224.32-.368.688-.432 1.087-.064.416-.048.88.08 1.36.24 1.054.895 2.254 1.935 3.549-.656.735-1.248 1.23-1.823 1.55-.416.24-.816.368-1.215.416a2.56 2.56 0 0 1-1.215-.16 2.38 2.38 0 0 1-1.455-1.87c-.048-.4-.016-.8.144-1.247.047-.16.128-.32.207-.512.112-.256.24-.528.368-.8l.016-.031a174 174 0 0 1 3.518-7.18l.048-.095c.127-.24.255-.496.383-.735a3.5 3.5 0 0 1 .448-.704 1.67 1.67 0 0 1 1.279-.592c.496 0 .943.208 1.28.592.175.208.319.448.447.704.128.24.255.495.383.735l.049.096a212 212 0 0 1 3.501 7.195v.015c.128.256.24.544.368.8.08.192.16.352.207.512.128.415.176.815.112 1.23m-6.38-.752c-.863-1.087-1.423-2.11-1.615-2.973-.08-.368-.096-.688-.048-.976.032-.256.128-.48.256-.672.304-.43.815-.703 1.407-.703s1.12.256 1.407.703c.128.192.224.416.256.672a2.6 2.6 0 0 1-.048.976c-.192.847-.752 1.87-1.615 2.973m7.21-.831c-.079-.192-.16-.4-.239-.576-.128-.287-.256-.56-.368-.815l-.016-.016a166 166 0 0 0-3.533-7.227l-.048-.096c-.128-.24-.256-.496-.384-.751-.16-.288-.32-.592-.575-.88A2.58 2.58 0 0 0 7.436 0c-.8 0-1.519.352-2.047.96-.24.287-.415.59-.575.879-.128.256-.256.512-.384.751l-.048.096A188 188 0 0 0 .85 9.913l-.016.032c-.112.256-.24.527-.368.815q-.12.264-.24.576a3.6 3.6 0 0 0-.192 1.727 3.4 3.4 0 0 0 2.079 2.654 3.3 3.3 0 0 0 1.295.256 4.2 4.2 0 0 0 2.014-.576c.656-.368 1.28-.895 1.983-1.663.704.768 1.343 1.295 1.983 1.663a4.2 4.2 0 0 0 2.014.576c.448 0 .895-.08 1.295-.256a3.39 3.39 0 0 0 2.079-2.654c.128-.56.064-1.12-.144-1.711"/>
</svg>
