<svg fill="currentColor" aria-label="Airtable" viewBox="0 0 20 16" xmlns="http://www.w3.org/2000/svg">
  <path d="M8.503.201a2.65 2.65 0 0 1 2.023 0l7.1 2.938a.476.476 0 0 1-.007.881l-7.13 2.827a2.65 2.65 0 0 1-1.95 0L1.41 4.02a.476.476 0 0 1-.006-.881zm1.644 8.19c0-.195.119-.37.3-.442l7.944-3.083a.476.476 0 0 1 .651.442v7.062c0 .195-.119.37-.3.442l-7.944 3.084a.476.476 0 0 1-.651-.442zm-1.855.365L5.934 9.894l-.24.116-4.976 2.384c-.315.152-.718-.077-.718-.428V5.337c0-.126.065-.236.152-.318a.5.5 0 0 1 .12-.09.5.5 0 0 1 .433-.034l7.547 2.99c.384.152.414.69.04.87"/>
  <path fill-opacity=".25" d="M8.292 8.756 5.934 9.894.152 5.019a.5.5 0 0 1 .12-.09.5.5 0 0 1 .433-.034l7.547 2.99c.384.152.414.69.04.87"/>
</svg>
