<svg fill="currentColor" viewBox="0 0 19 16" xmlns="http://www.w3.org/2000/svg">
  <g fill-rule="evenodd">
    <path fill-rule="nonzero" d="M13.99 5.83c0 .66.022 1.314-.009 1.972a2.8 2.8 0 0 0 .658 1.96q.082.1.151.205c.166.257.135.434-.093.631-.487.418-.97.84-1.458 1.258-.29.249-.472.245-.766 0-.395-.327-.705-.73-.98-1.16-.065-.102-.1-.098-.181-.019-.488.485-1.002.935-1.656 1.16-1.01.35-2.035.406-3.049.039-.975-.355-1.559-1.088-1.776-2.11-.24-1.14-.116-2.224.573-3.19.522-.73 1.246-1.16 2.078-1.423.858-.269 1.744-.371 2.634-.462q.377-.04.75-.075c.063-.004.117-.012.113-.094-.008-.418.035-.844-.062-1.254-.124-.525-.46-.832-.975-.947a1.96 1.96 0 0 0-1.087.063q-.812.286-1.014 1.14c-.073.311-.216.422-.514.39l-1.9-.2c-.26-.028-.395-.23-.34-.486C5.415 1.592 6.467.673 7.985.251c1.164-.323 2.344-.343 3.513-.008.94.268 1.729.741 2.17 1.68.252.532.31 1.108.317 1.684.008.737 0 1.482.004 2.224-.004 0 0 0 0 0m-3.01 1.231c0-.197-.009-.394.003-.591.008-.123-.035-.166-.155-.154-.294.027-.592.031-.886.07-.514.068-1.017.198-1.435.53-.608.484-.735 1.147-.635 1.892.12.875.886 1.36 1.707 1.069.557-.198.897-.616 1.133-1.14.248-.532.267-1.104.267-1.676"/>
    <path d="M13.99 5.83c0 .66.022 1.314-.009 1.972a2.8 2.8 0 0 0 .658 1.96q.082.1.151.205c.166.257.135.434-.093.631-.487.418-.97.84-1.458 1.258-.29.249-.472.245-.766 0-.395-.327-.705-.73-.98-1.16-.065-.102-.1-.098-.181-.019-.488.485-1.002.935-1.656 1.16-1.01.35-2.035.406-3.049.039-.975-.355-1.559-1.088-1.776-2.11-.24-1.14-.116-2.224.573-3.19.522-.73 1.246-1.16 2.078-1.423.858-.269 1.744-.371 2.634-.462q.377-.04.75-.075c.063-.004.117-.012.113-.094-.008-.418.035-.844-.062-1.254-.124-.525-.46-.832-.975-.947a1.96 1.96 0 0 0-1.087.063q-.812.286-1.014 1.14c-.073.311-.216.422-.514.39l-1.9-.2c-.26-.028-.395-.23-.34-.486C5.415 1.592 6.467.673 7.985.251c1.164-.323 2.344-.343 3.513-.008.94.268 1.729.741 2.17 1.68.252.532.31 1.108.317 1.684.008.737 0 1.482.004 2.224-.004 0 0 0 0 0"/>
    <path d="M10.98 7.061c0-.197-.009-.394.003-.591.008-.123-.035-.166-.155-.154-.294.027-.592.031-.886.07-.514.068-1.017.198-1.435.53-.608.484-.735 1.147-.635 1.892.12.875.886 1.36 1.707 1.069.557-.198.897-.616 1.133-1.14.248-.532.267-1.104.267-1.676m-1.431 8.9c-2.952-.02-5.603-.792-7.998-2.421a13 13 0 0 1-1.392-1.092.7.7 0 0 1-.109-.115c-.042-.059-.073-.13-.023-.2.05-.08.135-.088.209-.052.17.083.333.173.499.26 1.524.82 3.13 1.412 4.813 1.786 1.524.34 3.064.497 4.627.454a18.3 18.3 0 0 0 6.454-1.368c.1-.044.205-.087.31-.11.146-.028.293-.009.36.153.061.15-.02.268-.129.363-.077.067-.166.122-.255.181-1.335.883-2.797 1.451-4.345 1.802a14 14 0 0 1-3.021.36"/>
    <path d="M16.995 12.448c-.445-.004-.886.055-1.327.102-.085.008-.182.032-.22-.063-.047-.106.042-.17.116-.22.55-.371 1.164-.517 1.81-.553.445-.027.887-.008 1.32.126.197.06.294.178.29.383-.023 1.096-.383 2.05-1.16 2.827a1 1 0 0 1-.09.075c-.07.051-.154.099-.228.036-.07-.06-.03-.146 0-.217.228-.58.46-1.156.573-1.775.015-.079.019-.157.023-.232.004-.257-.085-.367-.333-.43-.26-.071-.518-.06-.774-.06"/>
  </g>
</svg>
