<svg fill="currentColor" viewBox="0 0 17 16" xmlns="http://www.w3.org/2000/svg">
  <path d="M16.445 10.364c0 .4-.26.587-.726.587h-.89v-.4h.89c.082 0 .15-.013.178-.04a.17.17 0 0 0 .055-.12.2.2 0 0 0-.055-.134q-.042-.04-.164-.04c-.425-.013-.959.013-.959-.574 0-.267.178-.561.657-.561h.918v.4h-.85c-.081 0-.136 0-.177.027-.041.04-.069.08-.069.147s.041.107.096.134c.055.013.11.026.178.026h.247c.26 0 .424.054.534.147a.57.57 0 0 1 .137.401m-1.931-.4c-.11-.094-.274-.148-.534-.148h-.247a.7.7 0 0 1-.177-.026c-.055-.027-.096-.067-.096-.134s.013-.107.068-.147c.041-.027.096-.027.178-.027h.849v-.4h-.917c-.493 0-.658.294-.658.56 0 .588.534.562.959.575q.123 0 .164.04c.027.027.055.08.055.134a.17.17 0 0 1-.055.12.3.3 0 0 1-.178.04h-.89v.4h.89c.466 0 .726-.186.726-.587a.57.57 0 0 0-.137-.4m-1.753.6H11.68v-.374h1.054v-.373H11.68v-.348h1.081v-.387h-1.533v1.87h1.533zm-2.026-1.389c-.15-.08-.329-.093-.562-.093H9.12v1.87h.466v-.682h.493c.164 0 .26.014.328.08.082.094.082.254.082.375v.226h.452v-.36c0-.174-.013-.254-.068-.347a.53.53 0 0 0-.233-.16c.123-.04.329-.2.329-.495 0-.213-.082-.334-.233-.414m-2.602-.093H6.668l-.589.614-.561-.614H3.67v1.87h1.82l.59-.615.56.614h.891v-.627h.575c.397 0 .794-.107.794-.628 0-.507-.41-.614-.767-.614m2.232.775c-.068.026-.137.026-.219.026l-.561.014v-.428h.561c.082 0 .164 0 .22.04a.17.17 0 0 1 .095.16c0 .08-.041.147-.096.188m-2.232.093h-.602v-.48h.602c.165 0 .274.066.274.226s-.11.254-.274.254m-1.766.067.712-.735v1.51zm-1.11.547H4.122v-.374h1.014v-.373H4.12v-.348h1.15l.507.548zm9.914-2.831h-.657L13.65 6.33v1.402h-.93l-.179-.414h-.958l-.178.414h-.534c-.22 0-.507-.054-.671-.214-.15-.16-.233-.374-.233-.708 0-.28.041-.534.246-.734.137-.147.384-.214.699-.214h.438v.4h-.438c-.164 0-.26.028-.356.108-.082.08-.123.227-.123.427q0 .3.123.44c.068.068.192.094.315.094h.205l.657-1.469h.685l.767 1.763V5.863h.712l.808 1.296V5.863h.465zm-5.436-1.87H9.27v1.87h.465zm-.972.08c-.15-.08-.315-.08-.547-.08H7.16v1.87h.452v-.681h.493c.164 0 .274.013.342.08.082.093.069.254.069.36v.24h.465V7.36c0-.16-.014-.24-.082-.334a.6.6 0 0 0-.22-.16.53.53 0 0 0 .33-.494c0-.214-.096-.334-.247-.428m-1.93 1.403H5.763v-.374H6.82v-.388H5.764V6.25h1.068v-.387H5.3v1.87h1.533zM4.956 5.863h-.753l-.562 1.269-.602-1.269H2.3v1.763l-.78-1.763H.835l-.821 1.87h.493l.178-.414h.958l.178.414h.931v-1.47l.671 1.47h.397l.671-1.47v1.47h.466zm7.421 1.055-.315-.734-.315.734zm-3.97-.294c-.07.04-.138.04-.234.04h-.561v-.413h.561c.083 0 .178 0 .233.026.055.04.082.094.082.174s-.027.147-.082.173m-7.56.294.316-.734.315.734zM16.336 0H0v6.731L.561 5.49h1.192l.164.307V5.49h1.397l.315.668.3-.668h4.45c.206 0 .384.04.521.147V5.49h1.219v.147c.205-.107.465-.147.766-.147h1.767l.164.307V5.49h1.3l.193.307V5.49h1.273v2.618h-1.287l-.246-.4v.4h-1.603l-.178-.427h-.397l-.178.427h-.835a1.7 1.7 0 0 1-.74-.16v.16H8.134v-.601c0-.08-.013-.094-.068-.094h-.069v.695H4.163v-.334l-.137.334h-.808l-.137-.32v.32H1.534l-.165-.428H.972l-.178.428H0V16h16.335v-4.795c-.178.08-.424.12-.67.12h-1.192v-.16c-.137.107-.384.16-.616.16h-3.752v-.6c0-.08-.014-.08-.082-.08h-.069v.68H8.722v-.707c-.205.093-.438.093-.643.093h-.137v.614H6.435l-.355-.4-.397.4H3.259V8.708h2.464l.356.4.384-.4H8.12c.191 0 .506.027.643.16v-.16h1.479c.15 0 .438.027.63.16v-.16h2.232v.16c.123-.107.356-.16.561-.16h1.246v.16c.137-.093.329-.16.575-.16h.85z"/>
</svg>
