<svg fill="currentColor" preserveAspectRatio="xMidYMid" viewBox="0 0 12 16" xmlns="http://www.w3.org/2000/svg">
  <path d="M9.318 6.823c.662.102 1.12.407 1.375.815.255.407.407 1.12.407 2.037 0 1.833-.56 3.36-1.68 4.531s-2.546 1.782-4.277 1.782a5.5 5.5 0 0 1-1.986-.356c-.662-.255-1.171-.611-1.63-1.018a5.3 5.3 0 0 1-1.17-1.528c-.204-.56-.357-1.12-.357-1.68 0-.611.153-1.12.407-1.477.255-.356.713-.56 1.273-.713-.102-.254-.203-.458-.254-.662-.051-.152-.102-.305-.102-.407 0-.306.153-.662.51-1.018.356-.357.661-.51.967-.51.152 0 .254 0 .407.051s.305.102.51.255c-.46-1.528-.917-2.8-1.172-3.666S2.19 1.833 2.19 1.477c0-.459.101-.815.356-1.07C2.75.153 3.106 0 3.513 0c.662 0 1.528 1.528 2.597 4.634.204.509.306.916.408 1.222.101-.204.203-.56.356-.968C7.944 1.833 8.86.306 9.573.306c.356 0 .662.101.916.356.204.255.357.611.357 1.018 0 .306-.102.917-.357 1.782-.305.866-.662 1.986-1.17 3.361m-7.841 4.48c.101.103.254.306.407.561.458.662.917 1.018 1.324 1.018.153 0 .254-.05.356-.152s.153-.204.153-.255c0-.102-.05-.305-.204-.56a7 7 0 0 0-.61-.866c-.306-.356-.56-.662-.713-.814-.204-.153-.357-.255-.459-.255-.254 0-.509.153-.713.407-.203.255-.305.611-.305.968 0 .305.05.61.204 1.018.152.357.356.764.661 1.12.459.51.968.968 1.63 1.273a4.9 4.9 0 0 0 2.138.459c1.426 0 2.597-.51 3.565-1.579.967-1.07 1.425-2.393 1.425-4.022 0-.51-.05-.866-.101-1.172s-.204-.509-.357-.61c-.305-.255-.865-.459-1.731-.662a12 12 0 0 0-2.699-.306c-.254 0-.458.05-.56.153q-.153.153-.153.458c0 .51.255.866.815 1.07.56.203 1.477.356 2.699.356h.458c.102 0 .204.05.255.102.05.101.102.203.102.356-.102.102-.357.255-.764.407a3.3 3.3 0 0 0-.866.459 3.36 3.36 0 0 0-1.07 1.17c-.254.46-.407.866-.407 1.274 0 .254.051.509.153.865q.153.535.153.611v.204c-.306 0-.56-.204-.764-.56s-.254-.815-.254-1.426v-.102c-.051.051-.102.102-.153.102s-.102.051-.204.051h-.203c-.051 0-.102-.05-.204-.05 0 .101.05.152.05.254v.204c0 .254-.101.509-.305.712a1.04 1.04 0 0 1-.764.306c-.458 0-.916-.204-1.425-.662-.459-.458-.713-.866-.713-1.324 0-.102 0-.153.05-.204 0-.254.052-.305.103-.356m3.31.256a.55.55 0 0 0 .356-.153.55.55 0 0 0 .153-.357c0-.152-.102-.458-.306-.967a8 8 0 0 0-.764-1.477c-.203-.356-.458-.662-.662-.814a.8.8 0 0 0-.61-.255c-.153 0-.306.102-.51.305s-.254.357-.254.56c0 .153.101.459.254.815.204.357.407.713.713 1.12.305.408.611.764.916 1.019.306.102.51.204.713.204m1.069-5.296L4.634 2.851c-.306-.865-.51-1.476-.713-1.73-.153-.255-.306-.408-.51-.408a.46.46 0 0 0-.356.153.65.65 0 0 0-.204.509c0 .356.153.916.408 1.731.254.815.662 1.935 1.17 3.259.052-.102.103-.153.205-.153.101-.05.203-.05.305-.05h.255c.152.05.356.05.662.101m1.222 3.31a5.6 5.6 0 0 1-.917-.102 3.8 3.8 0 0 1-.815-.204c.102.255.204.458.306.713s.153.458.204.713c.152-.204.356-.407.56-.611.254-.204.458-.357.662-.51m1.476-2.954c.51-1.323.866-2.444 1.171-3.31.255-.865.408-1.374.408-1.578a.86.86 0 0 0-.153-.509.46.46 0 0 0-.356-.153c-.204 0-.408.153-.611.51A9 9 0 0 0 8.3 3.207L7.18 6.365z"/>
</svg>
