<svg fill="currentColor" viewBox="0 0 39 16" xmlns="http://www.w3.org/2000/svg">
  <path d="M7.09 2.055c-.455.539-1.183.963-1.91.903-.091-.728.265-1.502.682-1.98C6.316.425 7.112.03 7.756 0c.076.758-.22 1.502-.667 2.055m.659 1.047c-1.054-.06-1.956.599-2.456.599-.508 0-1.273-.569-2.107-.554-1.083.015-2.091.63-2.645 1.608-1.137 1.957-.295 4.854.804 6.446.538.789 1.182 1.654 2.03 1.623.804-.03 1.122-.523 2.093-.523.977 0 1.258.523 2.107.508.879-.015 1.432-.789 1.97-1.577.614-.895.864-1.767.88-1.813-.016-.015-1.698-.66-1.714-2.601-.015-1.623 1.327-2.397 1.387-2.442-.758-1.123-1.94-1.244-2.35-1.274m6.086-2.2v11.824h1.834V8.683h2.539c2.319 0 3.949-1.592 3.949-3.898S20.557.902 18.269.902zm1.834 1.548h2.114c1.592 0 2.502.849 2.502 2.343s-.91 2.35-2.51 2.35H15.67zm9.837 10.367c1.152 0 2.221-.584 2.706-1.51h.038v1.419h1.698V6.84c0-1.707-1.364-2.806-3.464-2.806-1.948 0-3.388 1.114-3.44 2.646h1.651c.137-.728.811-1.205 1.736-1.205 1.122 0 1.75.523 1.75 1.486v.652l-2.288.137c-2.13.129-3.282 1-3.282 2.517 0 1.532 1.19 2.549 2.895 2.549M26 11.414c-.978 0-1.6-.47-1.6-1.191 0-.743.6-1.176 1.744-1.244l2.039-.129v.668c0 1.107-.94 1.896-2.183 1.896m6.215 4.527c1.788 0 2.63-.682 3.365-2.753l3.221-9.04h-1.864l-2.16 6.985h-.038l-2.16-6.985H30.66l3.108 8.608-.167.523c-.28.888-.735 1.229-1.546 1.229a6 6 0 0 1-.538-.03v1.418c.106.03.56.045.697.045"/>
</svg>
