<svg fill="currentColor" viewBox="0 0 13 16" xmlns="http://www.w3.org/2000/svg">
  <path d="M7.162 1.392C8.208.007 9.662 0 9.662 0s.217 1.302-.822 2.556c-1.11 1.34-2.371 1.12-2.371 1.12s-.237-1.053.693-2.284m-.56 3.197c.538 0 1.537-.743 2.837-.743 2.238 0 3.118 1.6 3.118 1.6s-1.722.884-1.722 3.03c0 2.42 2.146 3.254 2.146 3.254s-1.5 4.24-3.525 4.24c-.93 0-1.654-.63-2.634-.63-.999 0-1.99.653-2.636.653C2.336 15.993 0 11.972 0 8.739 0 5.559 1.978 3.89 3.833 3.89c1.206 0 2.142.699 2.769.699"/>
</svg>
