<svg fill="currentColor" viewBox="0 0 26 16" xmlns="http://www.w3.org/2000/svg">
  <path d="m12.987 13.736 12.885-8.034v2.179l-12.885 8.068L.085 7.88V5.702zm0-10.076c2.894 0 5.464 1.514 6.962 3.71l-1.89 1.209C15.218 4.783 9.992 4.102 6.367 7.115c-.12.085-.187.153-.306.272 1.463-2.264 4.017-3.727 6.927-3.727m0 3.727a4.72 4.72 0 0 0-3.813 1.958 3.86 3.86 0 0 1 2.298-.75c1.396 0 2.639.716 3.473 1.924l1.804-1.123c-.783-1.243-2.179-2.009-3.762-2.009M4.272 4.12C9.583-.068 17.09 1.072 21.09 6.64l.034.033 1.958-1.208A12.05 12.05 0 0 0 12.987 0C8.8 0 5.072 2.145 2.894 5.464c.391-.443.885-.97 1.378-1.345"/>
</svg>
