<svg fill="currentColor" aria-label="Behance" viewBox="0 0 26 16" xmlns="http://www.w3.org/2000/svg">
  <path d="M7.517 0q1.14 0 2.08.201.94.203 1.61.66a3.07 3.07 0 0 1 1.041 1.22q.37.76.37 1.879 0 1.207-.549 2.013t-1.622 1.32q1.476.425 2.204 1.488.726 1.062.727 2.561 0 1.208-.47 2.092a4.1 4.1 0 0 1-1.264 1.443 5.6 5.6 0 0 1-1.812.828 8.2 8.2 0 0 1-2.091.268H0V0zm-.448 6.465q.94 0 1.544-.447t.604-1.454q0-.56-.202-.917a1.5 1.5 0 0 0-.536-.56 2.3 2.3 0 0 0-.772-.28A5 5 0 0 0 6.8 2.73H3.512v3.737zm.201 6.779q.515 0 .985-.101t.828-.336a1.7 1.7 0 0 0 .57-.637q.213-.403.212-1.03 0-1.23-.693-1.755-.694-.526-1.834-.526H3.512v4.384zm10.528-.336q.715.694 2.058.694.962 0 1.655-.481.694-.48.85-1.018h2.797q-.671 2.08-2.058 2.975-1.388.895-3.356.895-1.365 0-2.46-.436a5.1 5.1 0 0 1-1.857-1.242 5.6 5.6 0 0 1-1.175-1.924q-.414-1.118-.414-2.46 0-1.297.425-2.416a5.7 5.7 0 0 1 1.208-1.936 5.7 5.7 0 0 1 1.868-1.286q1.085-.47 2.405-.47 1.477 0 2.573.57 1.095.572 1.8 1.533a6.3 6.3 0 0 1 1.019 2.192q.313 1.23.224 2.573h-8.345q.067 1.544.783 2.237m3.59-6.085q-.57-.626-1.733-.626-.761 0-1.264.257a2.34 2.34 0 0 0-1.23 1.443q-.124.425-.146.76h5.168q-.224-1.207-.795-1.834M16.473.811h6.456v1.79h-6.456z"/>
</svg>
