<svg fill="currentColor" viewBox="0 0 16 16" xmlns="http://www.w3.org/2000/svg">
  <path fill-rule="evenodd" d="M15.76 10.029c-1.069 4.22-5.41 6.787-9.696 5.735C1.78 14.712-.828 10.438.241 6.218S5.649-.57 9.933.482c4.286 1.052 6.894 5.326 5.826 9.547M11.528 7c.159-1.048-.652-1.612-1.76-1.988l.36-1.42-.879-.215-.35 1.383a37 37 0 0 0-.703-.163l.353-1.392-.877-.215-.36 1.42a30 30 0 0 1-.56-.13v-.005l-1.21-.298-.234.923s.652.147.638.156c.355.088.42.32.409.503l-.41 1.618a1 1 0 0 1 .091.028l-.092-.022L5.37 9.45c-.044.106-.154.265-.402.205.008.012-.638-.157-.638-.157l-.436.99 1.142.28.626.159-.364 1.436.877.216.36-1.421q.359.095.7.179l-.359 1.414.878.215.363-1.433c1.497.279 2.622.166 3.096-1.166.382-1.074-.019-1.693-.806-2.097.573-.13 1.005-.502 1.12-1.27M9.522 9.77c-.272 1.073-2.107.493-2.702.347l.482-1.902c.595.146 2.503.436 2.22 1.555m.271-2.785c-.247.977-1.775.48-2.27.359l.436-1.726c.496.122 2.092.349 1.834 1.367"/>
</svg>
