<svg fill="currentColor" aria-label="Buffer" viewBox="0 0 16 16" xmlns="http://www.w3.org/2000/svg">
  <path d="M8.332.092c2.323 1.078 4.684 2.19 7.004 3.275.124.058.286.097.287.273 0 .175-.162.214-.286.272q-3.494 1.635-6.99 3.264c-.355.165-.72.163-1.075-.003Q3.77 5.54.27 3.903c-.12-.056-.271-.099-.267-.27.005-.16.15-.201.265-.255C2.61 2.283 4.977 1.17 7.325.082c.248-.115.749-.107 1.007.01M7.81 15.973c-.169 0-.295-.064-.537-.154a2749 2749 0 0 1-6.99-3.258C.16 12.503 0 12.462 0 12.286s.162-.214.286-.273q.58-.274 1.162-.543a1.31 1.31 0 0 1 1.162.005l4.634 2.166q.574.267 1.147-.004 2.323-1.088 4.647-2.173.551-.257 1.105-.009.62.284 1.234.575a.8.8 0 0 1 .174.104c.11.092.111.217 0 .307-.069.055-.15.095-.23.132q-3.464 1.622-6.933 3.232c-.18.083-.41.168-.579.168m-.008-4.325c-.077 0-.377-.082-.548-.161Q3.77 9.867.293 8.239c-.125-.059-.288-.096-.291-.27-.004-.184.166-.22.295-.282q.585-.28 1.175-.55a1.27 1.27 0 0 1 1.119.006Q4.93 8.237 7.27 9.326a1.24 1.24 0 0 0 1.09-.001q2.347-1.094 4.693-2.19a1.25 1.25 0 0 1 1.09-.002q.617.284 1.233.575a1 1 0 0 1 .162.092c.125.1.124.23-.002.329a1 1 0 0 1-.163.093q-3.514 1.645-7.032 3.28a2 2 0 0 1-.54.146"/>
</svg>
