<svg fill="currentColor" aria-label="Google Chrome" viewBox="0 0 16 16" xmlns="http://www.w3.org/2000/svg">
  <path d="M5.01 8A2.993 2.993 0 0 1 8 5.01 2.993 2.993 0 0 1 10.99 8 2.993 2.993 0 0 1 8 10.99 2.993 2.993 0 0 1 5.01 8m9.874-3.946a.13.13 0 0 1-.114.066H8.34a3.895 3.895 0 0 0-4.111 2.907.131.131 0 0 1-.241.033l-2.252-3.9a.13.13 0 0 1 .011-.148A7.97 7.97 0 0 1 8 .001a8 8 0 0 1 6.883 3.921.13.13 0 0 1 .001.132M9.182 11.8a.13.13 0 0 1 .01.146L6.94 15.848a.13.13 0 0 1-.133.064A8 8 0 0 1 0 8a8 8 0 0 1 1.027-3.922.131.131 0 0 1 .228-.001l3.212 5.564.005.01A3.92 3.92 0 0 0 8 11.896a4 4 0 0 0 1.043-.142.13.13 0 0 1 .14.046m6.145-6.805a.13.13 0 0 1 .122.084c.366.93.551 1.913.551 2.922a7.95 7.95 0 0 1-2.313 5.626A7.95 7.95 0 0 1 8.09 16h-.002a.131.131 0 0 1-.113-.196l3.218-5.574.006-.01a3.87 3.87 0 0 0 .696-2.218 3.86 3.86 0 0 0-1.17-2.78.131.131 0 0 1 .091-.226z"/>
</svg>
