<svg fill="currentColor" aria-label="Cloudflare" viewBox="0 0 35 16" xmlns="http://www.w3.org/2000/svg">
  <path d="m24.114 14.954-.218.799c0 .145-.145.218-.29.218H.29c-.073 0-.218-.073-.218-.218-.073-.29-.073-.509-.073-.8a5.303 5.303 0 0 1 5.157-5.302c-.073-.435-.145-.871-.073-1.307.218-1.743 1.598-3.196 3.341-3.34a3.96 3.96 0 0 1 2.615.725C12.13 2.461 15.253.137 18.884.137c3.922 0 7.263 2.76 8.062 6.464.073.073 0 .145 0 .218l-.726 1.888c-.58 1.453-2.179 2.688-3.704 2.76l-12.71.145c-.146 0-.219.073-.291.218q-.11.11 0 .218c.072 0 .145.073.218.073l12.638.145c.653.073 1.162.363 1.525.8.363.435.436 1.161.218 1.888m3.995-8.135c3.776 0 6.9 3.123 6.9 6.9 0 .654-.146 1.307-.291 1.888q0 .218-.218.218h-9.587c-.146 0-.218-.145-.146-.218l.146-.653c.58-1.453 2.179-2.688 3.704-2.76l2.76-.146c.145 0 .218-.072.29-.218q.11-.108 0-.217c-.072 0-.145-.073-.217-.073l-2.688-.145c-.653-.073-1.162-.364-1.525-.8-.363-.435-.436-1.161-.218-1.888l.508-1.743c.073-.073.146-.145.218-.145z"/>
</svg>
