<svg fill="currentColor" viewBox="0 0 16 16" xmlns="http://www.w3.org/2000/svg">
  <path d="M16 7.643v.714l-.015.116c-.027.31-.045.623-.082.931a9.4 9.4 0 0 1-.784 2.795q-.9 1.963-2.43 2.986a4.6 4.6 0 0 1-1.875.75l-.435.065H4.76c-.029-.007-.057-.019-.086-.02a3.8 3.8 0 0 1-1.631-.533c-1.132-.671-1.976-1.76-2.528-3.257a8.2 8.2 0 0 1-.467-2.107L0 9.548v-.693c.005-.038.014-.076.015-.115a8.4 8.4 0 0 1 .308-1.934q.717-2.51 2.492-3.714a3.9 3.9 0 0 1 1.951-.684c.335-.024.67.002 1.003.062.03.006.073-.012.094-.042q.718-.996 1.639-1.61A4.7 4.7 0 0 1 9.386.067Q9.618.032 9.852 0h.48l.094.02c.237.037.476.06.711.114.734.166 1.417.524 2.05 1.054q1.453 1.222 2.212 3.3a10 10 0 0 1 .553 2.544zM7.054 3.022c.01.017.012.025.016.028q.495.331.94.77c.019.019.065.011.088-.008.815-.7 1.698-.942 2.647-.713.93.223 1.686.853 2.265 1.86.654 1.138.904 2.425.723 3.858-.121.96-.405 1.821-.887 2.543-.88 1.315-1.981 1.859-3.278 1.629-.798-.142-1.487-.61-2.058-1.39C6.778 10.595 6.042 9.6 5.307 8.6c-.097-.133-.206-.24-.347-.264-.246-.04-.47.126-.576.426a.87.87 0 0 0 .123.843c.819 1.09 1.63 2.19 2.447 3.28q.21.281.45.517a3.7 3.7 0 0 0 1.999 1.044c.572.103 1.14.081 1.704-.09 1.074-.328 1.965-1.072 2.666-2.22.579-.948.93-2.038 1.051-3.261a8.6 8.6 0 0 0-.044-2.098c-.162-1.13-.515-2.142-1.08-3.003-1.078-1.64-2.434-2.374-4.049-2.21-.62.063-1.208.31-1.76.702q-.45.317-.837.756M6.659 14.48l-.066-.084c-.335-.428-.672-.854-1.002-1.288-.064-.083-.123-.124-.214-.122-.335.012-.67.014-1-.088-1.64-.503-2.593-2.921-1.989-5.05.477-1.678 1.798-2.7 3.1-2.385.584.141 1.096.476 1.516 1.064.513.718 1.041 1.415 1.56 2.126.117.162.253.235.416.204.212-.041.38-.178.456-.458.075-.277.039-.539-.116-.75-.544-.748-1.075-1.514-1.64-2.23-1.098-1.387-2.393-1.8-3.825-1.21C1.93 5.002.803 7.7 1.243 10.36c.4 2.424 1.964 4.125 3.794 4.127h1.532c.026 0 .05-.003.09-.006"/>
</svg>
