<svg fill="currentColor" viewBox="0 0 62 16" xmlns="http://www.w3.org/2000/svg">
  <g fill-rule="evenodd">
    <path d="M11.716 16C16.047 16.02 20 12.434 20 8.07 20 3.296 16.047-.002 11.716 0H7.99C3.607-.001 0 3.298 0 8.07c0 4.364 3.607 7.95 7.99 7.93z"/>
    <path fill-rule="nonzero" d="M9.663 12.34V3.661A4.65 4.65 0 0 1 12.649 8a4.65 4.65 0 0 1-2.986 4.338M3.35 8.001a4.66 4.66 0 0 1 2.984-4.338v8.675A4.65 4.65 0 0 1 3.351 8M8 .667a7.334 7.334 0 1 0 .002 14.666A7.334 7.334 0 0 0 8 .667M22.783 3.55c0-.787-.395-.735-.773-.744V2.58c.327.016.664.016.992.016.353 0 .833-.016 1.456-.016 2.178 0 3.364 1.514 3.364 3.065 0 .868-.488 3.048-3.466 3.048-.428 0-.824-.017-1.22-.017-.378 0-.748.008-1.126.017v-.227c.504-.053.748-.07.773-.666zm.824 4.109c0 .674.463.753.875.753 1.817 0 2.414-1.428 2.414-2.733 0-1.637-1.01-2.82-2.633-2.82-.345 0-.504.026-.656.035zm4.51.806h.16c.234 0 .403 0 .403-.29V5.802c0-.385-.126-.439-.438-.613v-.14c.396-.124.867-.29.9-.315a.3.3 0 0 1 .152-.045c.041 0 .059.053.059.124v3.362c0 .29.185.29.42.29h.143v.228c-.286 0-.58-.018-.883-.018s-.606.009-.916.018zm.9-5.124c-.22 0-.413-.21-.413-.438 0-.22.203-.421.413-.421a.42.42 0 0 1 .412.42c0 .238-.186.439-.412.439m1.698 2.513c0-.324-.093-.411-.487-.577V5.11c.361-.122.706-.237 1.11-.42.025 0 .05.017.05.087v.57c.48-.36.892-.658 1.457-.658.714 0 .966.543.966 1.227v2.259c0 .29.185.29.42.29h.152v.228c-.295 0-.59-.018-.891-.018-.303 0-.606.009-.91.018v-.228h.152c.236 0 .404 0 .404-.29V5.907c0-.5-.293-.744-.774-.744-.269 0-.698.227-.976.42v2.592c0 .29.186.29.421.29h.152v.228c-.295 0-.59-.018-.892-.018s-.606.009-.909.018v-.228h.152c.236 0 .403 0 .403-.29zm4.308.421c-.018.08-.018.21 0 .508.05.832.564 1.515 1.236 1.515.463 0 .825-.263 1.136-.587l.117.123c-.387.535-.866.99-1.555.99-1.338 0-1.607-1.35-1.607-1.91 0-1.717 1.11-2.225 1.698-2.225.682 0 1.414.447 1.422 1.375q.002.08-.008.159l-.076.052zm1.489-.28c.21 0 .234-.114.234-.22 0-.446-.26-.805-.731-.805-.513 0-.866.393-.967 1.025zm1.152 2.47h.227c.235 0 .403 0 .403-.29v-2.46c0-.272-.31-.325-.437-.395v-.13c.614-.273.95-.5 1.027-.5.05 0 .075.026.075.114v.788h.018c.21-.342.563-.903 1.076-.903.21 0 .48.149.48.465 0 .236-.16.447-.396.447-.261 0-.261-.21-.555-.21-.144 0-.614.2-.614.727v2.057c0 .29.167.29.403.29h.471v.228c-.463-.01-.815-.018-1.177-.018-.345 0-.698.009-1.001.018zm3.238-.99c.11.578.446 1.068 1.06 1.068.496 0 .68-.315.68-.621 0-1.034-1.832-.701-1.832-2.111 0-.491.379-1.122 1.304-1.122.268 0 .63.08.958.255l.06.892h-.194c-.084-.55-.379-.866-.917-.866-.337 0-.656.201-.656.578 0 1.025 1.951.71 1.951 2.084 0 .578-.446 1.192-1.447 1.192a2.15 2.15 0 0 1-1.026-.298l-.092-1.007zm10.01-3.311h-.21c-.16-1.024-.858-1.437-1.8-1.437-.968 0-2.373.675-2.373 2.777 0 1.77 1.212 3.04 2.507 3.04.833 0 1.523-.596 1.691-1.516l.193.052-.193 1.28c-.353.228-1.304.464-1.86.464-1.967 0-3.212-1.323-3.212-3.294 0-1.795 1.54-3.083 3.188-3.083.68 0 1.337.228 1.985.465zm.303 4.3h.16c.235 0 .404 0 .404-.289V3.297c0-.57-.126-.587-.446-.683v-.14c.336-.114.69-.272.866-.377.092-.052.16-.097.185-.097.05 0 .068.053.068.123v6.052c0 .29.185.29.42.29h.142v.228c-.285 0-.58-.018-.882-.018s-.605.009-.917.018zm5.4-.254c0 .159.093.167.236.167.101 0 .227-.008.337-.008v.184c-.363.035-1.052.218-1.212.271l-.042-.026v-.71c-.504.43-.892.736-1.49.736-.454 0-.925-.307-.925-1.042V5.539c0-.228-.033-.447-.504-.49v-.167c.304-.008.975-.06 1.085-.06.093 0 .093.06.093.253v2.26c0 .263 0 1.016.732 1.016.286 0 .664-.228 1.017-.534V5.46c0-.175-.403-.27-.706-.359v-.157c.757-.053 1.228-.123 1.312-.123.068 0 .068.061.068.158zm1.675-2.89c.336-.298.79-.63 1.253-.63.976 0 1.564.885 1.564 1.839 0 1.147-.807 2.295-2.01 2.295-.623 0-.95-.21-1.17-.307l-.252.201-.176-.096c.075-.516.118-1.024.118-1.559V3.297c0-.57-.127-.587-.446-.683v-.14c.337-.114.69-.272.866-.377.093-.052.16-.097.186-.097.05 0 .067.053.067.123zm0 2.382c0 .333.302.894.866.894.9 0 1.278-.92 1.278-1.7 0-.945-.689-1.733-1.345-1.733-.312 0-.572.21-.8.412zM22 13.785h.064c.165 0 .339-.023.339-.271v-2.497c0-.249-.174-.272-.339-.272H22v-.143c.179 0 .453.018.678.018.229 0 .503-.018.718-.018v.143h-.064c-.164 0-.339.023-.339.272v2.497c0 .248.175.271.339.271h.064v.144c-.22 0-.495-.02-.723-.02-.224 0-.494.02-.673.02zm4.54-.796.01-.01v-1.786c0-.391-.261-.448-.399-.448h-.1v-.143c.215 0 .426.019.64.019.188 0 .376-.02.563-.02v.144h-.068c-.193 0-.408.038-.408.605v2.169c0 .167.005.333.028.48h-.174l-2.357-2.735v1.964c0 .414.077.557.43.557h.077v.144c-.196 0-.393-.02-.59-.02-.205 0-.416.02-.622.02v-.144h.064c.316 0 .412-.224.412-.604v-2.008a.42.42 0 0 0-.416-.428h-.06v-.143c.174 0 .352.019.526.019.137 0 .27-.02.407-.02zm1.4-2.149c-.344 0-.357.086-.426.433h-.137c.018-.133.041-.266.055-.405q.028-.198.028-.404h.11c.036.143.15.138.275.138h2.36c.125 0 .239-.005.248-.148l.11.019q-.029.193-.05.386c-.01.129-.01.258-.01.386l-.137.053c-.009-.176-.032-.458-.338-.458h-.751v2.535c0 .368.16.41.38.41h.087v.144c-.179 0-.5-.02-.746-.02-.275 0-.595.02-.774.02v-.144h.087c.252 0 .38-.023.38-.4V10.84zm2.769 2.945h.064c.165 0 .339-.023.339-.271v-2.497c0-.249-.174-.272-.339-.272h-.064v-.143c.278 0 .755.018 1.14.018s.86-.018 1.17-.018c-.007.204-.003.52.01.729l-.137.038c-.022-.31-.077-.557-.558-.557h-.636v1.248h.544c.275 0 .335-.161.362-.42h.137a12 12 0 0 0 0 1.102l-.137.028c-.027-.286-.041-.471-.357-.471h-.549v1.11c0 .31.265.31.558.31.55 0 .792-.039.929-.581l.128.032q-.092.38-.155.759c-.294 0-.82-.02-1.231-.02-.413 0-.957.02-1.218.02zm3.222-2.678c0-.348-.183-.362-.326-.362h-.082v-.143c.147 0 .43.019.71.019.274 0 .494-.02.736-.02.577 0 1.09.162 1.09.84 0 .428-.275.69-.636.839l.782 1.219c.128.202.22.258.444.286v.144c-.151 0-.298-.02-.448-.02-.142 0-.29.02-.43.02a13 13 0 0 1-.953-1.545h-.301v1.02c0 .368.164.38.374.38h.083v.145c-.261 0-.526-.02-.787-.02-.22 0-.435.02-.664.02v-.144h.082c.17 0 .326-.08.326-.257zm.586 1.105h.223c.458 0 .705-.18.705-.743 0-.424-.26-.696-.668-.696-.138 0-.196.015-.26.02zm5.24.777.008-.01v-1.786c0-.391-.26-.448-.398-.448h-.1v-.143c.215 0 .425.019.64.019.188 0 .375-.02.564-.02v.144h-.069c-.192 0-.407.038-.407.605v2.169c0 .167.004.333.027.48h-.174l-2.357-2.735v1.964c0 .414.078.557.43.557H38v.144c-.197 0-.394-.02-.59-.02-.207 0-.417.02-.623.02v-.144h.064c.316 0 .412-.224.412-.604v-2.008a.42.42 0 0 0-.416-.428h-.06v-.143c.173 0 .353.019.527.019.136 0 .269-.02.407-.02zm1.45.258c-.046.162-.101.287-.101.372 0 .143.192.166.343.166h.05v.144a10 10 0 0 0-.554-.019q-.246.001-.494.019v-.144h.028c.178 0 .33-.11.397-.31l.734-2.187c.058-.176.142-.414.17-.591a2.3 2.3 0 0 0 .415-.205c.014-.005.022-.01.037-.01s.022 0 .032.015l.042.119.842 2.493c.054.166.109.343.168.486.056.134.152.19.303.19h.027v.144a12 12 0 0 0-.631-.019q-.337.001-.687.019v-.144h.05c.105 0 .284-.019.284-.138 0-.062-.04-.19-.092-.343l-.178-.553h-1.039zm.668-2.111h-.01l-.425 1.348h.855zm1.973-.296c-.344 0-.357.086-.426.433h-.138c.018-.133.041-.266.056-.405q.027-.198.027-.404h.11c.036.143.151.138.274.138h2.362c.123 0 .238-.005.247-.148l.11.019q-.028.193-.05.386c-.01.129-.01.258-.01.386l-.137.053c-.008-.176-.032-.458-.338-.458h-.751v2.535c0 .368.16.41.38.41h.087v.144c-.179 0-.499-.02-.746-.02-.274 0-.595.02-.774.02v-.144h.087c.252 0 .38-.023.38-.4V10.84zm2.79 2.945h.065c.165 0 .338-.023.338-.271v-2.497c0-.249-.173-.272-.338-.272h-.065v-.143c.18 0 .453.018.677.018.23 0 .504-.018.72-.018v.143h-.064c-.165 0-.34.023-.34.272v2.497c0 .248.175.271.34.271h.064v.144c-.22 0-.495-.02-.723-.02-.225 0-.495.02-.674.02zm3.222-3.254c.976 0 1.754.629 1.754 1.644 0 1.096-.756 1.825-1.73 1.825-.971 0-1.712-.686-1.712-1.71 0-.992.736-1.76 1.688-1.76m.07 3.26c.887 0 1.042-.816 1.042-1.511 0-.697-.36-1.54-1.12-1.54-.802 0-1.04.744-1.04 1.382 0 .853.376 1.668 1.117 1.668m4.768-.802.01-.01v-1.786c0-.391-.263-.448-.4-.448h-.1V10.6c.215 0 .426.019.64.019.189 0 .376-.02.564-.02v.144h-.069c-.192 0-.407.038-.407.605v2.169c0 .167.004.333.027.48h-.173l-2.358-2.735v1.964c0 .414.078.557.43.557h.078v.144c-.197 0-.393-.02-.59-.02-.206 0-.417.02-.623.02v-.144h.064c.317 0 .412-.224.412-.604v-2.008a.42.42 0 0 0-.416-.428h-.06V10.6c.174 0 .353.019.526.019.137 0 .27-.02.408-.02zm1.45.258c-.045.162-.1.287-.1.372 0 .143.192.166.342.166h.051v.144a10 10 0 0 0-.554-.019q-.248.001-.493.019v-.144h.026c.179 0 .33-.11.398-.31l.733-2.187c.06-.176.142-.414.169-.591a2.3 2.3 0 0 0 .417-.205c.013-.005.022-.01.036-.01s.023 0 .032.015l.042.119.841 2.493c.055.166.11.343.17.486.055.134.152.19.302.19h.028v.144c-.206-.01-.412-.019-.632-.019q-.336.001-.687.019v-.144h.05c.105 0 .285-.019.285-.138 0-.062-.042-.19-.093-.343l-.177-.553h-1.04zm.669-2.111h-.01l-.426 1.348h.857zm2.924 2.325c0 .191.128.248.274.268.188.014.394.014.605-.01a.65.65 0 0 0 .439-.258 1.1 1.1 0 0 0 .142-.343h.132c-.05.272-.114.54-.17.81-.401 0-.805-.018-1.207-.018-.403 0-.806.019-1.208.019v-.144h.063c.165 0 .344-.023.344-.319v-2.45c0-.248-.179-.271-.344-.271h-.063V10.6c.242 0 .48.019.722.019.234 0 .463-.02.696-.02v.144h-.115c-.173 0-.31.005-.31.257z"/>
  </g>
</svg>
