<svg fill="currentColor" aria-label="Discord" viewBox="0 0 14 16" xmlns="http://www.w3.org/2000/svg">
  <path d="M12.342 0H1.638C.735 0 0 .735 0 1.646v10.8c0 .91.735 1.645 1.638 1.645h9.058l-.423-1.477 1.022.95.967.895 1.718 1.518V1.646C13.98.735 13.245 0 12.342 0M9.258 10.433s-.287-.344-.527-.647c1.047-.296 1.446-.95 1.446-.95a4.5 4.5 0 0 1-.919.47c-.399.168-.782.28-1.158.344a5.6 5.6 0 0 1-2.069-.008 6.7 6.7 0 0 1-1.174-.344 5 5 0 0 1-.583-.271c-.024-.016-.048-.024-.072-.04a.1.1 0 0 1-.032-.024 3 3 0 0 1-.224-.136s.384.64 1.398.943c-.24.303-.535.663-.535.663-1.765-.056-2.436-1.215-2.436-1.215 0-2.572 1.15-4.657 1.15-4.657 1.15-.862 2.245-.838 2.245-.838l.08.095c-1.438.416-2.101 1.047-2.101 1.047s.175-.096.47-.232c.856-.375 1.535-.48 1.814-.503.048-.008.088-.016.136-.016a6.5 6.5 0 0 1 4.018.75s-.631-.598-1.989-1.014l.112-.127s1.094-.024 2.245.838c0 0 1.15 2.085 1.15 4.657 0 0-.68 1.159-2.445 1.215m-3.714-3.73c-.455 0-.815.399-.815.886s.368.887.815.887c.455 0 .815-.4.815-.887.008-.487-.36-.887-.815-.887m2.916 0c-.456 0-.815.399-.815.886s.367.887.815.887c.455 0 .814-.4.814-.887s-.36-.887-.814-.887"/>
</svg>
