<svg fill="currentColor" viewBox="0 0 98 16" xmlns="http://www.w3.org/2000/svg">
  <ellipse cx="51.591" cy="7.833" rx="7.936" ry="7.833"/>
  <path d="M4.686.485c4.81 0 8.13 3.095 8.164 7.515 0 2.196-1.035 4.33-2.77 5.742-1.463 1.202-3.11 1.742-5.422 1.742H.33V.485zM8.16 11.756c1.003-.902 1.614-2.345 1.614-3.787 0-1.444-.611-2.827-1.614-3.728-.976-.87-2.133-1.204-4.05-1.204h-.796v9.894h.796c1.917 0 3.104-.361 4.05-1.174M14.19.486h2.951v14.997h-2.95zm10.201 5.77h-.002c3.38 1.204 4.354 2.286 4.354 4.66 0 2.885-2.162 4.93-5.205 4.93-2.254 0-3.9-.904-5.271-2.856l1.92-1.834c.67 1.292 1.797 1.984 3.23 1.984 1.308 0 2.283-.872 2.283-2.105 0-.631-.306-1.142-.886-1.533-.304-.181-.882-.45-2.039-.87-2.771-.963-3.746-2.015-3.746-4.09 0-2.466 2.073-4.297 4.75-4.297a6.65 6.65 0 0 1 4.449 1.682l-1.552 1.984c-.763-.84-1.496-1.2-2.377-1.2-1.28 0-2.223.72-2.223 1.65 0 .81.548 1.235 2.315 1.895m5.298 1.742-.002-.002c0-4.359 3.595-7.843 8.07-7.843 1.28 0 2.346.27 3.655.931v3.43c-1.25-1.174-2.315-1.684-3.714-1.684-2.77 0-4.964 2.283-4.964 5.14 0 3.036 2.102 5.17 5.086 5.17 1.34 0 2.406-.48 3.593-1.654v3.456c-1.37.631-2.435.871-3.715.871-4.507 0-8.01-3.424-8.01-7.815m37.897 2.557 4.08-10.07h3.198l-6.548 15.36h-1.584L60.306.485h3.23zm8.647 4.928V.485h8.377v2.553h-5.422v3.307h5.207v2.558h-5.207v4.025h5.422v2.555zm20.1-10.548c0 2.285-1.249 3.785-3.47 4.237l4.778 6.31h-3.62l-4.112-6.038h-.397v6.04h-2.955V.485h4.384c3.414 0 5.392 1.623 5.392 4.45m-5.938 2.462.001-.001c1.885 0 2.891-.81 2.891-2.312 0-1.472-1.006-2.224-2.862-2.224h-.914v4.537z"/>
</svg>
