<svg fill="currentColor" aria-label="Dribbble" viewBox="0 0 16 16" xmlns="http://www.w3.org/2000/svg">
  <path d="M8 15.981c-4.412 0-8-3.581-8-7.987C0 3.58 3.588 0 8 0c4.413 0 8 3.581 8 7.988 0 4.406-3.588 7.993-8 7.993m6.744-6.9c-.232-.075-2.113-.631-4.256-.293.893 2.45 1.256 4.45 1.325 4.862a6.78 6.78 0 0 0 2.93-4.569m-4.075 5.2c-.1-.6-.5-2.687-1.457-5.175a.1.1 0 0 1-.043.013C5.312 10.463 3.93 13.13 3.806 13.38A6.8 6.8 0 0 0 8 14.82a6.7 6.7 0 0 0 2.669-.538m-7.744-1.719C3.081 12.3 4.956 9.2 8.481 8.057c.088-.031.181-.056.269-.081a18 18 0 0 0-.556-1.156c-3.413 1.019-6.725.975-7.025.968 0 .07-.006.138-.006.207a6.83 6.83 0 0 0 1.762 4.569M1.313 6.6c.306.006 3.118.019 6.318-.831C6.5 3.756 5.275 2.069 5.1 1.825A6.84 6.84 0 0 0 1.313 6.6M6.4 1.363c.188.25 1.431 1.937 2.55 3.993 2.431-.912 3.456-2.287 3.581-2.462A6.8 6.8 0 0 0 8 1.175c-.55 0-1.088.069-1.6.188m6.887 2.318c-.143.194-1.287 1.663-3.812 2.694a28 28 0 0 1 .606 1.338c2.275-.288 4.532.175 4.757.218a6.8 6.8 0 0 0-1.55-4.25"/>
</svg>
