<svg fill="currentColor" aria-label="Drift" viewBox="0 0 16 16" xmlns="http://www.w3.org/2000/svg">
  <path fill-rule="evenodd" d="M8 0a8 8 0 1 0 0 16A8 8 0 0 0 8 0m5.097 5.864a.34.34 0 0 0-.335-.002L8.422 8.39a.34.34 0 0 0-.17.296v1.333a.35.35 0 0 0 .17.295.34.34 0 0 0 .335.002l.003-.002 1.427-.832v.003l.002-.001v3.09q0 .093.046.17.044.076.121.124a.35.35 0 0 0 .17.045.35.35 0 0 0 .17-.045l.853-.498a.34.34 0 0 0 .169-.296V8.59l1.378-.803a.34.34 0 0 0 .17-.297V6.16a.34.34 0 0 0-.17-.296M8.253 4.757a.34.34 0 0 0 .17.297l1.312.765.015.012.038.022a.02.02 0 0 1 .011.02v.045l.003.017v.926c0 .09.085.152.167.132L10 6.979c.532-.309 1.96-1.14 2.487-1.445a.133.133 0 0 0-.002-.231L8.76 3.133a.34.34 0 0 0-.339 0 .34.34 0 0 0-.168.292zm-.6-1.624a.34.34 0 0 0-.34 0L3.586 5.305a.131.131 0 0 0-.003.227c.528.307 1.965 1.141 2.493 1.45a.132.132 0 0 0 .198-.116V5.86l.055-.032.011-.008 1.247-.726a.48.48 0 0 0 .236-.41V3.43a.34.34 0 0 0-.17-.296M7.58 8.39 4.951 6.859l-1.708-.995a.34.34 0 0 0-.339 0 .34.34 0 0 0-.17.296v1.33c0 .123.065.236.17.297l1.378.803v3.484c0 .122.065.235.17.296l.853.498a.35.35 0 0 0 .17.045.35.35 0 0 0 .17-.045.35.35 0 0 0 .168-.294V9.483l1.427.832.004.002a.338.338 0 0 0 .505-.298V8.687a.35.35 0 0 0-.169-.296"/>
</svg>
