<svg fill="currentColor" aria-label="Firefox" viewBox="0 0 16 16" xmlns="http://www.w3.org/2000/svg">
  <path d="M15.607 7.32c-.02-.14-.047-.227-.047-.227l-.147.187a5 5 0 0 0-.18-1.007 7 7 0 0 0-.466-1.193c-.12-.253-.26-.5-.427-.727-.087-.133-.16-.233-.173-.253-.287-.467-.607-.747-.987-1.28a3.9 3.9 0 0 1-.487-1.327c-.106.28-.186.574-.24.867-.38-.387-.72-.667-.92-.853-1-.934-.88-1.414-.88-1.414s-1.866 2.08-1.06 4.247c.28.733.76 1.38 1.394 1.853.78.64 1.62 1.147 2.06 2.447a4.1 4.1 0 0 0-1.554-1.647c.2.474.3.974.294 1.487a3.53 3.53 0 0 1-4.314 3.44c-.306-.06-.6-.16-.873-.3a3.5 3.5 0 0 1-1.053-.967v-.006q.05.02.06.02a2.6 2.6 0 0 0 .446.12c.6.126 1.22.053 1.774-.207.56-.313.9-.54 1.173-.453.273.086.48-.174.293-.447a1.46 1.46 0 0 0-1.413-.547c-.56.08-1.073.474-1.8.094-.053-.027-.093-.054-.14-.08-.047-.034.16.04.107.006a3 3 0 0 1-.46-.273c-.007-.007.113.033.1.027a1.8 1.8 0 0 1-.48-.487.88.88 0 0 1-.034-.767.7.7 0 0 1 .3-.28c.094.047.154.08.154.08s-.047-.08-.067-.12c.007-.006.013 0 .027-.006.08.033.26.126.36.186a.5.5 0 0 1 .166.147s.034-.013.007-.087a.4.4 0 0 0-.173-.206h.013c.073.04.14.08.207.133.06-.147.093-.293.086-.447a.6.6 0 0 0-.033-.246c-.027-.054.013-.074.06-.02a.4.4 0 0 0-.04-.12s.027-.04.04-.047a.4.4 0 0 1 .107-.087c.233-.146.473-.273.726-.373a7 7 0 0 0 .407-.18q.078-.048.147-.107a.97.97 0 0 0 .326-.566C8 5.273 8 5.247 8 5.22v-.053c-.027-.114-.22-.194-1.227-.294a.87.87 0 0 1-.72-.673v.007q-.02.051-.04.113c.014-.04.027-.073.04-.113V4.2c.194-.5.54-.933.987-1.227.027-.02-.1.007-.073-.013q.12-.062.26-.113c.046-.014-.194-.107-.407-.087-.127.007-.253.04-.373.087.053-.04.2-.094.166-.094a2.2 2.2 0 0 0-.766.287q.001-.039.013-.067c-.187.08-.353.207-.473.367v-.087c-.087.067-.16.14-.234.22h-.006a3.1 3.1 0 0 0-1.74-.146L3.4 3.32h.007a1.3 1.3 0 0 1-.307-.347l-.007.007-.013-.013c-.04-.054-.073-.12-.113-.194-.034-.046-.06-.106-.094-.166 0 0 0-.007-.006-.007-.007 0-.02.06-.027.04a2.1 2.1 0 0 1-.14-.833h-.007a.88.88 0 0 0-.353.466c-.033.067-.053.1-.073.14v-.02l.02-.1c-.007.007-.007.014-.014.02a1 1 0 0 0-.12.18 1 1 0 0 0-.08.194v-.034c0-.026.007-.066 0-.053l-.006.02c-.214.473-.354.98-.4 1.5-.014.093-.014.18-.014.267V4.4a3.6 3.6 0 0 0-.406.54 7.7 7.7 0 0 0-.854 2.1c.127-.28.28-.553.46-.807a7.4 7.4 0 0 0-.52 2.727q.09-.408.22-.807c-.053 1.1.16 2.2.62 3.207a7.44 7.44 0 0 0 2.954 3.34 6.4 6.4 0 0 0 1.713.827c.08.026.167.06.247.086-.027-.013-.047-.026-.074-.033a7.9 7.9 0 0 0 2.227.327c2.673 0 3.553-1.02 3.64-1.12.127-.12.24-.26.313-.427.054-.02.1-.04.154-.067l.033-.013.06-.027a5.7 5.7 0 0 0 1.133-.706 2.73 2.73 0 0 0 1.047-1.54.96.96 0 0 0 .02-.707c.04-.067.073-.127.08-.14a6.3 6.3 0 0 0 .947-3.06v-.093c0-.227-.02-.46-.06-.687"/>
</svg>
