<svg fill="currentColor" viewBox="0 0 17 16" xmlns="http://www.w3.org/2000/svg">
  <g fill-rule="evenodd">
    <path d="M8.2 0a8.204 8.204 0 0 0-2.592 15.986c.41.076.56-.178.56-.395 0-.195-.008-.841-.011-1.527-2.281.496-2.763-.968-2.763-.968-.373-.948-.91-1.2-.91-1.2-.744-.509.056-.498.056-.498.823.057 1.257.845 1.257.845.731 1.254 1.918.891 2.386.682.074-.53.286-.892.52-1.097-1.82-.208-3.735-.91-3.735-4.054 0-.895.32-1.627.845-2.202-.086-.206-.366-1.04.079-2.17 0 0 .689-.22 2.256.84A8 8 0 0 1 8.2 3.968a8 8 0 0 1 2.054.276c1.565-1.062 2.253-.841 2.253-.841.446 1.13.166 1.964.08 2.17a3.17 3.17 0 0 1 .844 2.202c0 3.15-1.918 3.844-3.744 4.047.294.255.556.754.556 1.52 0 1.097-.01 1.98-.01 2.25 0 .219.148.474.564.394A8.2 8.2 0 0 0 16.4 8.203 8.2 8.2 0 0 0 8.2 0"/>
    <path fill-rule="nonzero" d="M3.075 11.682c-.018.041-.081.054-.14.026-.058-.027-.092-.083-.072-.124.017-.042.08-.054.14-.026.059.027.093.083.072.124m.4.362c-.038.036-.114.02-.166-.038s-.063-.134-.023-.171.113-.02.167.038c.053.058.063.134.023.17m.274.463c-.05.035-.131.002-.182-.071s-.05-.161.002-.196c.05-.036.13-.004.182.069.05.074.05.162-.002.198m.465.535c-.045.05-.14.036-.21-.032-.07-.066-.09-.16-.046-.21.046-.05.141-.036.211.032.071.066.093.16.045.21m.6.18c-.02.065-.11.094-.203.067-.092-.028-.152-.104-.134-.169.02-.065.111-.095.204-.066s.153.103.133.169m.684.076c.002.068-.076.124-.173.126s-.176-.053-.177-.12c0-.068.076-.124.174-.126s.176.053.176.12m.671-.026c.012.066-.056.134-.152.153-.094.017-.182-.024-.194-.09-.011-.067.057-.135.151-.153.097-.017.183.023.195.09"/>
  </g>
</svg>
