<svg fill="currentColor" aria-label="Gmail" viewBox="0 0 22 16" xmlns="http://www.w3.org/2000/svg">
  <path d="M19.698 15.967H1.332A1.316 1.316 0 0 1 .02 14.655V1.387C.02.675.601.075 1.332.075h18.366c.712 0 1.311.58 1.311 1.312v13.268c0 .73-.58 1.312-1.311 1.312"/>
  <path d="M.03 1.21C.054 1.004.13.8.264.619a1.36 1.36 0 0 1 1.874-.28l8.377 6.09L18.948.262c.581-.43 1.406-.3 1.837.3.229.309.299.687.224 1.037v13.075a1.3 1.3 0 0 1-1.311 1.293h-1.312V3.923l-7.89 5.728-7.852-5.7v12.016H1.332c-.73 0-1.312-.581-1.312-1.312V1.368q0-.084.01-.157"/>
</svg>
