<svg fill="currentColor" viewBox="0 0 16 16" xmlns="http://www.w3.org/2000/svg">
  <path d="M.85 4.394A7.97 7.97 0 0 1 7.973 0c2.152 0 3.95.788 5.332 2.073l-2.25 2.197c-.576-.54-1.585-1.187-3.082-1.187-2.109 0-3.898 1.39-4.545 3.313a5.2 5.2 0 0 0-.257 1.577c0 .549.098 1.08.266 1.576.638 1.923 2.427 3.313 4.536 3.313 1.187 0 2.09-.327 2.763-.797 1.063-.744 1.542-1.851 1.63-2.587H7.973V6.52h7.485c.115.496.168.974.168 1.63 0 2.427-.868 4.473-2.374 5.864-1.32 1.222-3.127 1.931-5.28 1.931A7.98 7.98 0 0 1 0 7.972a8 8 0 0 1 .851-3.578"/>
</svg>
