<svg fill="currentColor" viewBox="0 0 16 16" xmlns="http://www.w3.org/2000/svg">
  <path d="M.667.687h14.666v14.266H.667zM0 15.62h16V.02H0zM10.48 5.58c0-.053.02-.08.08-.08h1.047c.053 0 .08.02.08.08v5.26c0 .053-.014.08-.08.08h-1.034c-.066 0-.086-.033-.086-.087V5.58zm-.073-1.513c0-.427.3-.68.68-.68.406 0 .68.273.68.68 0 .44-.287.68-.694.68-.386 0-.666-.24-.666-.68m-3 3.706c-.187-.74-.627-2.353-.794-3.133H6.6c-.14.78-.493 2.1-.773 3.133zm-1.854 1.08-.526 2c-.014.054-.034.067-.1.067h-.98c-.067 0-.08-.02-.067-.1l1.893-6.627c.034-.12.054-.226.067-.553q.002-.069.053-.067h1.4c.047 0 .067.014.08.067l2.12 7.193c.014.054 0 .087-.053.087H8.333c-.053 0-.086-.013-.1-.06l-.546-2.007z"/>
</svg>
