<svg fill="currentColor" viewBox="0 0 16 16" xmlns="http://www.w3.org/2000/svg">
  <path d="M.667.687h14.666v14.266H.667zM0 15.62h16V.02H0zM10.12 6.5a.95.95 0 0 0-.393-.067c-.86 0-1.46.66-1.46 1.76 0 1.254.613 1.76 1.38 1.76.166 0 .34-.02.473-.08zm-.353-1.087c.14 0 .22 0 .353.014V3.653c0-.046.033-.066.067-.066h1.08c.053 0 .066.02.066.053v6.233c0 .187 0 .42.034.674 0 .046-.014.053-.06.08a4.1 4.1 0 0 1-1.747.393c-1.473 0-2.527-.913-2.527-2.773-.006-1.594 1.047-2.834 2.734-2.834m-3.914 5.42c0 .067-.013.087-.086.087H4.74c-.067 0-.087-.033-.087-.087v-7.16c0-.066.034-.086.087-.086h1.033c.054 0 .08.02.08.08z"/>
</svg>
