<svg fill="currentColor" viewBox="0 0 16 16" xmlns="http://www.w3.org/2000/svg">
  <path d="M5.334 8a2.667 2.667 0 1 1 5.333 0 2.667 2.667 0 0 1-5.333 0M3.892 8a4.108 4.108 0 1 0 8.216 0 4.108 4.108 0 0 0-8.216 0m7.419-4.27a.96.96 0 1 0 .96-.96.96.96 0 0 0-.96.96M4.768 14.511c-.78-.036-1.204-.166-1.486-.275a2.5 2.5 0 0 1-.92-.599 2.5 2.5 0 0 1-.598-.92c-.11-.28-.24-.705-.275-1.485-.04-.843-.047-1.097-.047-3.233s.008-2.389.047-3.233c.035-.78.166-1.203.275-1.486.145-.373.318-.64.598-.92s.546-.453.92-.598c.282-.11.706-.24 1.486-.275.843-.04 1.097-.047 3.232-.047s2.39.009 3.233.047c.78.035 1.204.166 1.486.275.374.145.64.318.92.598s.453.547.599.92c.11.282.24.706.275 1.486.039.844.046 1.097.046 3.233s-.007 2.39-.046 3.233c-.036.78-.166 1.204-.275 1.486-.146.373-.319.64-.599.92-.28.279-.546.452-.92.598-.282.11-.706.24-1.486.275-.843.039-1.096.046-3.233.046s-2.389-.007-3.232-.046M4.702.048C3.85.088 3.268.222 2.76.42a3.9 3.9 0 0 0-1.417.923A3.9 3.9 0 0 0 .42 2.76C.222 3.268.087 3.85.048 4.702.01 5.555 0 5.827 0 8s.009 2.445.048 3.298c.04.852.174 1.434.372 1.942.204.526.478.973.923 1.417s.89.718 1.417.923c.51.198 1.09.333 1.942.372C5.555 15.99 5.828 16 8 16s2.446-.009 3.299-.048c.851-.04 1.433-.174 1.942-.372a3.9 3.9 0 0 0 1.417-.923c.445-.444.718-.89.923-1.417.197-.508.333-1.09.371-1.942.039-.853.048-1.125.048-3.298s-.009-2.445-.048-3.298c-.039-.852-.174-1.434-.371-1.942a3.9 3.9 0 0 0-.923-1.417A3.9 3.9 0 0 0 13.24.42C12.732.222 12.151.087 11.3.048 10.446.01 10.174 0 8.001 0s-2.446.009-3.3.048"/>
</svg>
