<svg fill="currentColor" viewBox="0 0 16 16" xmlns="http://www.w3.org/2000/svg">
  <path d="M13.867 8.797a.533.533 0 0 1-1.067 0V4a.533.533 0 0 1 1.067 0zm-.186 3.338c-.083.07-2.059 1.729-5.681 1.729s-5.598-1.658-5.68-1.729a.533.533 0 0 1 .693-.81c.03.025 1.795 1.472 4.987 1.472 3.232 0 4.969-1.457 4.986-1.472a.533.533 0 1 1 .695.81M2.133 4A.533.533 0 0 1 3.2 4v4.797a.533.533 0 0 1-1.067 0zM4.8 2.933a.533.533 0 0 1 1.067 0v7.125a.533.533 0 0 1-1.067 0zm2.667-.27a.533.533 0 1 1 1.066 0v7.734a.533.533 0 0 1-1.066 0zm2.666.27a.533.533 0 0 1 1.067 0v7.125a.533.533 0 0 1-1.067 0zM14 0H2a2 2 0 0 0-2 2v12a2 2 0 0 0 2 2h12a2 2 0 0 0 2-2V2a2 2 0 0 0-2-2"/>
</svg>
