<svg fill="currentColor" viewBox="0 0 17 16" xmlns="http://www.w3.org/2000/svg">
  <path d="M16.254 8.355a7.3 7.3 0 0 0-.915-3.541c2.483-5.62-2.66-4.797-2.947-4.74-1.09.213-2.098.555-3.028.989A7.31 7.31 0 0 0 1.83 6.717c1.83-2.052 3.11-2.88 3.876-3.212q-.183.165-.36.332l-.115.111q-.117.112-.231.226-.068.067-.133.135-.102.102-.2.205l-.138.147a18 18 0 0 0-.915 1.052l-.141.177-.136.172-.124.163-.14.183-.095.13a23 23 0 0 0-.975 1.444l-.01.016-.172.283-.006.01q-.226.376-.415.72c-.658 1.191-.978 2.024-.992 2.074-2.077 7.427 4.406 4.29 5.31 3.822a7.307 7.307 0 0 0 10.115-4.106h-3.837c-.568.96-1.661 1.61-2.917 1.61-1.84 0-3.332-1.395-3.332-3.115h10.447q.06-.463.06-.94M14.89 1.167c.629.425 1.133 1.092.267 3.337a7.33 7.33 0 0 0-3.567-2.961c.676-.326 2.35-1.017 3.3-.376M1.523 14.892c-.513-.525-.603-1.805.527-4.137a7.33 7.33 0 0 0 3.18 3.887c-.731.403-2.674 1.31-3.707.25M5.73 7.298c.058-1.671 1.513-3.01 3.3-3.01 1.788 0 3.243 1.339 3.301 3.01z"/>
</svg>
