<svg fill="currentColor" viewBox="0 0 16 16" xmlns="http://www.w3.org/2000/svg">
  <path fill-rule="evenodd" d="M14.55 0H1.45C.65 0 0 .65 0 1.45v13.1C0 15.35.65 16 1.45 16h13.1c.8 0 1.45-.65 1.45-1.45V1.45C16 .65 15.35 0 14.55 0M5.347 5.034a.966.966 0 0 0 .978-.963.966.966 0 0 0-.978-.963.966.966 0 0 0-.977.963c0 .546.445.963.977.963m-2.026 5.158a3.3 3.3 0 0 0-.087.723c0 .848.46 1.411 1.438 1.411.81 0 1.468-.481 1.94-1.258l-.288 1.16h1.61l.92-3.69c.23-.935.675-1.42 1.35-1.42.532 0 .863.33.863.877 0 .158-.014.33-.072.517l-.474 1.696a2.6 2.6 0 0 0-.1.719c0 .805.473 1.394 1.465 1.394.848 0 1.524-.546 1.898-1.854l-.633-.244c-.316.876-.59 1.035-.805 1.035s-.33-.144-.33-.431c0-.13.028-.273.071-.446l.46-1.652c.115-.388.159-.732.159-1.049 0-1.236-.748-1.88-1.653-1.88-.848 0-1.71.764-2.142 1.57l.316-1.446H6.77l-.345 1.273h1.15l-.708 2.835c-.556 1.236-1.577 1.256-1.706 1.227-.21-.047-.345-.127-.345-.4 0-.158.03-.385.1-.658l1.08-4.277H3.262l-.345 1.273h1.136z"/>
  ]
</svg>
