<svg fill="currentColor" viewBox="0 0 17 13" xmlns="http://www.w3.org/2000/svg">
  <g fill-rule="evenodd">
    <path d="M3.025 4.437v2.437c0 .198-.032.39-.132.564a.96.96 0 0 1-.734.482c-.438.062-.868-.004-1.285-.135-.258-.082-.507-.194-.761-.29-.048-.019-.047-.052-.047-.091v-5.19A2.1 2.1 0 0 1 1.687.186a2.6 2.6 0 0 1 .532-.058c.992-.004 1.984 0 2.975 0h.086v.086c0 3.51.004 7.02-.003 10.53a2.09 2.09 0 0 1-1.69 2.036c-.151.03-.308.042-.462.043q-1.485.004-2.968.004H.073V8.376c.194.039.386.087.581.114.359.048.719.098 1.08.12.328.02.66.019.988.002.476-.024.943-.109 1.368-.345.466-.259.723-.658.753-1.19.02-.333.014-.668.015-1.002l.002-1.548c0-.072-.018-.094-.092-.093q-.828.003-1.656.003zm2.899 8.387V7.956q.022.008.034.015c.385.309.835.466 1.311.556.62.118 1.244.125 1.87.075q.679-.06 1.341-.217c.053-.011.075-.029.075-.087q-.004-.37-.002-.739v-.084l-.07.03c-.421.205-.86.352-1.327.41-.41.051-.816.052-1.206-.107-.479-.196-.741-.561-.812-1.067a1.74 1.74 0 0 1 .066-.814c.159-.467.497-.733.962-.855.33-.085.662-.077.996-.035a4.2 4.2 0 0 1 1.366.43q.005.002.02 0 .004-.029.005-.059-.001-.38.001-.76c0-.045-.011-.068-.058-.08a8.6 8.6 0 0 0-2.358-.24c-.504.022-1.003.087-1.48.264a2.4 2.4 0 0 0-.687.38l-.05.032V2.238A2.106 2.106 0 0 1 8.046.128C9.052.122 10.058.125 11.064.125q.03 0 .07.004.004.044.004.086c0 3.518.006 7.035-.005 10.553-.002.797-.399 1.394-1.084 1.794-.313.179-.668.27-1.028.265H5.996zm5.862.002V8.514h.093c1.082 0 2.165.004 3.247 0 .329 0 .639-.083.905-.288a.943.943 0 0 0-.117-1.598 1.75 1.75 0 0 0-.71-.204c.119-.036.232-.061.337-.105.317-.131.534-.354.606-.7a.9.9 0 0 0-.446-.984c-.268-.152-.561-.198-.862-.198q-1.478-.002-2.954 0h-.103v-2.21a2.107 2.107 0 0 1 2.112-2.1l3.024.002c.08 0 .075.04.075.094v10.43c-.004.778-.323 1.393-.968 1.83-.281.19-.596.301-.936.326a8 8 0 0 1-.565.015l-2.66.002z"/>
    <path fill-rule="nonzero" d="M12.817 7.84v-1.1l.07-.004q.576-.001 1.152.001c.274.002.483.155.549.395.1.365-.136.7-.52.713-.41.013-.82.002-1.231.002q-.004 0-.02-.008zm.002-1.742v-1.02l.064-.004c.344 0 .688-.003 1.031.003q.137.002.263.054c.218.095.322.317.28.563a.485.485 0 0 1-.47.4c-.386.013-.773.004-1.168.004"/>
  </g>
</svg>
