<svg fill="currentColor" viewBox="0 0 24 16" xmlns="http://www.w3.org/2000/svg">
  <path d="M20.561 7.266c.009-.136.02-.272.02-.41 0-3.787-3.116-6.856-6.96-6.856-2.773 0-5.16 1.6-6.28 3.91a3.23 3.23 0 0 0-1.963-.665c-1.773 0-3.211 1.416-3.211 3.162 0 .329.05.646.145.943C.93 8.16 0 9.64 0 11.34c0 2.54 2.072 4.6 4.642 4.64l.055.003H18.54c.084.004.166.012.252.012 2.545 0 4.608-2.031 4.608-4.538 0-1.889-1.172-3.507-2.839-4.19m-14.28 5.218a2.73 2.73 0 0 1-.874-1.54 3.4 3.4 0 0 1-.058-.636q0-1.293.94-2.134.942-.843 2.395-.843c.995 0 1.932.372 2.76 1.117q.31.278.6.626l1.065 1.252q.278.379.586.654c.547.491 1.14.737 1.642.737q.639 0 1.07-.392a1.32 1.32 0 0 0 .421-.853l.007-.144q0-.216-.062-.407a1.35 1.35 0 0 0-.374-.573q-.424-.404-1.072-.403c-.532 0-1.057.179-1.633.737l-.943-1.11-.115-.128c.825-.808 1.648-1.111 2.756-1.111q1.474 0 2.386.836l.014.01q.928.835.928 2.157 0 .327-.058.625a2.7 2.7 0 0 1-.873 1.526q-.687.631-1.674.79-.345.053-.693.052c-1.018 0-1.958-.364-2.768-1.09a5.5 5.5 0 0 1-.626-.67l-1.065-1.243a4 4 0 0 0-.578-.648c-.545-.49-1.146-.735-1.662-.735q-.24 0-.45.056a1.4 1.4 0 0 0-.61.344 1.32 1.32 0 0 0-.43.982q0 .567.41.97l.02.02q.44.4 1.08.4c.535 0 1.063-.18 1.638-.742l.938 1.095.104.125c-.857.817-1.671 1.127-2.737 1.126q-1.473 0-2.404-.835"/>
</svg>
