<svg fill="currentColor" viewBox="0 0 16 16" xmlns="http://www.w3.org/2000/svg">
  <path d="M10.028 13c-.125-.18-1.752-2.996-1.752-2.996l5.3-1.379c.132-.042.174-.07.257.063.084.131 1.75 2.395 1.799 2.472s.097.125-.056.18c-.152.056-5.152 1.743-5.25 1.785s-.173.056-.298-.125M16 10.695c-.497-.67-1.2-1.61-1.648-2.211L16 8.044zM14.347 5.22c.081-.018.152-.04.252.097.083.114 1.047 1.335 1.401 1.784v.289l-.028.007c-.12.026-2.065.508-2.065.508l-1.592-2.184c-.045-.063-.082-.126.03-.14.111-.016 1.92-.342 2.002-.36M2.966 1.79c-.274.012-1.826.138-2.805.218Q.376 1.386.88.88A2.9 2.9 0 0 1 3 0h10a2.9 2.9 0 0 1 2.12.88A2.9 2.9 0 0 1 16 3v3.38c-.472-.586-.974-1.212-1.122-1.39-.29-.35-.431-.286-.61-.26-.178.026-2.258.375-2.499.416s-.394.137-.245.345c.132.185 1.5 2.124 1.8 2.55L7.89 9.345 3.566 2.116c-.173-.255-.208-.344-.6-.326m7.552 12.183c.309-.094 4.254-1.51 5.482-1.96V13a2.9 2.9 0 0 1-.88 2.12A2.9 2.9 0 0 1 13 16H3a2.9 2.9 0 0 1-2.12-.88A2.9 2.9 0 0 1 0 13V4.603c1.08 2.344 2.775 5.998 2.842 6.148.095.213.342.56.92.421.592-.142 2.645-.678 3.768-.972.593 1.074 1.802 3.252 2.026 3.564.298.417.504.348.962.209M3.776 10.33c-.163.037-.163.018-.181-.038-.017-.05-3.062-6.33-3.592-7.416a3 3 0 0 1 .029-.333C.554 2.501 2.81 2.3 2.9 2.294c.1-.005.09.016.127.08l4.058 7.005c.07.12.028.158-.037.172s-3.11.742-3.272.78"/>
</svg>
