<svg fill="currentColor" viewBox="0 0 13 16" xmlns="http://www.w3.org/2000/svg">
  <path d="M6.722 0q-.15 0-.307.013C3.71.227 4.428 3.09 4.387 4.044c-.05.7-.192 1.25-.673 1.934-.566.672-1.361 1.76-1.738 2.893-.178.533-.263 1.078-.184 1.593a.3.3 0 0 0-.071.086c-.166.172-.287.385-.424.537-.127.128-.31.171-.51.256-.2.087-.42.173-.553.436a.85.85 0 0 0-.084.385c0 .127.017.256.035.343.037.255.074.466.025.62-.159.436-.179.734-.067.951.111.214.342.3.6.385.52.128 1.223.086 1.777.383.592.299 1.194.43 1.674.3.337-.073.62-.295.773-.604.376-.002.787-.172 1.446-.214.448-.037 1.008.171 1.65.128.016.086.04.127.073.213l.002.002c.25.498.713.725 1.206.686s1.019-.343 1.444-.836c.404-.49 1.078-.694 1.522-.962.223-.127.403-.3.416-.546.014-.256-.128-.52-.457-.881v-.062l-.002-.002c-.109-.128-.16-.343-.216-.593-.055-.256-.117-.503-.315-.67h-.002c-.038-.034-.079-.042-.12-.086a.23.23 0 0 0-.122-.04c.276-.819.169-1.633-.11-2.365-.342-.902-.938-1.688-1.393-2.229-.51-.643-1.009-1.252-.999-2.156C9.007 2.552 9.142.004 6.722 0m.338 2.18h.009c.136 0 .253.039.374.126a1 1 0 0 1 .28.341c.068.166.102.294.107.463 0-.012.004-.025.004-.037v.066l-.003-.013-.003-.016c0 .156-.033.31-.096.452a.6.6 0 0 1-.136.215L7.54 3.75c-.067-.029-.128-.041-.183-.085a1 1 0 0 0-.14-.043c.032-.037.093-.085.117-.126a.8.8 0 0 0 .056-.258v-.012a.8.8 0 0 0-.039-.256c-.029-.086-.065-.128-.117-.214-.054-.042-.107-.084-.171-.084h-.01c-.06 0-.113.02-.168.084a.5.5 0 0 0-.131.214.8.8 0 0 0-.058.256v.012q.002.086.013.171c-.123-.043-.28-.086-.388-.129a1 1 0 0 1-.012-.127V3.14a1.1 1.1 0 0 1 .096-.492.7.7 0 0 1 .275-.341.63.63 0 0 1 .38-.128m-1.895.037h.023q.133.001.255.086a.9.9 0 0 1 .22.298c.058.127.09.257.098.427v.002a1 1 0 0 1-.001.17v.052l-.053.015c-.097.035-.175.087-.252.128a.7.7 0 0 0 .002-.17v-.01c-.007-.085-.025-.128-.052-.213a.4.4 0 0 0-.106-.171.16.16 0 0 0-.118-.041h-.013c-.045.004-.083.026-.119.084a.35.35 0 0 0-.077.173.6.6 0 0 0-.015.212v.009c.008.086.024.128.052.214a.4.4 0 0 0 .106.171q.01.01.022.015c-.045.037-.075.045-.113.088a.2.2 0 0 1-.084.043 1.7 1.7 0 0 1-.176-.257 1.1 1.1 0 0 1-.099-.427q-.015-.22.051-.428a.9.9 0 0 1 .181-.342.36.36 0 0 1 .268-.128m.877 1.092c.212 0 .469.041.778.255.187.128.335.172.674.3h.002c.163.087.259.17.306.255v-.084c.046.094.05.204.01.301-.079.199-.33.412-.681.54-.172.087-.32.214-.496.298-.177.087-.376.187-.648.171a.7.7 0 0 1-.287-.043q-.105-.057-.206-.126c-.124-.087-.232-.213-.391-.298v-.003H5.1c-.256-.158-.395-.328-.44-.455q-.066-.258.124-.384c.143-.087.243-.174.31-.215.066-.048.09-.065.112-.084h.001v-.002c.108-.13.28-.3.537-.385.089-.023.188-.041.298-.041M7.834 4.68c.23.907.766 2.224 1.11 2.863.184.342.548 1.062.706 1.935q.15-.003.328.041c.414-1.07-.35-2.219-.697-2.538-.141-.129-.148-.214-.078-.214.377.341.873 1.006 1.053 1.764.083.343.102.707.013 1.069.043.018.087.039.132.043.66.342.904.6.787.984v-.028q-.059-.002-.116 0h-.01c.097-.299-.116-.528-.681-.783-.586-.256-1.054-.215-1.134.297-.004.028-.007.043-.01.087-.044.014-.09.034-.134.04-.275.172-.424.429-.508.76-.083.341-.109.74-.131 1.196v.002c-.013.214-.11.537-.204.865-.96.686-2.291.984-3.424.214a1.7 1.7 0 0 0-.257-.341 1 1 0 0 0-.176-.214c.117 0 .217-.019.298-.043a.4.4 0 0 0 .2-.214c.07-.17 0-.446-.22-.744-.22-.299-.596-.637-1.144-.973-.404-.256-.631-.557-.736-.894-.106-.342-.092-.694-.01-1.053.157-.685.559-1.35.815-1.768.069-.042.024.086-.26.623-.254.481-.731 1.598-.079 2.467a5.2 5.2 0 0 1 .414-1.84c.361-.819 1.116-2.243 1.175-3.372.031.023.14.086.185.129.14.085.243.213.378.298a.76.76 0 0 0 .56.214q.038.004.072.004c.263 0 .466-.086.637-.172.186-.085.333-.213.474-.256h.003c.299-.086.535-.257.669-.448m1.399 5.733c.023.385.22.797.564.882.376.085.918-.213 1.146-.49l.135-.006c.202-.005.37.007.542.171l.002.002c.134.128.196.34.25.56.055.257.1.5.262.683.311.337.413.58.407.73l.002-.004v.011l-.002-.007c-.01.167-.118.253-.318.38-.403.257-1.118.456-1.573 1.005-.395.472-.877.73-1.303.762-.425.034-.791-.128-1.007-.574l-.003-.002c-.135-.257-.077-.656.035-1.082.113-.427.274-.86.297-1.214.023-.457.048-.855.125-1.161.076-.298.197-.51.41-.63l.029-.014zm-6.922.032h.006q.051 0 .1.009c.242.035.453.213.656.481L3.655 12l.002.002c.155.341.483.68.76 1.048.279.383.494.724.467 1.005v.004c-.036.476-.306.735-.72.828-.412.086-.972.001-1.532-.297-.62-.343-1.356-.3-1.829-.385Q.45 14.14.34 13.948c-.07-.127-.072-.384.08-.787v-.004c.075-.214.02-.482-.017-.716-.035-.257-.053-.454.028-.602.102-.213.253-.255.44-.34.19-.087.41-.13.587-.3h.001v-.003c.164-.171.285-.384.428-.536.121-.129.243-.215.424-.215m4.582-5.808c-.279.13-.605.343-.953.343-.346 0-.62-.171-.818-.298-.1-.086-.18-.172-.24-.215-.104-.086-.092-.214-.047-.214.07.01.083.087.128.13.061.041.137.126.23.212.187.128.436.3.747.3.31 0 .674-.172.895-.3.124-.086.284-.213.414-.298.1-.088.096-.172.179-.172.082.01.022.086-.094.214a5 5 0 0 1-.442.3zM6.2 3.624V3.61c-.004-.013.009-.027.019-.032.047-.028.115-.018.166.002.04 0 .103.043.096.087-.004.03-.054.042-.086.042-.035 0-.059-.028-.09-.044-.034-.011-.094-.005-.105-.041m-.352 0c-.013.037-.073.031-.107.042-.03.016-.055.043-.089.043-.032 0-.083-.012-.087-.043-.006-.042.056-.085.096-.085.052-.02.118-.03.166-.003.012.005.023.019.019.032v.013z"/>
</svg>
