<svg fill="currentColor" viewBox="0 0 16 16" xmlns="http://www.w3.org/2000/svg">
  <path d="M11.987 7.56a1.3 1.3 0 0 1-.212-.51c-.08-.38-.072-.657.15-.693s.329.195.409.576c.053.256.043.491-.016.628a1.3 1.3 0 0 0-.331 0m-1.907.302a1.3 1.3 0 0 0-.615-.132c-.352.022-.658.177-.746.167-.038-.006-.053-.022-.058-.043-.014-.065.086-.174.193-.252.315-.231.728-.28 1.09-.13a.93.93 0 0 1 .41.33q.057.096.02.136c-.037.04-.135-.006-.294-.076m-.32.183c.285-.034.495.099.543.178.021.034.012.056.006.066-.022.036-.072.03-.176.018a1.3 1.3 0 0 0-.666.069s-.106.043-.152.043l-.034-.014-.016-.038c0-.042.038-.103.101-.158a.76.76 0 0 1 .394-.164m1.583.67c-.14-.068-.214-.208-.163-.311.05-.102.205-.13.345-.06.141.069.214.208.164.311-.051.102-.206.13-.346.06m.904-.79c.114.002.204.131.202.288-.003.156-.098.282-.212.28s-.204-.131-.202-.288.098-.282.212-.28m-7.67 2.828h.001c.01.012.027.039.007.083-.032.075-.16.179-.343.172-.187-.015-.397-.152-.425-.493-.014-.168.049-.373.088-.48a.45.45 0 0 0-.515-.606.46.46 0 0 0-.29.198 1 1 0 0 0-.105.247l-.011.035c-.04.108-.103.139-.147.133-.02-.003-.048-.017-.066-.065-.049-.135-.01-.515.243-.794a.76.76 0 0 1 .655-.236.78.78 0 0 1 .595.433c.172.328.019.673-.073.878l-.027.061c-.057.137-.06.256-.008.336.044.064.117.1.195.099a.4.4 0 0 0 .106-.015c.046-.01.092-.021.12.014m10.55-.624c.229 0 .588.264.588.902 0 .633-.262 1.351-.324 1.511-.946 2.27-3.204 3.535-5.893 3.455-2.507-.075-4.645-1.4-5.58-3.56-.566 0-1.15-.25-1.593-.643-.467-.415-.755-.95-.812-1.51a2.6 2.6 0 0 1 .147-1.196l-.526-.445C-1.27 6.608 6.251-1.767 8.657.336l.82.805.447-.19c2.11-.876 3.822-.453 3.824.944.001.726-.46 1.572-1.2 2.34.268.25.483.639.606 1.085.103.329.122.663.13.877.014.296.028.986.03.998l.296.082c.567.159.97.371 1.167.579s.294.407.33.643c.033.189.029.524-.221.9l.127.34c.062.2.108.366.114.39m-11.002 1.7c.879-.15 1.109-1.107.964-2.045-.163-1.061-.879-1.434-1.365-1.461a1.5 1.5 0 0 0-.365.027c-.866.174-1.356.913-1.26 1.873.088.87.965 1.601 1.777 1.623q.125.003.25-.018M3.22 7.776c.687-1.848 1.835-3.55 3.353-4.722C7.7 2.112 8.914 1.437 8.914 1.437S8.259.677 8.062.62C6.845.29 4.22 2.106 2.542 4.503c-.679.97-1.65 2.688-1.185 3.572.057.109.381.39.555.536.29-.424.767-.73 1.307-.835m8.524 3.695s-.976.455-2.528-.026c.042.365.397.528.566.594.214.084.447.122.447.122 1.924.332 3.722-.77 4.127-1.048.03-.02.05 0 .026.036l-.04.057c-.495.64-1.827 1.381-3.56 1.381-.756 0-1.512-.266-1.789-.676-.43-.636-.021-1.564.696-1.468l.314.036c.897.1 2.193-.026 3.263-.524.979-.454 1.348-.955 1.292-1.36a.58.58 0 0 0-.168-.332c-.176-.172-.455-.306-.925-.439-.155-.043-.261-.071-.375-.11-.202-.066-.301-.12-.324-.5-.01-.166-.038-.745-.049-.985-.019-.42-.069-.993-.424-1.23a.6.6 0 0 0-.304-.097c-.106-.005-.159.014-.18.017-.203.034-.323.143-.472.268-.443.37-.817.43-1.233.412-.25-.01-.513-.049-.815-.067l-.177-.01c-.696-.036-1.444.567-1.568 1.423-.174 1.192.688 1.808.937 2.17.031.043.068.104.068.162 0 .068-.045.124-.088.17-.711.733-.939 1.896-.671 2.866q.05.18.126.348c.629 1.472 2.58 2.157 4.485 1.534q.375-.123.723-.307a3.8 3.8 0 0 0 1.109-.83c.505-.529.806-1.104.923-1.813.057-.379-.027-.526-.141-.596-.121-.075-.266-.049-.266-.049s-.067-.453-.253-.865c-.556.438-1.271.747-1.815.904a7.3 7.3 0 0 1-2.427.262c-.526-.042-.874-.196-1.005.23 1.202.441 2.474.252 2.474.252a.045.045 0 0 1 .05.04.05.05 0 0 1-.029.048M6.315 4.493c-.02.024.01.059.037.04.515-.376 1.22-.724 2.145-.95 1.036-.254 2.034-.147 2.643-.007.03.007.05-.046.023-.061a3.4 3.4 0 0 0-1.459-.384.027.027 0 0 1-.02-.042q.118-.156.273-.276c.022-.016.009-.051-.018-.049-.624.038-1.336.337-1.745.617a.027.027 0 0 1-.04-.028c.03-.154.131-.357.184-.452.012-.022-.012-.046-.035-.035-.657.337-1.391.937-1.988 1.627"/>
</svg>
