<svg fill="currentColor" viewBox="0 0 23 16" xmlns="http://www.w3.org/2000/svg">
  <path d="m13.423 4.96.96-.958q.414-.416.791-.73.375-.312.75-.646.834-.708 1.376-1t1.042-.292q.709 0 1.272.521.562.522.562 1.188 0 .5-.27 1.022-.272.521-.98 1.438-3.252 4.252-3.252 5.502 0 .543.542.543.417 0 .917-.355.5-.354 1.293-1.23.416-.458 1.02-1.25t1.064-1.46q.459-.667.771-.916.313-.25.73-.25.416 0 .708.291a.97.97 0 0 1 .292.709q0 .792-.73 2.105-.729 1.314-1.896 2.689-1.46 1.75-2.98 2.71-1.523.958-2.773.958-1.167 0-1.917-.77-.75-.773-.75-1.98 0-.627.103-1.189a8 8 0 0 1 .897-2.46q.375-.687.958-1.521.042-.084.209-.334-1.084.835-2.147 2.106-1.063 1.272-2.147 3.272-.792 1.335-1.209 1.772a1.38 1.38 0 0 1-1.042.437 1.43 1.43 0 0 1-1.105-.479q-.437-.48-.437-1.188 0-.46.104-.896.103-.438.438-1.188.207-.584.541-1.272a9 9 0 0 1 .584-1.063l.792-1.376q.083-.083.25-.416a15 15 0 0 0-1.626 1.521q-.792.854-1.521 1.772-.73.917-1.292 1.855t-.938 1.813q-.5 1.168-.897 1.564-.395.395-1.021.395t-1.042-.5T0 14.132q0-1.584 1.542-5.461A37 37 0 0 1 3.44 4.586q1.02-1.875 2.022-3.21.583-.75 1-1.063T7.38 0q.54 0 .938.375.395.376.396.917 0 .417-.188.876T7.63 3.752q-.126.209-.376.646t-.625 1.105l-.458.917a90 90 0 0 1 2.188-2.543q.938-1.041 1.647-1.667.708-.625 1.271-.918.562-.291 1.022-.291.583 0 1 .396a1.3 1.3 0 0 1 .417.98q0 .375-.167.833-.167.459-.708 1.417l-.876 1.585-.333.625.5-.542q.75-.792 1.292-1.334"/>
</svg>
