<svg fill="currentColor" viewBox="0 0 31 24" xmlns="http://www.w3.org/2000/svg">
  <path d="M5.63 23.805v-1.583a.94.94 0 0 0-.99-1.002.98.98 0 0 0-.887.449.93.93 0 0 0-.833-.449.83.83 0 0 0-.739.375v-.311h-.548v2.52h.553v-1.386a.59.59 0 0 1 .618-.67c.363 0 .548.237.548.664v1.403h.554v-1.397a.593.593 0 0 1 .617-.67c.375 0 .554.237.554.664v1.403zm8.195-2.521h-.902v-.765h-.554v.765h-.5v.5h.51v1.161c0 .586.228.934.876.934.243 0 .48-.067.686-.195l-.158-.47a1 1 0 0 1-.485.142c-.264 0-.364-.168-.364-.421v-1.15h.896zm4.679-.064a.74.74 0 0 0-.665.37v-.306h-.543v2.52h.548v-1.413c0-.416.18-.649.528-.649a.9.9 0 0 1 .343.064l.169-.528a1.2 1.2 0 0 0-.39-.068zm-7.074.264a1.9 1.9 0 0 0-1.028-.264c-.638 0-1.055.306-1.055.807 0 .412.306.665.87.744l.264.037c.3.042.443.121.443.264 0 .195-.2.306-.575.306a1.34 1.34 0 0 1-.839-.264l-.263.427c.32.223.702.338 1.091.327.728 0 1.15-.343 1.15-.823s-.332-.675-.88-.754l-.264-.037c-.238-.032-.428-.08-.428-.248 0-.169.18-.295.48-.295.278.003.55.077.792.216zm14.693-.264a.74.74 0 0 0-.665.37v-.306h-.543v2.52h.549v-1.413c0-.416.18-.649.527-.649a.9.9 0 0 1 .343.064l.169-.528a1.2 1.2 0 0 0-.39-.068zm-7.068 1.319a1.274 1.274 0 0 0 1.345 1.319c.33.016.653-.09.907-.301l-.263-.443c-.19.144-.421.224-.66.227a.81.81 0 0 1 0-1.614c.239.002.47.082.66.226l.263-.443a1.32 1.32 0 0 0-.907-.3 1.274 1.274 0 0 0-1.345 1.318zm5.138 0v-1.255h-.549v.305a.96.96 0 0 0-.791-.369 1.319 1.319 0 1 0 0 2.638.96.96 0 0 0 .791-.37v.306h.549zm-2.042 0a.762.762 0 1 1 1.522.09.762.762 0 0 1-1.522-.09m-6.62-1.319a1.319 1.319 0 0 0 .037 2.638c.38.02.753-.103 1.047-.343l-.263-.406a1.2 1.2 0 0 1-.734.263.7.7 0 0 1-.754-.617h1.873v-.21c0-.792-.49-1.32-1.198-1.32zm0 .49a.625.625 0 0 1 .639.613h-1.32a.65.65 0 0 1 .67-.612zm13.744.834v-2.273h-.528v1.318a.96.96 0 0 0-.791-.369 1.319 1.319 0 1 0 0 2.638.96.96 0 0 0 .791-.37v.306h.528zm.915.894a.26.26 0 0 1 .182.071q.035.035.055.08a.245.245 0 0 1-.137.327.3.3 0 0 1-.1.02.26.26 0 0 1-.237-.152.25.25 0 0 1 .055-.275.26.26 0 0 1 .19-.07zm0 .446a.2.2 0 0 0 .137-.058.195.195 0 0 0 0-.264.2.2 0 0 0-.137-.058.2.2 0 0 0-.14.058.195.195 0 0 0 0 .264q.028.027.063.042a.2.2 0 0 0 .085.016zm.016-.314a.1.1 0 0 1 .068.021.07.07 0 0 1 .024.056.06.06 0 0 1-.018.047.1.1 0 0 1-.056.024l.077.087h-.061l-.071-.087h-.024v.087h-.05v-.232zm-.058.045v.063h.058q.016.005.031 0a.03.03 0 0 0 0-.023.03.03 0 0 0 0-.024.1.1 0 0 0-.031 0zm-2.901-1.07a.762.762 0 1 1 1.521.089.762.762 0 0 1-1.521-.09m-18.523 0v-1.261h-.548v.305a.96.96 0 0 0-.791-.369 1.319 1.319 0 1 0 0 2.638.96.96 0 0 0 .79-.37v.306h.55zm-2.04 0a.762.762 0 1 1 .764.806.757.757 0 0 1-.77-.807zm23.174-6.999v-.411h.124v-.085h-.314v.085h.134v.411zm.609 0v-.496h-.095l-.11.354-.112-.354h-.084v.496h.069v-.372l.102.323h.072l.102-.323v.376z"/>
  <path d="M14.651 17.227q.114.095.234.187A9.6 9.6 0 0 1 9.58 19C4.288 19.001 0 14.748 0 9.5 0 4.256 4.288 0 9.579 0a9.6 9.6 0 0 1 5.302 1.586c-.077.065-.155.126-.213.192a10.17 10.17 0 0 0-3.566 7.723c0 2.96 1.293 5.777 3.55 7.726M21.421 0a9.6 9.6 0 0 0-5.302 1.586c.077.065.155.126.213.192a10.17 10.17 0 0 1 3.566 7.723c0 2.959-1.293 5.774-3.55 7.726a9 9 0 0 1-.233.187A9.6 9.6 0 0 0 21.42 19c5.292.001 9.58-4.252 9.58-9.5C31 4.257 26.712 0 21.421 0M15.5 2.037A9.43 9.43 0 0 0 11.843 9.5a9.43 9.43 0 0 0 3.657 7.465q.185-.143.362-.298A9.44 9.44 0 0 0 19.157 9.5 9.43 9.43 0 0 0 15.5 2.037"/>
</svg>
