<svg fill="currentColor" viewBox="0 0 19 16" xmlns="http://www.w3.org/2000/svg">
  <path d="M12.526.02c-.096-.045-.172 0-.172.107v12.934l5.667 2.83c.28.14.51 0 .51-.318V3.123a.16.16 0 0 0-.09-.146z"/>
  <path d="M6.177 9.976 12.252.102a.213.213 0 0 1 .274-.077l5.87 2.933c.07.038.103.127.058.197l-6.1 9.906z"/>
  <path d="M.682.28C.306.09.178.23.402.593l5.775 9.383 6.177 3.092-6.139-9.976a.3.3 0 0 0-.108-.102z"/>
  <path d="M6.177 15.58c0 .312-.23.458-.51.318L.344 13.233A.68.68 0 0 1 0 12.68V.319c0-.21.153-.306.344-.21L6.1 2.988c.045.026.077.07.077.122z"/>
</svg>
