<svg fill="currentColor" aria-label="Meetup" viewBox="0 0 17 16" xmlns="http://www.w3.org/2000/svg">
  <path d="M14.43 10.277a2.987 2.987 0 0 1-3.004 2.993c-.061 0-.085.024-.105.08-.283.814-.85 1.3-1.704 1.422a1.95 1.95 0 0 1-1.529-.424c-.062-.05-.1-.05-.166-.004a2.67 2.67 0 0 1-1.76.504 2.73 2.73 0 0 1-2.513-2.275c-.013-.086-.028-.172-.03-.259 0-.071-.028-.1-.096-.113a2.4 2.4 0 0 1-1.031-.469c-.56-.439-.897-1.012-.976-1.721-.089-.812.162-1.514.733-2.098.046-.047.049-.08.017-.135a2.3 2.3 0 0 1-.306-1.239 2.35 2.35 0 0 1 1.87-2.23c.122-.026.187-.074.24-.19.525-1.13 1.405-1.818 2.627-2.044.858-.16 1.667.01 2.418.453a.21.21 0 0 0 .184.02c1.192-.346 2.25-.094 3.146.759.53.504.821 1.142.907 1.87q.032.24.016.48c-.005.06.014.086.07.107.539.199.91.57 1.071 1.119.202.683.033 1.281-.477 1.78-.045.042-.035.069-.01.112.27.464.409.964.408 1.502m-5.32-.233c0 .618.396 1.163.958 1.348.282.093.572.138.867.15.21.01.42-.005.615-.102a.37.37 0 0 0 .218-.37c-.007-.17-.083-.296-.245-.363a1 1 0 0 0-.173-.053c-.178-.032-.357-.059-.535-.094-.293-.058-.416-.213-.42-.51-.003-.262.068-.509.149-.754.147-.447.346-.874.537-1.304.184-.415.377-.827.507-1.265.071-.24.105-.481.04-.73-.099-.377-.325-.63-.714-.702-.357-.067-.712-.074-1.035.139-.107.07-.21.053-.304-.029q-.104-.095-.208-.193c-.33-.304-.764-.318-1.118-.041-.142.112-.262.25-.417.348-.138.087-.278.112-.431.03a8 8 0 0 0-.448-.215c-.153-.069-.3-.154-.473-.168a1.42 1.42 0 0 0-1.352.768 7 7 0 0 0-.276.67c-.38 1.05-.69 2.124-1.01 3.193-.144.479.025.95.43 1.208.317.201.663.251 1.021.144.29-.088.45-.322.56-.584.37-.871.703-1.757 1.055-2.635.097-.242.19-.484.293-.723.104-.241.402-.324.579-.164.108.098.136.228.126.367-.012.149-.07.286-.123.422L7.09 9.567c-.046.118-.097.234-.117.36-.036.215.05.406.226.482a.73.73 0 0 0 .554.023c.217-.079.347-.249.447-.445l1.027-2.025q.238-.468.482-.931a.73.73 0 0 1 .243-.295.29.29 0 0 1 .315-.01c.101.056.108.16.104.262a.5.5 0 0 1-.04.16c-.044.107-.085.215-.135.32-.285.6-.575 1.198-.858 1.8-.119.254-.243.51-.228.776m4.004 4.426a.74.74 0 0 0-1.482.004c-.002.4.337.738.739.739a.746.746 0 0 0 .743-.743M.699 8.366a.716.716 0 0 0 .712-.707.713.713 0 0 0-.705-.704A.7.7 0 0 0 0 7.66c0 .39.312.705.699.706M9.372.47a.7.7 0 0 0-.709.694.7.7 0 0 0 .701.703.694.694 0 0 0 .696-.695.694.694 0 0 0-.688-.702m5.73 4.367a.61.61 0 0 0-.595-.594.607.607 0 0 0-.603.602.593.593 0 0 0 .595.588.593.593 0 0 0 .604-.596M2.825 3.13c0 .3.234.536.532.536a.53.53 0 0 0 .536-.54.524.524 0 0 0-.533-.527.52.52 0 0 0-.535.53m5.59 12.39a.456.456 0 0 0-.456-.458.454.454 0 1 0-.004.91c.255 0 .458-.2.46-.453m7.14-7.11a.46.46 0 0 0-.453.452c.002.24.203.438.445.438a.43.43 0 0 0 .446-.438.445.445 0 0 0-.439-.452M4.875.028a.37.37 0 0 0-.38.376c0 .212.168.377.382.376a.37.37 0 0 0 .37-.378.367.367 0 0 0-.372-.374M16.4 6.391a.345.345 0 0 0-.335.331.336.336 0 0 0 .336.336c.185 0 .33-.143.331-.328a.334.334 0 0 0-.332-.34M3.173 12.988a.34.34 0 0 0-.333-.332.334.334 0 0 0-.331.34c.002.182.15.326.334.325a.333.333 0 0 0 .33-.333"/>
</svg>
