<svg fill="currentColor" viewBox="0 0 16 31" xmlns="http://www.w3.org/2000/svg">
  <path d="m10.234 0-.011 6.803-.012 6.802-.528-1.579v-.003L9 27.167c.67 2.008 1.03 3.08 1.034 3.084.006.006.388.03.85.055 1.4.073 3.135.231 4.45.404.305.04.567.061.583.046s.025-6.941.02-15.392L15.926 0zM0 0v15.38c0 8.459.008 15.388.017 15.398s.504-.039 1.099-.11c.594-.07 1.416-.158 1.826-.194a92 92 0 0 1 2.722-.186c.063 0 .067-.346.076-6.514l.01-6.514.454 1.361.16.481.683-15.14-.235-.702L5.761.11 5.723 0z"/>
  <path d="M0 0v8.633l5.738 16.133.002-.992.01-6.514.454 1.361a3927 3927 0 0 0 3.893 11.65c.005.006.387.03.85.055 1.4.074 3.134.231 4.45.405.304.04.567.06.582.045.011-.01.018-3.406.02-8.197L10.288 5.176l-.003 1.647-.011 6.802-.528-1.579A15034 15034 0 0 1 5.76.111L5.723 0z"/>
  <path d="M5.75 17.268v-.008l.454 1.361a3927 3927 0 0 0 3.892 11.65c.006.006.388.03.85.055 1.4.074 3.135.231 4.45.405.304.04.47.014.488 0l-5.61-17.109v.003l-.529-1.579A15034 15034 0 0 1 5.761.111L5.723 0H0z"/>
  <path d="m10.223 6.803-.012 6.802-.528-1.579v-.003L9 27c.67 2.008 1.211 3.251 1.034 3.251s.388.03.85.055c1.4.073 3.135.231 4.45.404.305.04.567.061.583.046s.025-6.941.02-15.392L15.926 0h-5.693zM0 0v15.38c0 8.459.008 15.388.017 15.398s.504-.039 1.099-.11c.594-.07 1.416-.158 1.826-.194a92 92 0 0 1 2.722-.186c.063 0 .067-.346.076-6.514l.01-6.514.454 1.361.16.481.683-15.14-.235-.702L5.761.11 5.723 0z"/>
  <path d="m0 8.633 5.738 16.133.002-.992.01-6.514.454 1.361a3927 3927 0 0 0 3.893 11.65c.005.006.387.03.85.055 1.4.074 3.134.231 4.45.405.304.04.471.045.487.03.01-.01.113-3.391.115-8.182L10.288 5.176l-.003 1.647-.011 6.802-.528-1.579A15034 15034 0 0 1 5.76.111L5.723 0H0z"/>
  <path d="M5.75 17.268v-.008l.454 1.361C8.73 26.2 9.992 30.291 10 30.3c.005.006.484.002.946.026 1.4.074 3.135.231 4.45.405.304.04.47.014.488 0l-5.61-17.109v.003l-.529-1.579A15034 15034 0 0 1 5.761.111L5.723 0H0z"/>
</svg>
