<svg fill="currentColor" viewBox="0 0 16 16" xmlns="http://www.w3.org/2000/svg">
  <path d="m11.596 5.552-.006-.002-.01-.006a.05.05 0 0 1-.011-.038l.322-1.972 1.515 1.513-1.575.669-.014.002h-.006l-.008-.007a.7.7 0 0 0-.207-.159m2.196-.12 1.62 1.618c.336.336.504.504.565.698q.014.043.023.087l-3.87-1.637-.006-.002c-.015-.006-.033-.013-.033-.03 0-.015.018-.023.034-.029l.005-.002zm2.142 2.922c-.084.157-.246.32-.522.596l-1.826 1.823-2.36-.491-.013-.003c-.021-.003-.043-.007-.043-.025a.7.7 0 0 0-.274-.498c-.01-.01-.007-.025-.004-.039v-.006l.445-2.723.001-.009c.003-.02.007-.045.025-.045a.72.72 0 0 0 .485-.277q.005-.008.011-.012c.014-.006.03 0 .043.006zm-2.768 2.838-3.001 2.999.513-3.155.001-.004.003-.012c.004-.01.015-.014.025-.018l.005-.002a.8.8 0 0 0 .29-.216q.015-.02.038-.025h.012zM9.53 14.826l-.338.338-3.741-5.4-.004-.007q-.01-.011-.011-.025 0-.01.009-.017l.004-.006.032-.05.008-.016h.001q.008-.016.021-.026.015-.005.031 0l4.144.854a.1.1 0 0 1 .032.013q.008.009.008.018a.73.73 0 0 0 .43.49c.011.006.006.02 0 .033l-.005.019c-.053.317-.5 3.045-.62 3.782m-.707.705c-.25.247-.396.378-.562.43a.84.84 0 0 1-.504 0c-.195-.062-.363-.23-.7-.566L3.3 11.643l.981-1.52.017-.02c.01-.008.025-.004.038 0 .225.068.467.056.684-.035.011-.004.023-.007.031.001l.012.013zm-5.884-4.25-.862-.861 1.702-.725.013-.003c.015 0 .023.014.03.027l.055.077.005.006q.006.012-.003.021zm-1.244-1.242L.604 8.95a6 6 0 0 1-.414-.434l3.316.687.012.002c.02.003.043.007.043.026 0 .02-.024.03-.045.038l-.01.005zM0 7.955a.8.8 0 0 1 .038-.207c.061-.194.23-.362.566-.698L2 5.656q.964 1.397 1.933 2.79c.011.015.024.032.01.045-.06.067-.121.14-.164.22a.1.1 0 0 1-.021.026q-.009.004-.018 0zm2.373-2.672 1.876-1.874c.176.077.818.348 1.392.59.434.183.83.35.955.405q.02.006.029.022.004.013 0 .025a.84.84 0 0 0 .218.763c.013.013 0 .03-.01.046l-.006.009-1.905 2.947-.018.02c-.01.007-.024.004-.036.001a1 1 0 0 0-.227-.03 1.3 1.3 0 0 0-.218.026c-.009 0-.016.003-.023-.002a.1.1 0 0 1-.019-.022zM4.628 3.03 7.057.604C7.393.268 7.56.1 7.756.04a.84.84 0 0 1 .504 0c.194.061.363.23.699.565l.526.526-1.727 2.672-.017.02q-.017.009-.038 0a.88.88 0 0 0-.802.155c-.011.011-.028.005-.042-.002-.226-.098-1.98-.838-2.231-.945m5.224-1.534 1.595 1.594-.384 2.377v.007q0 .008-.004.015c-.004.009-.012.01-.02.013a.8.8 0 0 0-.255.131q-.01 0-.017-.003L8.337 4.6l-.006-.002c-.015-.006-.033-.014-.033-.03a.9.9 0 0 0-.13-.382c-.012-.019-.025-.039-.014-.058zM8.21 5.088l2.279.963c.012.006.026.012.032.025a.04.04 0 0 1 0 .023.6.6 0 0 0-.013.11v.064c0 .016-.016.023-.031.029l-.005.002c-.36.154-5.067 2.158-5.074 2.158q-.011.002-.022-.007c-.012-.012 0-.03.011-.046l.006-.008 1.873-2.896.003-.005c.01-.018.023-.037.043-.037l.02.003q.062.009.117.01a.85.85 0 0 0 .706-.373l.015-.017c.01-.008.028-.004.04.002M5.6 8.92l5.13-2.185s.008 0 .015.007a1 1 0 0 0 .075.064l.01.007c.011.006.022.013.023.024l-.001.01-.44 2.697-.001.01c-.003.021-.006.045-.026.045a.72.72 0 0 0-.573.354l-.003.003q-.006.016-.02.024-.015.005-.03 0l-4.09-.843c-.005 0-.064-.216-.069-.217"/>
</svg>
