<svg fill="currentColor" viewBox="0 0 14 17" xmlns="http://www.w3.org/2000/svg">
  <path d="M11.537 1.249C10.797.405 9.46.043 7.747.043H2.779a.71.71 0 0 0-.703.6L.007 13.763a.427.427 0 0 0 .422.494h3.067l.77-4.887-.024.154a.71.71 0 0 1 .7-.6H6.4c2.863 0 5.105-1.164 5.76-4.528q.03-.15.051-.29-.124-.067 0 0c.195-1.244-.001-2.09-.674-2.857"/>
  <path d="M5.44 3.657a.6.6 0 0 1 .268-.06h3.895q.694 0 1.285.093a5.4 5.4 0 0 1 .784.187q.291.097.539.228c.195-1.244-.001-2.09-.674-2.856C10.797.405 9.46.043 7.747.043H2.778a.71.71 0 0 0-.702.6L.007 13.763c-.04.26.16.493.421.493h3.068L5.094 4.121a.62.62 0 0 1 .346-.464"/>
  <path d="M12.16 4.396C11.505 7.76 9.263 8.923 6.4 8.923H4.942a.71.71 0 0 0-.7.6L3.284 15.6a.373.373 0 0 0 .368.431h2.586a.62.62 0 0 0 .614-.525l.025-.131.488-3.089.031-.17a.62.62 0 0 1 .614-.525h.387c2.505 0 4.466-1.018 5.04-3.96.239-1.23.115-2.258-.518-2.979a2.5 2.5 0 0 0-.708-.546 8 8 0 0 1-.05.291"/>
  <path d="M11.526 3.832a5 5 0 0 0-.638-.142 8 8 0 0 0-1.285-.093H5.71a.62.62 0 0 0-.614.525l-.83 5.248-.024.154c.054-.346.35-.6.7-.6H6.4c2.864 0 5.106-1.164 5.76-4.528q.03-.15.051-.29a3.5 3.5 0 0 0-.685-.274"/>
</svg>
