<svg fill="currentColor" viewBox="0 0 16 16" xmlns="http://www.w3.org/2000/svg">
  <path d="M.667.667h14.666v14.266H.667zM0 15.6h16V0H0zm10.787-9.2c-.527 0-.707.267-.707.487 0 .24.12.406.827.773 1.046.507 1.373.993 1.373 1.707 0 1.066-.813 1.64-1.913 1.64-.58 0-1.08-.12-1.367-.287-.047-.02-.053-.053-.053-.107v-.98c0-.066.033-.086.08-.053.42.273.9.393 1.34.393.526 0 .746-.22.746-.52 0-.24-.153-.453-.826-.8-.947-.453-1.34-.913-1.34-1.68 0-.86.673-1.573 1.84-1.573.573 0 .973.087 1.193.187.053.033.067.086.067.133v.913c0 .054-.034.087-.1.067-.294-.187-.727-.3-1.16-.3m-5.734.793c.154.014.274.014.54.014.78 0 1.514-.274 1.514-1.334 0-.846-.527-1.273-1.414-1.273-.266 0-.52.013-.64.02zm-1.186-3.54c0-.046.093-.08.146-.08.427-.02 1.06-.033 1.72-.033C7.58 3.54 8.3 4.553 8.3 5.847c0 1.693-1.227 2.42-2.733 2.42-.254 0-.34-.014-.52-.014v2.56c0 .054-.02.08-.08.08h-1.02c-.054 0-.08-.02-.08-.08z"/>
</svg>
