<svg fill="currentColor" viewBox="0 0 16 16" xmlns="http://www.w3.org/2000/svg">
  <path d="M0 7.969a7.97 7.97 0 0 0 4.77 7.299c-.022-.557-.004-1.225.139-1.83l1.025-4.342s-.254-.51-.254-1.261c0-1.181.684-2.063 1.536-2.063.725 0 1.075.544 1.075 1.196 0 .729-.464 1.819-.703 2.828-.2.846.424 1.535 1.258 1.535 1.51 0 2.526-1.939 2.526-4.237 0-1.746-1.176-3.053-3.316-3.053-2.417 0-3.923 1.802-3.923 3.816 0 .694.205 1.184.525 1.563.148.174.168.244.115.444l-.162.64c-.053.201-.217.274-.4.199-1.113-.455-1.631-1.674-1.631-3.044 0-2.264 1.909-4.979 5.695-4.979 3.043 0 5.045 2.202 5.045 4.565 0 3.126-1.738 5.462-4.3 5.462-.86 0-1.67-.465-1.947-.993 0 0-.462 1.836-.56 2.19-.17.615-.5 1.229-.802 1.707A7.97 7.97 0 1 0 0 7.97"/>
</svg>
