<svg fill="currentColor" viewBox="0 0 16 16" xmlns="http://www.w3.org/2000/svg">
  <path d="M.667.687h14.666v14.266H.667zM0 15.62h16V.02H0zm9.6-9.013c0-.08 0-.274-.033-.647 0-.053.006-.067.053-.087a6.9 6.9 0 0 1 2.44-.46c.053 0 .08.014.08.067v.967c0 .053-.02.066-.073.066-.42-.02-1.027.034-1.26.134v4.2c0 .053-.02.08-.08.08H9.68c-.053 0-.08-.02-.08-.08zm-4.267.606c.154.014.274.014.54.014.78 0 1.514-.274 1.514-1.334 0-.846-.52-1.273-1.414-1.273-.266 0-.52.013-.64.02zm-1.18-3.54c0-.046.014-.08.067-.08.427-.02 1.053-.033 1.713-.033 1.847 0 2.654 1.013 2.654 2.313 0 1.694-1.227 2.42-2.734 2.42-.253 0-.34-.013-.52-.013v2.56c0 .053-.02.08-.08.08H4.227c-.054 0-.08-.02-.08-.08V3.673z"/>
</svg>
