<svg fill="currentColor" viewBox="0 0 16 16" xmlns="http://www.w3.org/2000/svg">
  <path d="M8.214 12.45c-.553-1.088-1.202-2.188-2.468-2.188-.242 0-.484.04-.706.141l-.43-.86c.524-.45 1.371-.807 2.46-.807 1.693 0 2.562.816 3.252 1.857.41-.889.605-2.09.605-3.577 0-3.716-1.163-5.625-3.877-5.625-2.675 0-3.831 1.909-3.831 5.625 0 3.696 1.156 5.585 3.83 5.585.426 0 .811-.047 1.165-.15m.663 1.298a7 7 0 0 1-1.827.244C3.488 13.992 0 11.149 0 7.016 0 2.843 3.488 0 7.05 0c3.622 0 7.076 2.822 7.076 7.016 0 2.332-1.089 4.228-2.67 5.453.51.765 1.037 1.274 1.77 1.274.8 0 1.122-.618 1.175-1.103h1.042c.06.646-.262 3.327-3.172 3.327-1.763 0-2.695-1.021-3.394-2.22"/>
</svg>
