<svg fill="currentColor" viewBox="0 0 18 16" xmlns="http://www.w3.org/2000/svg">
  <path d="M14.77 5.18q-.28-.096-.578-.182.05-.2.09-.394c.438-2.125.151-3.837-.826-4.4-.937-.541-2.47.022-4.018 1.37q-.223.195-.447.41-.15-.143-.298-.275C7.071.27 5.445-.338 4.468.227c-.936.542-1.213 2.151-.82 4.165q.058.292.134.595-.346.098-.665.21C1.215 5.858 0 6.898 0 7.976c0 1.113 1.304 2.23 3.285 2.907q.235.08.486.152-.082.327-.141.641c-.376 1.979-.083 3.55.851 4.089.965.556 2.583-.016 4.16-1.393q.187-.165.375-.346.243.234.485.443c1.527 1.314 3.035 1.845 3.968 1.304.964-.557 1.277-2.245.87-4.299a10 10 0 0 0-.108-.48q.172-.051.334-.105c2.06-.682 3.4-1.785 3.4-2.913 0-1.082-1.254-2.128-3.194-2.796m-.446 4.982q-.147.049-.302.094a18 18 0 0 0-.91-2.276c.359-.771.654-1.527.875-2.242q.276.08.534.168c1.662.573 2.676 1.419 2.676 2.07 0 .695-1.095 1.597-2.873 2.186m-.738 1.462c.18.908.206 1.73.087 2.371-.107.577-.323.961-.589 1.115-.566.328-1.777-.098-3.082-1.222q-.225-.193-.452-.411a18 18 0 0 0 1.506-1.913 18 18 0 0 0 2.433-.375q.056.222.097.435m-7.461 3.43c-.553.195-.994.2-1.26.047-.567-.327-.803-1.588-.481-3.28q.055-.292.13-.597c.737.163 1.551.28 2.422.35.497.7 1.017 1.343 1.542 1.905a10 10 0 0 1-.342.316c-.697.609-1.396 1.041-2.011 1.259m-2.592-4.896c-.876-.3-1.6-.689-2.095-1.113-.446-.382-.67-.76-.67-1.068 0-.654.975-1.489 2.601-2.056q.297-.103.619-.195c.224.732.52 1.496.875 2.27-.36.784-.66 1.56-.886 2.3q-.23-.065-.444-.138m.869-5.913c-.338-1.726-.113-3.027.45-3.354.602-.348 1.93.148 3.332 1.392q.133.12.27.249a18 18 0 0 0-1.531 1.894c-.845.078-1.654.204-2.398.372a11 11 0 0 1-.123-.553m7.75 1.913q-.268-.461-.547-.898c.573.072 1.122.168 1.638.286a16 16 0 0 1-.575 1.547q-.244-.464-.517-.935M8.99 3.08c.354.384.709.812 1.057 1.277a23 23 0 0 0-2.123-.001Q8.45 3.664 8.99 3.08M5.81 6.164q-.267.462-.507.929a17 17 0 0 1-.571-1.555 18 18 0 0 1 1.628-.28q-.282.443-.55.905m.567 4.586a16 16 0 0 1-1.656-.266 17 17 0 0 1 .582-1.586q.242.465.51.93.273.47.564.922m2.634 2.177a17 17 0 0 1-1.08-1.293 27 27 0 0 0 2.135-.004q-.526.715-1.055 1.297m3.663-4.057c.24.547.443 1.077.604 1.58-.521.12-1.084.215-1.676.286a27 27 0 0 0 1.072-1.866m-1.186.568q-.421.732-.861 1.39-.801.059-1.646.059-.84 0-1.626-.052-.46-.668-.878-1.392T5.71 7.995q.349-.726.765-1.448.417-.723.87-1.387.805-.06 1.636-.061.837 0 1.64.062.445.658.865 1.382.423.73.774 1.441-.35.723-.772 1.454m1.584-8.57c.601.347.835 1.746.457 3.581q-.036.176-.08.357a18.5 18.5 0 0 0-2.403-.38A18 18 0 0 0 9.53 2.532q.207-.199.413-.378C11.268.998 12.508.543 13.072.868m-4.09 5.504a1.604 1.604 0 1 1 0 3.209 1.604 1.604 0 0 1 0-3.209"/>
</svg>
