<svg fill="currentColor" viewBox="0 0 16 16" xmlns="http://www.w3.org/2000/svg">
  <path fill-rule="evenodd" d="M8 16A8 8 0 1 0 8 0a8 8 0 0 0 0 16m5.31-7.915a1.17 1.17 0 0 0-1.166-1.175c-.317 0-.597.122-.803.329-.793-.573-1.894-.95-3.108-.996l.532-2.509 1.727.367a.834.834 0 0 0 .83.798.835.835 0 0 0 0-1.672.81.81 0 0 0-.737.47l-1.932-.414a.23.23 0 0 0-.158.028.23.23 0 0 0-.094.132l-.588 2.8c-1.241.038-2.352.404-3.154.996a1.17 1.17 0 0 0-.803-.329c-.644 0-1.167.526-1.167 1.175 0 .479.28.883.69 1.07a2 2 0 0 0-.027.358c0 1.804 2.081 3.26 4.657 3.26s4.658-1.456 4.658-3.26c0-.122-.01-.235-.028-.348.383-.188.672-.601.672-1.08m-7.98.836c0-.46.374-.836.831-.836a.835.835 0 0 1 0 1.672.835.835 0 0 1-.83-.836m4.64 2.208c-.57.573-1.653.61-1.97.61s-1.41-.046-1.97-.61a.22.22 0 0 1 0-.31.22.22 0 0 1 .309 0c.354.357 1.12.488 1.67.488.551 0 1.307-.131 1.671-.488a.22.22 0 0 1 .308 0 .24.24 0 0 1-.019.31m-.15-1.372a.835.835 0 0 1-.83-.836c0-.46.373-.836.83-.836s.83.375.83.836-.373.836-.83.836"/>
</svg>
