<svg fill="currentColor" viewBox="0 0 22 16" xmlns="http://www.w3.org/2000/svg">
  <path d="M18.357 9.21a4.4 4.4 0 0 0-1.928.446c-.198-.392-.396-.742-.43-.998-.04-.3-.086-.482-.04-.84.047-.357.257-.866.253-.905s-.047-.222-.474-.225c-.428-.004-.797.081-.84.194s-.124.369-.178.633c-.074.389-.855 1.776-1.302 2.503-.144-.284-.268-.533-.295-.73-.04-.3-.086-.483-.04-.84.047-.358.257-.867.253-.906-.004-.038-.046-.221-.474-.225-.427-.004-.796.082-.84.194-.042.113-.089.377-.178.634-.09.256-1.127 2.572-1.399 3.17-.14.308-.26.552-.346.72l-.015.03c-.074.144-.117.222-.117.222v.004c-.058.105-.12.202-.151.202-.024 0-.066-.28.007-.66.156-.805.525-2.056.521-2.099 0-.023.07-.24-.24-.354-.304-.112-.413.074-.44.074s-.047.066-.047.066.339-1.406-.645-1.406c-.614 0-1.46.672-1.88 1.278a332 332 0 0 0-2.118 1.158c-.016-.015-.031-.035-.047-.05C3.738 9.229 1.54 8.33 1.632 6.625c.035-.621.249-2.253 4.224-4.235 3.272-1.613 5.875-1.166 6.326-.175.645 1.414-1.395 4.041-4.776 4.422-1.29.144-1.966-.354-2.137-.54-.179-.194-.206-.206-.272-.167-.109.058-.039.233 0 .334.101.264.517.73 1.22.96.622.202 2.134.315 3.964-.393 2.048-.792 3.649-2.996 3.179-4.841C12.89.117 9.78-.501 6.84.544c-1.75.622-3.646 1.601-5.01 2.876C.21 4.935-.047 6.252.058 6.804c.377 1.959 3.078 3.233 4.158 4.177q-.082.048-.148.082c-.54.268-2.6 1.345-3.112 2.483-.583 1.29.093 2.215.54 2.34 1.387.384 2.813-.308 3.579-1.45.765-1.142.672-2.627.319-3.307q-.005-.011-.016-.023l.424-.249c.275-.163.547-.315.78-.439-.131.361-.229.793-.275 1.414-.059.731.24 1.68.633 2.052.175.163.38.167.513.167.459 0 .665-.38.894-.831.28-.552.532-1.193.532-1.193s-.315 1.733.54 1.733c.311 0 .626-.404.766-.61v.004l.023-.04.05-.08v-.009c.125-.217.405-.71.82-1.53a32 32 0 0 0 1.054-2.379s.046.323.206.859c.093.315.287.66.443.995a7 7 0 0 1-.202.272l.003.004c-.1.132-.21.276-.33.415-.423.506-.929 1.085-.999 1.252-.081.198-.062.342.094.458.112.086.314.097.52.086.381-.027.65-.12.781-.179.206-.074.447-.187.673-.354.415-.307.668-.746.645-1.325-.012-.318-.117-.637-.245-.936l.113-.163c.656-.96 1.165-2.013 1.165-2.013s.047.322.206.858c.078.272.237.568.377.855-.618.502-.998 1.085-1.134 1.465-.245.708-.055 1.026.307 1.1.163.035.396-.043.567-.117.218-.07.474-.19.719-.369.416-.307.816-.734.793-1.313a2.5 2.5 0 0 0-.18-.777c.525-.218 1.201-.338 2.064-.237 1.85.217 2.215 1.371 2.145 1.857s-.458.75-.587.832-.17.108-.159.167c.016.085.078.081.187.066.151-.027.971-.393 1.006-1.286.058-1.143-1.03-2.39-2.953-2.379m-14.27 4.81c-.613.669-1.468.921-1.837.707-.396-.229-.241-1.216.513-1.923.458-.431 1.049-.832 1.441-1.076l.381-.23.043-.023.093-.058c.276 1.01.012 1.9-.633 2.603m4.47-3.039c-.214.521-.66 1.854-.933 1.78-.233-.062-.377-1.072-.047-2.071.168-.501.521-1.1.727-1.333.334-.373.703-.497.793-.346.112.198-.408 1.644-.54 1.97m3.687 1.765c-.09.046-.175.077-.213.054-.028-.016.038-.078.038-.078s.463-.497.646-.722c.104-.133.229-.288.36-.463v.05c0 .595-.574.995-.83 1.159m2.845-.65c-.066-.046-.055-.201.167-.687a2.6 2.6 0 0 1 .633-.816 1.1 1.1 0 0 1 .062.357c-.003.75-.54 1.03-.862 1.147"/>
</svg>
