<svg fill="currentColor" viewBox="0 0 14 16" xmlns="http://www.w3.org/2000/svg">
  <path d="M12.262 3.142c.01.08 1.737 11.754 1.737 11.754L9.08 15.96l-9.078-1.7s1.165-9.01 1.21-9.328c.058-.42.072-.434.517-.573l1.437-.446C3.473 2.61 4.454.043 6.506.043c.269 0 .58.144.83.475l.075-.002c.88 0 1.382.75 1.666 1.567l.475-.147c.07-.02.253-.049.346.044l.943.937s1.224.09 1.282.096a.155.155 0 0 1 .139.129m-3.687-.904c-.195-.594-.497-1.11-.951-1.168.113.324.183.733.183 1.24v.166zM7.06 1.171c-.5.214-1.073.784-1.378 1.963l1.586-.491v-.09c0-.612-.081-1.066-.208-1.382M6.45.593C4.976.593 4.148 2.53 3.8 3.717l1.254-.388C5.35 1.772 6.056.992 6.713.682A.46.46 0 0 0 6.45.593m.96 5.138S7 5.493 6.17 5.493c-2.153 0-3.22 1.439-3.22 2.925 0 1.766 1.762 1.814 1.762 2.889a.61.61 0 0 1-.635.615c-.691 0-1.51-.703-1.51-.703l-.418 1.379s.797.97 2.355.97c1.299 0 2.262-.978 2.262-2.497 0-1.93-2.148-2.245-2.148-3.07 0-.15.048-.75 1.003-.75a2.8 2.8 0 0 1 1.183.284z"/>
</svg>
