<svg fill="currentColor" viewBox="0 0 16 16" xmlns="http://www.w3.org/2000/svg">
  <path d="m15.434 9.313-.014.085-.028-.161q.022.037.042.076c.082-.45.126-.91.126-1.37a7.52 7.52 0 0 0-2.214-5.342A7.53 7.53 0 0 0 8.004.39c-.48 0-.962.045-1.43.135H6.57l.08.041L6.49.54l.08-.016A4.5 4.5 0 0 0 4.473 0 4.44 4.44 0 0 0 1.31 1.31a4.47 4.47 0 0 0-.747 5.331l.013-.082.028.158-.041-.076a7.6 7.6 0 0 0-.114 1.303 7.52 7.52 0 0 0 2.213 5.342 7.5 7.5 0 0 0 2.402 1.619c.93.394 1.92.594 2.94.594.444 0 .89-.04 1.324-.117q-.04-.02-.077-.042l.161.028-.084.014a4.47 4.47 0 0 0 5.362-.73 4.47 4.47 0 0 0 .744-5.339m-7.4 3.258c-2.684 0-3.884-1.32-3.884-2.309 0-.507.374-.863.89-.863 1.149 0 .851 1.65 2.995 1.65 1.097 0 1.703-.596 1.703-1.206 0-.366-.181-.773-.904-.951l-2.387-.596c-1.923-.482-2.272-1.521-2.272-2.499 0-2.028 1.91-2.79 3.704-2.79 1.652 0 3.6.913 3.6 2.13 0 .522-.451.825-.967.825-.98 0-.8-1.357-2.775-1.357-.98 0-1.522.444-1.522 1.079 0 .634.773.836 1.445.99l1.767.391c1.936.432 2.427 1.562 2.427 2.626 0 1.649-1.266 2.88-3.82 2.88m1.217 2.775.077.067.084-.022zm6.192-5.948.022-.085-.066-.076zM.59 6.559l-.022.082q.033.04.066.076zM6.649.596 6.57.531l-.08.025z"/>
</svg>
