<svg fill="currentColor" viewBox="0 0 20 20" xmlns="http://www.w3.org/2000/svg">
  <path d="m15.06 11.244-1.245.417.432 1.288a.996.996 0 0 1-.977 1.31 1.01 1.01 0 0 1-.924-.68l-.432-1.285-2.568.858.432 1.286a1 1 0 0 1-.984 1.312 1.01 1.01 0 0 1-.924-.68l-.432-1.296-1.248.42a1.015 1.015 0 0 1-1.272-.635.99.99 0 0 1 .624-1.26l1.248-.42L6 9.407l-1.24.42A1 1 0 0 1 3.505 9.2a1 1 0 0 1 .636-1.26l1.248-.415-.432-1.284a1 1 0 0 1 .637-1.26.99.99 0 0 1 1.259.626l.431 1.286 2.556-.859-.432-1.284a1.005 1.005 0 0 1 .631-1.259 1 1 0 0 1 1.26.633l.432 1.297 1.244-.408a1 1 0 0 1 1.26.623.995.995 0 0 1-.627 1.26l-1.246.419.828 2.469 1.241-.413a1 1 0 0 1 1.26.636.99.99 0 0 1-.623 1.26zm3.336-4.285C16.416.365 13.556-1.177 6.959.804.365 2.784-1.177 5.641.804 12.241c1.98 6.596 4.837 8.136 11.437 6.155 6.596-1.98 8.136-4.837 6.155-11.437M7.903 8.796l.828 2.468 2.564-.86-.828-2.458-2.564.864z"/>
</svg>
