<svg fill="currentColor" viewBox="0 0 18 18" xmlns="http://www.w3.org/2000/svg">
  <path d="M0 13.422c.01.4.014.802.082 1.2.071.42.173.829.368 1.21q.397.774 1.083 1.308c.328.256.686.459 1.083.587a5.9 5.9 0 0 0 1.78.261c.378.003.755.012 1.133.01 2.744-.011 5.488.02 8.233-.017a6.5 6.5 0 0 0 1.08-.114 3.66 3.66 0 0 0 1.808-.88 3.75 3.75 0 0 0 1.194-1.99c.12-.52.15-1.047.156-1.575v-.106l-.017-9.103a5.5 5.5 0 0 0-.089-.967c-.074-.39-.179-.769-.365-1.121a3.9 3.9 0 0 0-.75-1 3.7 3.7 0 0 0-1.635-.932c-.567-.151-1.146-.185-1.73-.184L13.412 0H4.586v.009c-.332.006-.663.003-.992.044a4.8 4.8 0 0 0-1.06.239 3.7 3.7 0 0 0-1.404.921 3.7 3.7 0 0 0-.94 1.64C.04 3.416.007 3.99.006 4.567zm9.082 1.785-.099-.003-.065.003c-.776 0-1.295-.372-1.753-.701-.328-.235-.638-.457-1-.518a3 3 0 0 0-.527-.046c-.308 0-.552.049-.73.084a1.6 1.6 0 0 1-.277.04c-.077 0-.17-.017-.208-.15q-.044-.16-.074-.308c-.053-.246-.092-.397-.183-.411-.973-.152-1.548-.377-1.663-.649a.3.3 0 0 1-.02-.085.16.16 0 0 1 .13-.166c.774-.129 1.461-.543 2.044-1.232a4.7 4.7 0 0 0 .7-1.106q.168-.349.067-.594c-.126-.3-.541-.434-.816-.522a3 3 0 0 1-.185-.064c-.243-.097-.644-.304-.59-.588.038-.208.31-.352.528-.352q.09 0 .16.032c.247.118.47.177.66.177.238 0 .353-.092.381-.118l-.023-.395c-.056-.901-.126-2.022.157-2.665.846-1.925 2.64-2.074 3.17-2.074l.262-.003c.531 0 2.33.15 3.176 2.076.283.643.213 1.765.157 2.667l-.002.043-.021.35c.026.025.131.11.345.118q.275-.01.623-.176a.5.5 0 0 1 .203-.04.6.6 0 0 1 .233.044l.003.002c.196.07.324.211.327.36.003.137-.099.343-.596.542a3 3 0 0 1-.184.064c-.275.088-.69.222-.816.522q-.102.245.067.593l.003.008c.035.082.872 2.019 2.74 2.331a.16.16 0 0 1 .131.166.3.3 0 0 1-.02.086c-.114.27-.69.494-1.663.647-.092.014-.13.164-.183.41q-.031.149-.074.304-.041.148-.193.147h-.015q-.1 0-.277-.036a3.6 3.6 0 0 0-.73-.078q-.257 0-.527.045c-.362.06-.671.283-.999.518-.459.329-.978.7-1.754.7"/>
  <path d="M9.131 3.11c.512 0 2.273.136 3.103 1.98.274.608.204 1.708.147 2.592l-.024.406-.003.056.038.041c.015.017.157.164.473.176h.01q.316-.012.7-.19a.46.46 0 0 1 .318.007l.008.003c.134.047.23.134.23.214.001.045-.033.206-.508.392a3 3 0 0 1-.178.06c-.31.097-.776.244-.933.611q-.133.312.072.725c.056.13.938 2.1 2.924 2.424q-.001.017-.008.032c-.034.078-.248.35-1.58.553-.207.032-.258.263-.318.532a4 4 0 0 1-.073.294c-.009.03-.01.032-.043.032h-.016a1.5 1.5 0 0 1-.252-.032 4 4 0 0 0-.778-.081q-.278 0-.565.047c-.407.067-.739.3-1.09.545-.47.33-.958.672-1.7.672l-.097-.003h-.016l-.056.003c-.743 0-1.23-.342-1.7-.672-.352-.246-.683-.478-1.09-.545a3.5 3.5 0 0 0-.565-.047c-.33 0-.589.05-.778.086-.104.02-.194.038-.252.038-.049 0-.05-.003-.06-.038-.03-.1-.051-.2-.073-.296-.059-.27-.11-.502-.318-.533-1.331-.204-1.545-.476-1.579-.554a.1.1 0 0 1-.008-.033c1.985-.324 2.868-2.294 2.924-2.424q.204-.413.072-.725c-.157-.367-.624-.514-.933-.61a3 3 0 0 1-.179-.06c-.401-.158-.524-.316-.506-.412.021-.11.215-.223.383-.223q.059 0 .096.018c.274.127.525.191.744.191.345 0 .499-.159.515-.177l.038-.041-.003-.056q-.011-.195-.025-.405c-.056-.884-.126-1.984.147-2.591.827-1.838 2.58-1.98 3.097-1.98l.238-.002zm0-.317h-.034l-.234.003c-.304 0-.91.042-1.562.327a3.5 3.5 0 0 0-.995.654 3.7 3.7 0 0 0-.832 1.186c-.306.678-.233 1.82-.175 2.738v.001l.019.301a.5.5 0 0 1-.224.042q-.26 0-.609-.162a.55.55 0 0 0-.231-.047.8.8 0 0 0-.41.114.56.56 0 0 0-.288.367c-.018.095-.017.284.195.476q.175.159.508.29.089.032.2.066c.253.08.635.2.735.433q.075.178-.064.461l-.008.015c-.023.054-.24.543-.687 1.058a4 4 0 0 1-.83.728 3.1 3.1 0 0 1-1.165.45.32.32 0 0 0-.267.331.4.4 0 0 0 .033.138v.001c.066.151.217.28.463.393.3.138.75.255 1.335.346.03.055.06.196.081.291.023.102.046.207.079.319a.35.35 0 0 0 .366.265c.09 0 .194-.02.314-.044a3.6 3.6 0 0 1 .717-.08q.25 0 .512.043c.335.055.623.257.957.49.488.343 1.041.73 1.886.73l.069-.002.1.002c.844 0 1.397-.387 1.885-.73.334-.233.623-.435.957-.49q.262-.043.512-.043c.287 0 .514.036.717.075q.197.039.314.038h.016a.345.345 0 0 0 .35-.26c.033-.109.056-.211.079-.315.02-.09.051-.234.08-.29.587-.092 1.036-.208 1.336-.346.246-.113.397-.241.462-.392a.4.4 0 0 0 .034-.14.32.32 0 0 0-.267-.33c-1.826-.298-2.648-2.157-2.682-2.236l-.008-.015q-.14-.283-.064-.461c.1-.233.482-.353.735-.433q.111-.034.2-.067c.25-.097.427-.203.545-.323a.5.5 0 0 0 .165-.37c-.004-.218-.171-.41-.438-.505a.8.8 0 0 0-.297-.057.7.7 0 0 0-.276.056 1.6 1.6 0 0 1-.57.161.5.5 0 0 1-.188-.041l.016-.263.003-.038c.058-.919.13-2.062-.174-2.74a3.7 3.7 0 0 0-.836-1.19 3.5 3.5 0 0 0-1-.654 4 4 0 0 0-1.56-.325"/>
</svg>
