<svg fill="currentColor" viewBox="0 0 29 13" xmlns="http://www.w3.org/2000/svg">
  <path d="m12.135 8.991-.165 2.89c0 .188-.143.33-.33.33a.33.33 0 0 1-.33-.33l-.154-2.89.154-6.012c0-.187.143-.33.33-.33a.33.33 0 0 1 .33.33zm-1.187 0-.187 2.902a.307.307 0 1 1-.616 0L9.98 8.98l.165-6.232a.307.307 0 1 1 .616 0zm-2.561-6.2.22 6.178-.22 2.957c-.011.154-.121.264-.264.264a.26.26 0 0 1-.264-.253L7.672 8.98l.187-6.188c.01-.154.12-.264.264-.264.143 0 .253.121.264.264m1.187-.208L9.77 8.98l-.197 2.935c-.011.165-.132.286-.286.286a.29.29 0 0 1-.286-.286L8.826 8.98l.176-6.397c0-.165.132-.286.286-.286s.286.132.286.286m-5.99 9.54a.16.16 0 0 1-.166-.164L3.166 8.98l.252-3.078c.011-.098.077-.164.165-.164s.154.077.165.164l.286 3.078-.286 2.979c-.01.099-.077.165-.165.165m9.749-3.132-.143 2.572-.011.286a.36.36 0 0 1-.11.253.4.4 0 0 1-.253.099.37.37 0 0 1-.275-.132.3.3 0 0 1-.088-.21v-.01l-.131-2.869.131-7.078v-.066c0-.121.066-.231.165-.297a.45.45 0 0 1 .198-.055c.077 0 .143.033.198.066a.36.36 0 0 1 .165.297zM4.89 6.122l.264 2.858-.264 3c0 .11-.088.188-.187.188s-.175-.077-.186-.187l-.231-3 .23-2.859c0-.11.088-.187.187-.187.1 0 .176.077.187.187m.946-2c.11 0 .208.099.208.209l.253 4.65-.253 3a.21.21 0 0 1-.208.209c-.11 0-.198-.088-.21-.21l-.22-3 .22-4.65c0-.12.1-.208.21-.208m1.362 7.859c-.01.132-.11.242-.241.23a.235.235 0 0 1-.242-.23l-.209-2.99.209-5.716a.242.242 0 0 1 .483 0l.231 5.716zM14.201.868a.41.41 0 0 1 .187.33l.165 7.793-.165 2.825c-.011.209-.176.385-.385.385a.38.38 0 0 1-.384-.374l-.077-1.396-.077-1.429.154-7.76v-.044c0-.12.054-.23.142-.297a.38.38 0 0 1 .44-.033M.32 10.628a.11.11 0 0 1-.11-.11L0 8.98l.209-1.56a.11.11 0 0 1 .11-.11c.055 0 .099.043.11.11L.67 8.98l-.24 1.54c-.011.066-.055.11-.11.11m1.044.935c-.066 0-.11-.044-.121-.11L.967 8.98l.275-2.528a.13.13 0 0 1 .121-.11c.066 0 .11.044.12.11l.32 2.528-.32 2.473a.13.13 0 0 1-.12.11m1.1.45c-.078 0-.133-.065-.144-.142l-.264-2.89.264-3.002c.011-.088.066-.142.143-.142s.132.065.143.142l.297 3.001-.297 2.89c-.011.089-.066.144-.143.144m22.213-6.715a3.48 3.48 0 0 1 3.473 3.462c0 1.913-1.55 3.44-3.462 3.44H15.09a.405.405 0 0 1-.373-.395V.825c0-.198.066-.308.33-.407A6.1 6.1 0 0 1 17.256 0a6.11 6.11 0 0 1 6.078 5.562 3.6 3.6 0 0 1 1.341-.264"/>
</svg>
