<svg fill="currentColor" viewBox="0 0 21 16" xmlns="http://www.w3.org/2000/svg">
  <path d="M12.779 3.19a.97.97 0 0 0-1.37 0L5.245 9.354a1.938 1.938 0 0 1-2.74-2.74L8.551.57a1.937 1.937 0 0 0-2.74 0L1.135 5.245a3.875 3.875 0 0 0 5.48 5.48l6.164-6.165a.97.97 0 0 0 0-1.37m2.055-2.055a3.874 3.874 0 0 0-5.48 0L3.19 7.3a.97.97 0 0 0 1.37 1.37l6.164-6.164a1.936 1.936 0 0 1 2.74 0 .97.97 0 0 0 1.37-1.37M16.889 7.3a.97.97 0 0 0-1.37 0l-6.165 6.165a1.937 1.937 0 0 1-2.74 0 .969.969 0 0 0-1.37 1.37 3.874 3.874 0 0 0 5.48 0l6.165-6.165a.97.97 0 0 0 0-1.37m2.055-2.054a3.875 3.875 0 0 0-5.48 0L7.3 11.409a.968.968 0 1 0 1.37 1.37l6.165-6.164a1.937 1.937 0 1 1 2.74 2.74L11.527 15.4a1.94 1.94 0 0 0 2.74 0l4.676-4.676a3.875 3.875 0 0 0 0-5.48"/>
</svg>
