<svg fill="currentColor" viewBox="0 0 39 16" xmlns="http://www.w3.org/2000/svg">
  <path d="M2.692 6.245c0-.415.34-.574.904-.574.808 0 1.83.244 2.638.68v-2.5a7 7 0 0 0-2.638-.49C1.436 3.362 0 4.49 0 6.374c0 2.936 4.043 2.468 4.043 3.734 0 .49-.426.649-1.022.649-.883 0-2.01-.362-2.904-.851v2.532c.99.425 1.99.606 2.904.606 2.213 0 3.735-1.096 3.735-3-.01-3.17-4.064-2.606-4.064-3.798m7.192-5.01-2.596.552-.011 8.522c0 1.575 1.18 2.734 2.755 2.734.873 0 1.511-.16 1.862-.35v-2.16c-.34.138-2.021.627-2.021-.947V5.809h2.021V3.543H9.873zm5.319 3.095-.17-.787h-2.298v9.309h2.66v-6.31c.627-.818 1.691-.67 2.02-.552V3.543c-.34-.128-1.584-.362-2.212.787m2.862-.787h2.67v9.309h-2.67zm0-.809 2.67-.574V0l-2.67.564zm8.224.628c-1.043 0-1.713.49-2.086.83l-.138-.66h-2.34v12.405l2.66-.564.01-3.01c.383.276.947.67 1.883.67 1.904 0 3.639-1.532 3.639-4.905-.011-3.085-1.767-4.766-3.628-4.766m-.639 7.33c-.627 0-1-.223-1.255-.5l-.01-3.947c.276-.309.659-.521 1.265-.521.969 0 1.639 1.085 1.639 2.479 0 1.425-.66 2.49-1.639 2.49M38.3 8.235c0-2.724-1.32-4.873-3.84-4.873-2.533 0-4.065 2.149-4.065 4.851 0 3.203 1.809 4.82 4.405 4.82 1.266 0 2.223-.288 2.947-.692v-2.128c-.724.362-1.553.585-2.607.585-1.032 0-1.947-.361-2.064-1.617h5.203c0-.138.021-.691.021-.946m-5.256-1.011c0-1.202.734-1.702 1.405-1.702.649 0 1.34.5 1.34 1.702z"/>
</svg>
