<svg fill="currentColor" viewBox="0 0 14 18" xmlns="http://www.w3.org/2000/svg">
  <path d="M7.428 1.026c.14.107.261.24.395.354 1.206 1.138 2.311 2.395 3.2 3.8.861 1.357 1.523 2.86 1.817 4.444.162.87.216 1.761.121 2.64a5.4 5.4 0 0 1-.224 1.087 6 6 0 0 1-.676 1.453 4.1 4.1 0 0 1-.94 1.01 4.5 4.5 0 0 1-1.348.685c-.598.19-1.225.285-1.85.336-.745.056-1.495.066-2.239-.028-.842-.105-1.678-.329-2.428-.734-.695-.374-1.305-.922-1.697-1.612-.454-.79-.604-1.724-.532-2.626.074-.955.378-1.882.78-2.747.35-.744.777-1.448 1.252-2.118.404-.567.84-1.11 1.316-1.62l.035-.028c-.008.43.033.861.157 1.274.125.421.336.818.618 1.157.016.02.029.05.06.053.61-.458 1.187-.972 1.637-1.59a4.96 4.96 0 0 0 .898-2.17 5.86 5.86 0 0 0-.352-3.02"/>
</svg>
