<svg fill="currentColor" viewBox="0 0 20 16" xmlns="http://www.w3.org/2000/svg">
  <path d="M19.688 1.893a8 8 0 0 1-2.32.636A4.05 4.05 0 0 0 19.144.295c-.793.47-1.66.802-2.565.98a4.038 4.038 0 0 0-6.882 3.684A11.47 11.47 0 0 1 1.371.74a4.04 4.04 0 0 0 1.251 5.392 4 4 0 0 1-1.83-.505v.05a4.04 4.04 0 0 0 3.24 3.96q-.511.141-1.064.142a4 4 0 0 1-.76-.07 4.04 4.04 0 0 0 3.772 2.804A8.1 8.1 0 0 1 0 14.185 11.43 11.43 0 0 0 6.191 16c7.429 0 11.491-6.154 11.491-11.491q0-.263-.012-.523a8.2 8.2 0 0 0 2.018-2.093"/>
</svg>
