<svg fill="currentColor" viewBox="0 0 16 16" xmlns="http://www.w3.org/2000/svg">
  <path d="M15.977 7.98a7.98 7.98 0 1 1-15.96 0 7.98 7.98 0 0 1 15.96 0M2.571 6.915a1.065 1.065 0 1 0 0 2.13 1.065 1.065 0 0 0 0-2.13m7.607 4.842a1.065 1.065 0 1 0 1.064 1.845 1.065 1.065 0 0 0-1.064-1.845M4.885 7.98c0-1.053.523-1.983 1.323-2.546L5.43 4.129a4.64 4.64 0 0 0-1.914 2.69 1.494 1.494 0 0 1 0 2.321 4.64 4.64 0 0 0 1.914 2.691l.78-1.305A3.1 3.1 0 0 1 4.884 7.98m3.112-3.112a3.11 3.11 0 0 1 3.1 2.836l1.518-.022A4.6 4.6 0 0 0 11.24 4.68a1.494 1.494 0 0 1-2.006-1.16 4.64 4.64 0 0 0-3.288.31l.74 1.327a3.1 3.1 0 0 1 1.311-.29m0 6.224a3.1 3.1 0 0 1-1.31-.29l-.741 1.327a4.6 4.6 0 0 0 3.288.311 1.493 1.493 0 0 1 2.006-1.16 4.6 4.6 0 0 0 1.375-3.002l-1.519-.022a3.11 3.11 0 0 1-3.099 2.836m2.18-6.89a1.065 1.065 0 1 0 1.066-1.843 1.065 1.065 0 0 0-1.065 1.844"/>
</svg>
