<svg fill="currentColor" viewBox="0 0 25 16" xmlns="http://www.w3.org/2000/svg">
  <path fill-rule="evenodd" d="M13.8 9.787a.62.62 0 0 0-.329.236h.002-.002v.002a1.3 1.3 0 0 1 .047-.374c.065-.202.206-.275.459-.238.209.027.426.007.652.054l.045.01c-.208.312-.563.212-.874.31M9.326 0C8.44.614 8.272 1.573 8.072 2.52c-.167.798-.353 1.593-.534 2.4.298.133.39-.024.447-.284.205-.941.42-1.88.627-2.82C8.875.642 9.641.001 10.795.001h5.391l-.311.261c-.405.339-.695.76-.816 1.287-.257 1.122-.506 2.244-.766 3.397.115.024.223.048.36.08.239-1.063.477-2.104.71-3.146C15.647.6 16.374 0 17.648 0h5.587c1.038 0 1.55.656 1.315 1.705a6393 6393 0 0 1-2.827 12.607c-.225.996-1.067 1.682-2.057 1.684q-2.893.006-5.782 0c-1.004-.002-1.516-.668-1.312-1.69.064-.313.137-.624.236-1.076-.199.103-.389.143-.407.22-.105.468-.25.95-.225 1.417.022.377.265.743.417 1.13h-.276q-2.58.002-5.16 0c-1.052-.002-1.57-.666-1.334-1.735.389-1.777.793-3.55 1.19-5.324.018-.075.029-.151.042-.23-.252-.107-.364-.033-.423.228q-.593 2.684-1.201 5.365c-.145.64.025 1.183.553 1.695H1.458c-1.139 0-1.648-.645-1.394-1.784l2.813-12.53C3.107.666 3.922.003 4.927.001zm9.092 9.31q.06.018.12.04c.09.512.468.407.77.374.122-.013.224-.21.29-.279l-.39-.572c-.582.032-1.212.063-1.841.109-.127.008-.205.138-.355-.06-.165-.216-.636-.004-.718.279-.239.82-.464 1.645-.722 2.46-.087.271-.252.514-.382.772l.052.112c.74-.301 1.459.327 2.224.003.709.412 1.11-.085 1.482-.684.188.722.25.775.645.793.344.016.29-.259.32-.34-.117-.246-.191-.405-.271-.56-.077-.147-.162-.288-.278-.492.16-.008.366-.038.57-.021.314.023.413-.125.384-.435-.23-.012-.446-.024-.667-.033-.044-.417.216-.416.466-.386.35.04.495-.111.468-.495-.64 0-1.271.02-1.902-.008-.352-.015-.455.14-.442.497h.731c.04.46-.248.422-.506.406-.282-.017-.528-.004-.482.423l.657.057c-.187.276-.32.525-.504.725-.1.112-.283.143-.428.208-.045-.179-.162-.377-.123-.534.164-.66.363-1.313.57-1.962.045-.147.172-.267.263-.397zM5.542 4.109c-.171.803-.323 1.577-.506 2.344-.054.224-.144.5-.307.622a.98.98 0 0 1-.703.15c-.282-.053-.264-.356-.23-.601q.051-.357.136-.708c.139-.596.286-1.189.434-1.802h-1.01c-.17.784-.348 1.552-.5 2.323-.227 1.142.152 1.571 1.288 1.48.142-.012.285-.024.423-.055.448-.102.876-.304 1.023-.769.311-.97.553-1.963.833-2.984zm10.082-.008-.86 3.779h.895c.055-.261.107-.496.158-.73.13-.603.13-.603.734-.635.917-.051 1.481-.53 1.65-1.401.114-.582-.13-.969-.703-1.003-.615-.039-1.237-.01-1.874-.01m-2.811 8.035c.096-.34.187-.642.258-.948.05-.216.15-.308.375-.299.349.015.703.03 1.046-.024.194-.03.465-.152.534-.31.222-.517.367-1.07.578-1.722l-1.906.21c-.1-.041-.216-.116-.338-.14-.184-.03-.339-.01-.408.245-.236.863-.496 1.718-.746 2.578-.277.95-.276.953.675.945.43-.005.455-.034.435-.534zm6.771-2.45c.787.113.9.063 1.217-.51.48-.87.953-1.747 1.43-2.62l.455-.82c-.804-.233-.957.434-1.275 1.02-.034-.433-.06-.749-.09-1.098l-.802.153c.075.64.175 1.234.204 1.834.032.664-.417 1.114-.766 1.6-.101.139-.22.264-.372.442m.568-3.988c-.474.055-.891.223-1.315.011-.08-.04-.224.029-.33.074-.55.235-.949.999-.85 1.61.06.359.288.545.609.564.47.027.943.008 1.41.008zM8.11 7.881c.05-.268.093-.503.14-.737.051-.25.11-.497.159-.746.117-.613-.147-.866-.733-.695-.111.032-.3.127-.315.103-.215-.353-.473-.012-.703-.048-.06-.008-.191.127-.21.216-.13.625-.243 1.256-.363 1.892h.788c.092-.452.161-.876.274-1.288.032-.117.191-.196.292-.293.04.12.13.248.114.36-.058.408-.15.809-.234 1.236zm4.903-.003c.091-.447.163-.882.275-1.303.033-.117.194-.195.296-.291.043.122.132.25.118.363-.06.407-.155.807-.239 1.225h.786c.1-.482.218-.937.275-1.398.031-.23.034-.59-.094-.686-.167-.124-.476-.056-.722-.047-.102.005-.228.18-.262-.069-.287.086-.765.102-.822.27-.208.611-.274 1.272-.398 1.936zm-2.24.075c.875.01 1.544-.81 1.383-1.7-.057-.314-.25-.486-.544-.553-.847-.196-1.518.295-1.673 1.225q-.169 1.015.835 1.03zm.378 4.193c.093-.698.093-.718.71-.716.36 0 .311-.249.378-.503h-.73c-.031-.403.195-.443.461-.408.333.04.513-.079.489-.452-.045-.01-.084-.023-.121-.023-.478 0-.957.019-1.434-.006-.323-.017-.45.108-.424.443l.448.098c-.141.15-.242.339-.331.333-.372-.02-.363.236-.415.494l.375.048c-.008.083-.007.149-.024.211-.254 1.021-.254 1.003.76 1.014.39.004.424-.214.45-.533zm2.287-1.15c0 .352.006.62 0 .886-.024.78-.025.763.723.78.355.009.448-.146.424-.475l-.467-.043v-.438c.787-.104.84-.149.835-.69-.21-.006-.435-.097-.547.212-.014.036-.25.037-.255.02-.114-.435-.424-.139-.713-.252M9.69 6.134c-.222.032-.42.044-.604.096-.092.026-.217.112-.237.194-.113.475-.2.958-.299 1.449h.808c.121-.548.235-1.068.348-1.592.006-.036-.008-.075-.016-.147m2.942 3.037h-.686l-.017-.266c-.397-.052-.776-.112-.934.395-.018.06-.12.087-.175.14-.12.121-.232.25-.347.376l.09.114c.187-.024.413.012.556-.086.334-.22.687-.208 1.041-.18.336.025.477-.11.472-.493M9.44 5.31l-.534.505c.125.083.277.258.365.227.207-.067.383-.235.571-.362zm7.086 5.72c.323-.129.742-.09.677-.611-.582-.078-.596-.067-.677.611m.97-1.593c-.604-.084-.66-.034-.654.583.291-.107.709-.06.654-.583m-.578 2.011c-.573-.086-.573-.086-.678.497.563.1.569.097.678-.497m-2.413-1.158c-.659-.184-1.127-.113-1.12.179.346-.108.732.108 1.12-.179m1.584-4.337.281-1.284c.08-.008.143-.022.205-.017.285.026.629-.05.686.395.048.375-.225.766-.61.856-.16.037-.327.032-.562.05m3.102.566c-.09.298-.138.553-.25.77-.049.098-.228.125-.35.184-.044-.113-.135-.231-.123-.337a2.4 2.4 0 0 1 .175-.69c.047-.106.216-.226.314-.211.093.012.164.191.234.285zm-7.793.002c-.094.275-.162.533-.274.77-.037.075-.19.127-.286.12-.046-.002-.128-.17-.116-.252.042-.262.095-.528.194-.77.04-.098.213-.139.326-.204z"/>
</svg>
