<svg fill="currentColor" viewBox="0 0 21 16" xmlns="http://www.w3.org/2000/svg">
  <path d="M10.25 6.846c-.011.892.794 1.39 1.401 1.685.624.303.834.498.831.77-.005.415-.497.598-.959.605-.804.013-1.272-.217-1.644-.39l-.29 1.355c.373.172 1.064.322 1.78.329 1.683 0 2.783-.83 2.79-2.117.006-1.634-2.26-1.725-2.245-2.455.005-.221.216-.457.68-.518.229-.03.861-.053 1.578.277l.282-1.312a4.3 4.3 0 0 0-1.499-.275c-1.583 0-2.696.842-2.705 2.046m6.909-1.933a.73.73 0 0 0-.682.454l-2.402 5.737h1.68l.335-.925h2.054l.194.925h1.48l-1.292-6.19zm.235 1.671.485 2.325H16.55zM8.212 4.913l-1.325 6.19H8.49l1.324-6.19zm-2.37 0L4.176 9.127l-.674-3.583c-.08-.4-.392-.63-.739-.63H.038L0 5.092c.56.121 1.195.317 1.58.526.236.128.303.24.38.544l1.277 4.94H4.93l2.595-6.19zM0 0h20.393v2.133H0zm0 13.867h20.393V16H0z"/>
</svg>
