<svg fill="currentColor" viewBox="0 0 27 16" xmlns="http://www.w3.org/2000/svg">
  <path fill-rule="evenodd" d="M2.485 0h21.79a2.494 2.494 0 0 1 2.496 2.495v8.319a2.494 2.494 0 0 1-2.495 2.495H16.46l1.073 2.627-4.717-2.627H2.496A2.494 2.494 0 0 1 0 10.814V2.495A2.485 2.485 0 0 1 2.485 0m-.96 2.274c.152-.206.38-.315.685-.337q.832-.065.947.784c.337 2.274.707 4.2 1.1 5.778l2.382-4.538q.327-.619.817-.653c.478-.032.772.272.892.914.272 1.448.62 2.678 1.034 3.722.283-2.764.762-4.755 1.436-5.985.164-.305.403-.457.719-.479a.95.95 0 0 1 .685.218c.207.163.316.37.337.62a.94.94 0 0 1-.108.522c-.425.784-.773 2.1-1.056 3.929-.272 1.774-.37 3.156-.305 4.146q.033.408-.13.719a.7.7 0 0 1-.577.391c-.283.022-.577-.109-.86-.402-1.012-1.034-1.817-2.58-2.405-4.636a204 204 0 0 0-1.567 3.134c-.642 1.23-1.186 1.86-1.643 1.893-.294.022-.544-.228-.762-.75q-.833-2.14-1.796-8.26a.93.93 0 0 1 .175-.73M24.91 3.983c-.392-.686-.968-1.1-1.741-1.262a3 3 0 0 0-.588-.066c-1.044 0-1.893.544-2.557 1.633a5.77 5.77 0 0 0-.849 3.069q0 1.257.522 2.154c.392.686.969 1.1 1.742 1.263q.31.065.587.065c1.056 0 1.905-.544 2.558-1.632a5.83 5.83 0 0 0 .849-3.08c.01-.849-.174-1.556-.523-2.144m-1.37 3.015c-.153.718-.425 1.251-.828 1.61-.316.283-.61.403-.882.348-.26-.054-.478-.283-.642-.707a2.8 2.8 0 0 1-.195-.99c0-.272.021-.544.076-.795.098-.446.283-.881.576-1.295.36-.533.74-.75 1.132-.674.261.054.48.282.642.707.13.337.196.675.196.99 0 .283-.022.555-.076.806m-5.442-3.015c-.392-.686-.98-1.1-1.741-1.262a3 3 0 0 0-.588-.066c-1.045 0-1.894.544-2.558 1.633a5.77 5.77 0 0 0-.848 3.069q0 1.257.522 2.154c.392.686.969 1.1 1.741 1.263q.31.065.588.065c1.055 0 1.904-.544 2.557-1.632a5.83 5.83 0 0 0 .85-3.08c0-.849-.175-1.556-.523-2.144m-1.382 3.015c-.153.718-.425 1.251-.827 1.61-.316.283-.61.403-.882.348-.261-.054-.479-.283-.642-.707a2.8 2.8 0 0 1-.196-.99c0-.272.022-.544.076-.795.098-.446.283-.881.577-1.295.36-.533.74-.75 1.132-.674.261.054.479.282.642.707.13.337.196.675.196.99.01.283-.022.555-.076.806"/>
</svg>
