<svg fill="currentColor" viewBox="0 0 16 16" xmlns="http://www.w3.org/2000/svg">
  <path d="M1.137 8a6.86 6.86 0 0 0 3.868 6.176l-3.274-8.97A6.8 6.8 0 0 0 1.137 8m11.496-.347c0 .588-.226 1.27-.523 2.219l-.684 2.287-2.48-7.377c.413-.022.785-.065.785-.065.37-.044.327-.587-.044-.566 0 0-1.111.087-1.829.087-.674 0-1.807-.087-1.807-.087-.37-.021-.414.544-.044.566 0 0 .35.043.72.065l1.07 2.93-1.503 4.504-2.499-7.434c.414-.021.786-.065.786-.065.37-.044.326-.587-.044-.566 0 0-1.112.088-1.83.088-.128 0-.28-.004-.441-.009A6.86 6.86 0 0 1 8 1.137c1.787 0 3.413.683 4.635 1.802l-.09-.006c-.673 0-1.152.587-1.152 1.218 0 .566.326 1.044.674 1.61.261.457.566 1.044.566 1.892M8.12 8.6l2.11 5.78q.02.049.049.094a6.86 6.86 0 0 1-4.218.11zm5.902-3.893a6.86 6.86 0 0 1-2.572 9.225l2.096-6.061c.392-.979.522-1.762.522-2.458q-.001-.378-.046-.706M8 0c4.411 0 8 3.589 8 8s-3.589 8-8 8-8-3.589-8-8 3.589-8 8-8m0 15.633c4.209 0 7.633-3.424 7.633-7.633S12.209.367 8 .367.367 3.79.367 8 3.79 15.633 8 15.633"/>
</svg>
