<svg fill="currentColor" viewBox="0 0 23 16" xmlns="http://www.w3.org/2000/svg">
  <path d="M14.88 7.717a740 740 0 0 0-5.952-3.12l5.234 3.518s-.954.53.719-.398"/>
  <path d="M9.31 15.689c-4.212-.078-5.65-.147-6.535-.33-.598-.12-1.118-.39-1.499-.779-.294-.295-.529-.745-.71-1.37-.156-.52-.217-.952-.303-2.01-.133-2.386-.165-4.336 0-6.516.135-1.204.2-2.633 1.1-3.466A2.95 2.95 0 0 1 2.836.473c.867-.165 4.558-.295 8.38-.295 3.813 0 7.512.13 8.38.295.692.13 1.342.52 1.724 1.022.82 1.29.835 2.896.918 4.15.034.6.034 3.996 0 4.594-.13 1.984-.234 2.686-.528 3.414-.183.459-.338.701-.607.97-.422.414-.96.689-1.543.789-3.644.274-6.739.333-10.25.277m5.58-7.972c-2.028-1.084-3.969-2.088-5.953-3.128v6.222c2.088-1.136 4.29-2.176 5.961-3.103z"/>
</svg>
