<svg fill="currentColor" viewBox="0 0 16 16" xmlns="http://www.w3.org/2000/svg">
  <path d="M10 8.004c0 .594-.11 1.163-.307 1.689a4.8 4.8 0 0 1-1.69.307h-.007c-.594 0-1.163-.11-1.689-.307A4.8 4.8 0 0 1 6 8.003v-.007c0-.594.11-1.163.307-1.688A4.8 4.8 0 0 1 7.997 6h.006c.595 0 1.164.11 1.69.308.198.525.307 1.094.307 1.688zm5.889-1.337h-4.67l3.302-3.302a8 8 0 0 0-1.886-1.886L9.333 4.781V.111A8 8 0 0 0 8.004 0h-.008a8 8 0 0 0-1.33.111v4.67l-3.3-3.301q-.548.39-1.021.864l-.002.001a8 8 0 0 0-.863 1.02l3.3 3.303H.111S0 7.544 0 7.997v.006q0 .68.111 1.33h4.67L1.48 12.635a8 8 0 0 0 1.886 1.886l3.302-3.302v4.67q.649.109 1.327.111h.012q.68-.002 1.327-.111v-4.67l3.302 3.302q.548-.39 1.022-.864.474-.475.864-1.022L11.22 9.333h4.67A8 8 0 0 0 16 8.006v-.012a8 8 0 0 0-.111-1.327"/>
</svg>
