<svg xmlns="http://www.w3.org/2000/svg" viewBox="0 0 789.23 132.76">
  <g id="bf135800-4d54-4925-84d6-5c628733c27f" data-name="Layer 2">
    <g id="e402ff3d-0257-4633-a4bb-d5a96d076cfe" data-name="Layer 1">
      <g>
        <g>
          <path d="M603.17,79.64v-4l18.1,0,0-48.14-18.74,0,0-21.81L577,5.71,546.32,38.32c-7.57-8.23-18.4-13.06-31.19-13.07a48,48,0,0,0-17.48,3.17l-.45-1-41.29,0v7.26a56.84,56.84,0,0,0-32.39-9.74c-16.34,0-30.58,6.35-40.44,16.82a39,39,0,0,0-32.55-16.65,43.46,43.46,0,0,0-22.46,6.16A40.43,40.43,0,0,0,306.23,25a42.33,42.33,0,0,0-15.93,3.12l-.42-.93-41.36,0v7.26a56.84,56.84,0,0,0-32.39-9.73,56,56,0,0,0-32.22,9.74V27.13L82.06,27v3.8a42,42,0,0,0-22.17-6,46,46,0,0,0-5.75.36l0-25.1L.13,0,0,129.89l102.09.1v-6.4c8.33,5.66,18.86,8.87,30.83,8.88,17.69,0,32.23-6.94,41.19-18.54,9.86,11.51,24.71,18.6,41.92,18.62a56.36,56.36,0,0,0,32.4-9.81v7.4l142.78.14v-7.36a58,58,0,0,0,64.61,0v7.39l102.09.1V116.52c7.15,8.8,18.25,13.94,31.86,14l31.86,0,0-50.85Z" fill="#333"/>
          <g>
            <path d="M88,70.88l0,44.92-25.7,0,0-41.94c0-8.6-3-13-9.71-13-7.78,0-12.63,5.51-12.64,15.08l0,39.84-25.69,0,.1-101.53,25.69,0,0,31.85A31.88,31.88,0,0,1,59.87,39C77,39,88,51.55,88,70.88Z" fill="#e6e7e8"/>
            <path d="M96.18,83.79l0-42.57,25.7,0,0,41.46c0,7.87,4.22,12.51,11.08,12.51s11-4.7,11-12.49l0-41.46,25.7,0,0,42.57c0,20.87-14.71,34.46-36.74,34.43S96.16,104.66,96.18,83.79Z" fill="#e6e7e8"/>
            <path d="M256.77,78a47.87,47.87,0,0,1-.53,6.8l-55.39,0c1.67,8.55,7.1,13,15.21,13,6,0,11-2.62,13.5-7l25.56,0c-5.26,17-20.36,27.64-39.08,27.62-23.27,0-40.5-17-40.48-39.84s17.15-39.67,40.56-39.65c24,0,40.68,17.2,40.66,39.08Zm-55.46-7.48,30.16,0C229.22,63.06,223.85,59,216.1,59,208.61,59,203.4,63.08,201.31,70.49Z" fill="#e6e7e8"/>
            <path d="M377.09,69.3l0,46.79-25.69,0,0-43.62c0-7.79-2.86-11.55-8.31-11.55-7.07,0-10.69,4.85-10.7,14.24l0,40.91-25,0,.05-43.61c0-7.55-2.84-11.55-8.22-11.56-7,0-10.79,5-10.8,14.25l0,40.9-25.69,0,.07-74.6,18.07,0,3.65,8a28.74,28.74,0,0,1,21.82-10.2c9.09,0,16.74,4.1,21.38,11a29.1,29.1,0,0,1,22.92-11C366.5,39.28,377.11,51.74,377.09,69.3Z" fill="#e6e7e8"/>
            <path d="M464.16,78.17a48,48,0,0,1-.53,6.81l-55.39-.06c1.67,8.56,7.1,13,15.21,13,6,0,11-2.62,13.5-7l25.57,0c-5.27,17-20.37,27.64-39.09,27.62-23.27,0-40.5-17-40.48-39.84S400.1,39.07,423.51,39.1c24.05,0,40.68,17.19,40.66,39.07ZM408.7,70.69l30.16,0c-2.25-7.46-7.62-11.48-15.37-11.49C416,59.22,410.79,63.28,408.7,70.69Z" fill="#e6e7e8"/>
            <path d="M543.78,70.77l0,45.49-25.69,0,0-41.94c0-8.68-3.25-13-9.72-13-8,0-12.63,5.58-12.64,15.07l0,39.84-25.69,0,.07-74.59h18l3.52,7.7c5.56-6.18,13.85-9.89,23.49-9.88C532.44,39.44,543.8,51.76,543.78,70.77Z" fill="#e6e7e8"/>
            <path d="M607.49,93.81l0,22.51-17.68,0c-16.5,0-26.52-10.11-26.5-26.69l0-28.14-13.66,0v-6l33.46-35.56h5.28l0,21.81,18.75,0,0,19.79-18.1,0,0,23.74c0,5.34,3.22,8.57,8.64,8.57Z" fill="#e6e7e8"/>
          </g>
        </g>
        <g>
          <path d="M760.53,12.91q7.1,0,11.45,3.76a12.43,12.43,0,0,1,4.35,9.86A12.42,12.42,0,0,1,772,36.39q-4.35,3.78-11.45,3.77t-11.46-3.77a12.42,12.42,0,0,1-4.35-9.86,12.43,12.43,0,0,1,4.35-9.86q4.35-3.77,11.46-3.76M774,46.1v72.49H747.19V46.1H774M760.53,0c-7.91,0-14.61,2.33-19.91,6.92a25.18,25.18,0,0,0-8.8,19.61,26.39,26.39,0,0,0,2.46,11.36V131.5h52.63V37.58a26.2,26.2,0,0,0,2.32-11,25.2,25.2,0,0,0-8.8-19.61c-5.3-4.59-12-6.92-19.9-6.92Z" fill="#333"/>
          <path d="M738,28.91V78.19c0,24.17-17,39.91-42.5,39.91s-42.6-15.74-42.6-39.91V28.91h29.75v48c0,9.12,4.9,14.48,12.85,14.48s12.76-5.45,12.76-14.48v-48H738M750.89,16H640V78.19c0,15.28,5.62,28.94,15.83,38.46S679.6,131,695.48,131s29.58-5,39.63-14.37,15.78-23.17,15.78-38.45V16Z" fill="#333"/>
          <path d="M744.72,26.53a12.43,12.43,0,0,1,4.35-9.86q4.35-3.77,11.46-3.76T772,16.67a12.43,12.43,0,0,1,4.35,9.86A12.42,12.42,0,0,1,772,36.39q-4.35,3.78-11.45,3.77t-11.46-3.77A12.42,12.42,0,0,1,744.72,26.53Zm2.47,92.06V46.1H774v72.49Z" fill="#e6e7e8"/>
          <path d="M652.88,78.19V28.91h29.75v48c0,9.12,4.9,14.48,12.85,14.48s12.76-5.45,12.76-14.48v-48H738V78.19c0,24.17-17,39.91-42.5,39.91S652.88,102.36,652.88,78.19Z" fill="#e6e7e8"/>
        </g>
      </g>
    </g>
  </g>
</svg>
