<svg xmlns="http://www.w3.org/2000/svg" viewBox="0 0 944.956 195.391"><defs><style>.a{fill:#fbff1d;}.b{fill:#390099;}.c{fill:#3bfc43;}.d{fill:#fff;}.e{opacity:0.3;}.f{fill:#ff0054;}</style></defs><path class="a" d="M915.583,143.807l-15.105-.015c-1.554,0-3.67-.265-4.925-1.514-1.232-1.226-1.489-3.28-1.487-4.787l.029-29.54,20.89.021,6.823.007.006-6.823.03-30.309.007-6.823-6.823-.006L893.146,64l.026-26.583.007-6.823-6.823-.007-8.084-.008-2.952,0L873.3,32.723,822.05,87.186,820.2,89.154v1.183a49.23,49.23,0,0,0-9.161-14.527c-9.17-10-21.944-15.3-36.94-15.311h-.064c-12.7,0-24.32,3.723-33.6,10.636l-1.517-3.314-1.821-3.98-4.376,0-27.612-.027-6.823-.007-.007,6.823-.03,31.062A63.769,63.769,0,0,0,683.52,79.322C670.847,66.878,653.185,60.015,633.788,60h-.081c-19.112,0-36.591,6.814-49.219,19.186a64.439,64.439,0,0,0-15.605,24.534c-1.477-11.024-5.623-20.657-12.228-28.209-8.6-9.826-20.906-15.245-34.665-15.258a51.469,51.469,0,0,0-34.768,13.295c-8.465-8.563-20.138-13.35-33.09-13.362h-.049a50.409,50.409,0,0,0-31.132,10.9l-1.621-3.561-1.817-3.992-4.386-.005L387.452,63.5l-6.822-.007-.007,6.823-.031,31.063a63.773,63.773,0,0,0-14.727-22.367C353.191,66.564,335.529,59.7,316.132,59.681h-.081c-19.111,0-36.591,6.815-49.219,19.186a64.337,64.337,0,0,0-14.975,22.867l.032-31.55.007-6.823-6.823-.007-39.357-.039-6.823-.007-.007,6.823-.063,63.5c-.008,8.175-3.388,12.32-10.047,12.32-6.769-.007-10.188-4.159-10.18-12.34l.063-63.5.007-6.823-6.823-.007-39.357-.039-6.823-.006-.007,6.822-.032,32.641c-1.811-10.733-5.976-20.006-12.329-27.231-8.993-10.23-21.61-15.645-36.485-15.66a55.194,55.194,0,0,0-23.684,5.4l.036-36.477.007-6.823L46.346,21.9,6.99,21.858.167,21.851.161,28.674.007,184.194,0,191.016l6.823.007,39.356.039,6.823.007.006-6.823.061-61.015c.007-7.426,2.183-16.278,12.508-16.278,3.427,0,8.095.008,8.082,13.081L73.6,184.267l-.007,6.823,6.823.006,39.357.039,6.823.007.006-6.823.037-36.92c5.105,28.858,28.755,47.517,62.076,47.55h.088c32.673,0,56.05-18.02,61.7-46.05a65.157,65.157,0,0,0,16.336,26.778c12.675,12.491,30.135,19.381,49.166,19.4h.082c15.479,0,29.845-4.371,41.546-12.639a64.929,64.929,0,0,0,22.915-29.251l-.032,31.384-.006,6.823,6.823.006,39.355.039,6.823.007.007-6.823.062-62.65c.015-15.006,7.047-15.006,9.694-15.006,1.744,0,5.793.006,5.782,10.874l-.066,66.8-.007,6.823,6.823.007,38.33.038,6.823.007.007-6.823.062-62.651c.015-14.947,6.395-15,9.5-15h.036c2.871,0,3.648,1.067,4.021,1.578.719.985,1.923,3.5,1.917,9.3l-.066,66.8-.007,6.823,6.823.007,39.357.039,6.823.007.006-6.823.032-31.805a64.927,64.927,0,0,0,15.025,23.039c12.675,12.491,30.135,19.38,49.166,19.4h.082c15.479,0,29.845-4.37,41.546-12.639A64.923,64.923,0,0,0,698.2,153.506l-.031,31.379-.007,6.823,6.823.007,39.357.039,6.823.007.007-6.823.06-61.015c.011-10.8,4.219-16.279,12.508-16.278,3.04,0,8.1.008,8.084,13.08l-.064,64.233-.007,6.823,6.823.007,39.355.039,6.823.007.007-6.823.069-69.671c0-2.55-.13-5.033-.368-7.458l2.546,0,14.09.014-.036,36.29c-.015,14.3,4.407,26.323,12.788,34.765s20.36,12.928,34.613,12.943l27.078.026,6.823.007.007-6.823.034-34.47.006-6.823Zm-279.13,3.556c-6.156-.007-10.617-2.064-13.481-6.251l27.538.027C647.733,145.057,642.579,147.363,636.453,147.363ZM648.289,105.7l-23.064-.023c2.781-2.63,6.5-3.924,11.222-3.924C641.411,101.755,645.339,103.056,648.289,105.7Zm-11.84-10.77h0ZM318.8,147.048c-6.156-.006-10.617-2.064-13.481-6.251l27.538.027C330.076,144.743,324.922,147.048,318.8,147.048Zm11.836-41.665-23.065-.023c2.781-2.631,6.5-3.925,11.222-3.925C323.755,101.44,327.683,102.742,330.633,105.383Z"/><path class="b" d="M922.406,138.349l-15.1-.015c-1.554,0-3.67-.266-4.925-1.514-1.232-1.226-1.489-3.28-1.487-4.788l.029-29.539,20.89.02,6.823.007.006-6.823.03-30.308.007-6.823-6.823-.007-21.882-.021L900,31.955,900,25.132l-6.823-.007-8.084-.008-2.952,0-2.023,2.15L828.872,81.728,827.021,83.7v1.184a49.235,49.235,0,0,0-9.161-14.528c-9.17-10-21.944-15.3-36.94-15.311h-.064c-12.7,0-24.32,3.724-33.6,10.637l-1.517-3.315-1.821-3.979-4.376,0-27.612-.028-6.823-.007-.007,6.823-.03,31.062a63.778,63.778,0,0,0-14.727-22.366C677.67,61.42,660.008,54.556,640.611,54.537h-.081c-19.112,0-36.591,6.815-49.22,19.186a64.459,64.459,0,0,0-15.6,24.535c-1.477-11.024-5.623-20.658-12.229-28.21-8.594-9.825-20.9-15.244-34.664-15.258a51.473,51.473,0,0,0-34.768,13.295c-8.465-8.563-20.138-13.349-33.09-13.362h-.049a50.4,50.4,0,0,0-31.132,10.9l-1.621-3.562-1.817-3.992-4.386,0-27.675-.027-6.823-.007-.006,6.823-.031,31.063a63.773,63.773,0,0,0-14.727-22.367c-12.674-12.444-30.336-19.307-49.733-19.326h-.081c-19.111,0-36.591,6.814-49.219,19.185A64.332,64.332,0,0,0,258.68,96.276l.032-31.551.007-6.823L251.9,57.9l-39.357-.04-6.823-.006-.007,6.823-.063,63.5c-.008,8.175-3.388,12.32-10.047,12.32-6.769-.006-10.188-4.158-10.18-12.34l.063-63.5.007-6.823-6.823-.007-39.357-.039-6.823-.007-.007,6.823-.032,32.64c-1.811-10.732-5.976-20-12.329-27.231-8.993-10.23-21.61-15.645-36.485-15.66a55.209,55.209,0,0,0-23.684,5.4l.036-36.478.007-6.823-6.823-.006L13.813,16.4,6.99,16.393l-.006,6.823L6.83,178.735l-.007,6.823,6.823.007L53,185.6l6.823.007.006-6.823.061-61.015c.007-7.426,2.183-16.279,12.508-16.278,3.427,0,8.095.008,8.082,13.08l-.063,64.233-.007,6.823,6.823.007,39.357.039,6.823.007.006-6.823.037-36.92c5.1,28.858,28.755,47.516,62.076,47.549h.088c32.673,0,56.05-18.019,61.7-46.05a65.154,65.154,0,0,0,16.336,26.779c12.675,12.491,30.135,19.38,49.166,19.4h.082c15.479,0,29.845-4.37,41.546-12.639a64.926,64.926,0,0,0,22.915-29.25l-.032,31.383-.006,6.823,6.823.007,39.355.039,6.823.007.007-6.823.062-62.651c.015-15.006,7.047-15,9.694-15,1.744,0,5.793,0,5.782,10.873l-.066,66.8L455.8,186l6.823.007,38.33.038,6.823.006.007-6.823.062-62.65c.015-14.947,6.4-15.006,9.5-15.006h.036c2.871,0,3.648,1.068,4.021,1.579.718.985,1.923,3.5,1.917,9.3l-.066,66.8-.007,6.823,6.823.006,39.357.039,6.823.007.006-6.823.032-31.8a64.927,64.927,0,0,0,15.025,23.039c12.675,12.491,30.135,19.38,49.166,19.4h.082c15.479,0,29.845-4.371,41.546-12.639a64.928,64.928,0,0,0,22.913-29.246l-.031,31.379-.007,6.823,6.823.007,39.357.039,6.823.006.007-6.823.06-61.014c.011-10.8,4.219-16.279,12.508-16.279,3.04,0,8.1.008,8.084,13.081l-.064,64.233-.007,6.823,6.823.007,39.355.038,6.823.007.007-6.823.069-69.67c0-2.55-.13-5.033-.368-7.458l2.546,0,14.089.014-.036,36.291c-.014,14.3,4.408,26.323,12.789,34.765s20.36,12.928,34.613,12.942l27.078.027,6.823.007.007-6.823.034-34.471.006-6.823Zm-281.86,6.284c-6.155-.006-10.616-2.063-13.48-6.251l27.538.028C651.827,142.328,646.673,144.633,640.546,144.633Zm11.837-41.665-23.065-.023c2.781-2.63,6.5-3.925,11.223-3.925C645.505,99.025,649.433,100.327,652.383,102.968ZM640.543,92.2ZM322.89,144.319c-6.155-.006-10.616-2.064-13.48-6.251l27.537.027C334.17,142.014,329.016,144.319,322.89,144.319Zm11.837-41.666-23.065-.022c2.781-2.631,6.5-3.925,11.222-3.925C327.849,98.711,331.776,100.013,334.727,102.653Z"/><path class="c" d="M94.757,170.657l.067-66.962c.014-15.216-6.488-17.173-12.155-17.179-10.56,0-16.611,7.424-16.624,20.369l-.063,63.743-44.814-.044L21.327,9.606l44.814.044L66.1,55.823a51.35,51.35,0,0,1,27.729-8.264c13.716.013,25.271,4.947,33.466,14.269,8.1,9.209,12.367,22.12,12.351,37.339l-.07,71.534Z"/><path class="d" d="M24.054,12.338l39.355.039-.048,48.778A48.754,48.754,0,0,1,93.826,50.288h.047c26.231.026,43.07,19.26,43.04,48.876l-.068,68.8-39.356-.039.063-64.232c.013-13.178-4.61-19.9-14.88-19.911h-.025c-11.894,0-19.317,8.441-19.331,23.1L63.255,167.9,23.9,167.857l.154-155.519M18.6,6.874,18.6,12.333l-.154,155.519,0,5.458,5.458.006,39.356.039,5.458.005.006-5.458.06-61.015c.007-6.589,1.818-17.642,13.873-17.642,4.588,0,9.46,1.125,9.447,14.447l-.064,64.233,0,5.458,5.458.006,39.357.039,5.458,0,.006-5.458.068-68.806c.016-15.893-4.491-29.428-13.032-39.143-8.727-9.927-20.99-15.182-35.461-15.2h-.053a53.85,53.85,0,0,0-25,6.241l.039-38.688.005-5.458-5.458-.005L24.059,6.88,18.6,6.874Z"/><path class="c" d="M205.785,174.512c-17.308-.017-32.067-5.268-42.681-15.184-10.712-10.008-16.365-23.977-16.348-40.4l.067-67.938,44.815.045-.066,66.226c0,5.21,1.326,9.457,3.849,12.283,2.457,2.752,5.958,4.15,10.4,4.155,9,0,14.152-5.982,14.162-16.41l.066-66.226,44.814.044-.067,67.938c-.033,33.177-23.715,55.467-58.93,55.467Z"/><path class="d" d="M149.549,53.722l39.357.039-.063,63.5c-.012,12.06,6.464,19.159,16.98,19.17h.023c10.5,0,16.858-7.2,16.87-19.136l.063-63.5,39.357.039-.065,65.209c-.031,31.943-22.5,52.74-56.2,52.74h-.081c-33.753-.034-56.335-20.881-56.3-52.852l.064-65.209M144.1,48.259l0,5.458-.065,65.209c-.034,34.843,24.784,58.278,61.756,58.315h.087c36.847,0,61.626-23.386,61.661-58.193l.064-65.209.006-5.458-5.459-.005-39.356-.039-5.459-.006,0,5.458-.063,63.5c-.011,11.31-6.212,13.683-11.412,13.683-3.655,0-6.471-1.094-8.39-3.243-2.068-2.317-3.159-5.935-3.155-10.463l.063-63.5.006-5.459-5.459-.005-39.356-.039-5.459-.005Z"/><path class="c" d="M333.072,174.64c-17.95-.018-34.392-6.489-46.3-18.222s-18.45-27.9-18.432-45.535c.017-17.678,6.56-33.814,18.422-45.436s28.322-18.015,46.355-18.015c18.4.018,35.041,6.465,46.946,18.153,11.707,11.5,18.146,27.274,18.129,44.431v.725l-.006.01a76.239,76.239,0,0,1-.846,10.078L397,123.166l-83.715-.083c2.9,9.458,9.693,14.435,19.823,14.445,8.157,0,14.985-3.481,18.291-9.311l.785-1.385,44.452.044-1.092,3.532c-8.441,27.282-32.349,44.23-62.4,44.232Zm19.712-78.769c-3.587-7.954-10.305-12.134-19.625-12.144L333.131,81v2.729c-8.981,0-15.41,4.167-18.78,12.1Z"/><path class="d" d="M333.121,50.161h.074c36.83.036,62.305,26.337,62.272,59.851l0,0a72.548,72.548,0,0,1-.823,10.418L309.8,120.35c2.562,13.109,10.879,19.9,23.306,19.907h.031c9.18,0,16.851-4.017,20.637-10.694l39.163.039c-8.058,26.044-31.157,42.309-59.787,42.309h-.075c-35.652-.036-62.037-26.119-62-61.025.034-35,26.226-60.723,62.048-60.725M356.705,98.6C353.264,87.18,345.039,81.01,333.162,81h-.031c-11.454,0-19.423,6.222-22.616,17.56l46.19.045M333.121,44.7h0c-18.752,0-35.892,6.676-48.264,18.8-12.391,12.138-19.224,28.965-19.243,47.381-.018,18.37,6.817,35.233,19.246,47.482s29.539,18.989,48.209,19.007h.081c15.2,0,29.289-4.284,40.758-12.389a64.03,64.03,0,0,0,24.244-33.765l2.186-7.065h-.722l.427-2.927a79.852,79.852,0,0,0,.866-9.9l.013-.026,0-1.28c.018-17.9-6.711-34.367-18.946-46.38C369.561,51.446,352.238,44.721,333.2,44.7ZM318.957,93.108c3.153-4.42,7.9-6.651,14.174-6.651,6.576.006,11.563,2.247,14.91,6.679l-29.084-.028Zm14.18,41.691c-7.682-.008-12.923-2.96-15.88-8.983l32.348.032-.579,1.022c-2.815,4.965-8.755,7.929-15.889,7.929Z"/><path class="c" d="M537.591,171.1l.067-69.527c.006-5.306-.9-9.247-2.7-11.713-1.6-2.19-3.988-3.256-7.307-3.259-3.386,0-13.633,0-13.65,19.1l-.066,65.38-43.788-.043.069-69.527c0-5.18-.9-9.085-2.693-11.6-1.608-2.262-3.951-3.363-7.163-3.367-9.157,0-13.8,6.425-13.808,19.1l-.064,65.379-44.815-.044.119-119.718,32.158.032,4.63,10.172a46.618,46.618,0,0,1,32.575-13.514c13.34.012,25.148,5.511,32.959,15.206A47.269,47.269,0,0,1,539.007,48c12.794.012,23.716,4.805,31.636,13.859,7.757,8.868,11.85,20.931,11.836,34.887l-.074,74.394Z"/><path class="d" d="M471.153,50.662h.042c13.928.013,25.652,6.282,32.753,16.854a44.558,44.558,0,0,1,35.059-16.787h.047c24.473.024,40.722,19.109,40.7,46.015l-.071,71.664-39.356-.039.066-66.8c.012-11.933-4.375-17.695-12.737-17.7h-.023c-10.8,0-16.346,7.443-16.36,21.822l-.062,62.65-38.33-.038.066-66.8c.011-11.574-4.344-17.7-12.583-17.7h-.022c-10.655,0-16.5,7.623-16.517,21.822l-.062,62.65-39.356-.039.114-114.259L432.19,54l5.59,12.283a44.054,44.054,0,0,1,33.373-15.623m0-5.459a49.135,49.135,0,0,0-31.642,11.709l-2.353-5.171L435.7,48.547l-3.509,0-27.674-.027-5.458-.006-.006,5.459-.113,114.259,0,5.458,5.458.006,39.356.039,5.458,0,0-5.458.062-62.651c.017-16.334,8.292-16.369,11.041-16.369h.018c3,0,4.225,1.188,4.959,2.22,1,1.408,2.193,4.289,2.188,10.02l-.067,66.8,0,5.458,5.458.006,38.331.037,5.458.006,0-5.458.062-62.651c.017-16.31,7.589-16.369,10.866-16.369h.035c2.569,0,7.315.007,7.3,12.24l-.067,66.8-.005,5.458,5.458,0,39.357.039,5.458.006.006-5.459.071-71.664c.014-14.628-4.312-27.314-12.511-36.687-8.332-9.525-20.278-14.778-33.638-14.792h-.052a50.036,50.036,0,0,0-34.769,13.847c-8.275-8.9-19.985-13.9-33.037-13.914h-.048Z"/><path class="c" d="M650.727,174.955c-36.936-.037-64.763-27.447-64.728-63.757.017-17.678,6.561-33.814,18.424-45.436s28.321-18.015,46.355-18.015c18.4.018,35.04,6.464,46.944,18.153,11.707,11.495,18.146,27.274,18.129,44.43v.643l0,.01a76.209,76.209,0,0,1-.847,10.16l-.34,2.337-83.715-.083c2.9,9.459,9.693,14.435,19.822,14.446,8.159,0,14.985-3.481,18.29-9.311l.786-1.386,44.454.044-1.093,3.533c-8.443,27.281-32.352,44.23-62.4,44.232Zm19.713-78.77c-3.587-7.954-10.3-12.134-19.624-12.143l-.028-2.729v2.729c-8.982,0-15.411,4.167-18.78,12.105Z"/><path class="d" d="M650.777,50.476h.074c36.83.036,62.3,26.337,62.27,59.851v0a72.7,72.7,0,0,1-.822,10.418l-84.842-.084c2.562,13.109,10.878,19.894,23.306,19.907h.031c9.181,0,16.852-4.018,20.637-10.695l39.164.039c-8.059,26.044-31.159,42.309-59.788,42.309h-.075c-35.651-.035-62.037-26.118-62-61.025.035-35,26.226-60.722,62.049-60.724m23.585,48.442c-3.443-11.424-11.668-17.593-23.543-17.605h-.031c-11.455,0-19.424,6.222-22.616,17.559l46.19.046m-23.585-53.9h0c-18.753,0-35.893,6.677-48.265,18.8-12.39,12.138-19.224,28.966-19.242,47.382-.018,18.37,6.817,35.233,19.246,47.482s29.539,18.988,48.209,19.007h.081c15.195,0,29.289-4.284,40.758-12.389a64.042,64.042,0,0,0,24.245-33.765L718,124.465h-.723l.427-2.928a79.991,79.991,0,0,0,.865-9.915l.013-.026,0-1.262c.018-17.9-6.711-34.367-18.946-46.38-12.417-12.192-29.74-18.917-48.777-18.936Zm-14.164,48.4c3.153-4.419,7.9-6.651,14.175-6.651,6.575.007,11.562,2.248,14.909,6.68l-29.084-.029Zm14.18,41.691c-7.682-.007-12.922-2.959-15.879-8.982l32.347.032-.58,1.023c-2.814,4.964-8.753,7.927-15.888,7.927Z"/><path class="c" d="M792.917,171.349l.065-66.962c.007-6-1.062-10.479-3.176-13.3-1.954-2.606-4.89-3.875-8.978-3.88-14.45,0-16.616,12.762-16.624,20.369l-.064,63.744-44.814-.045.118-119.717,32.091.031,4.474,9.775c9.1-8.486,21.406-13.115,35.093-13.115,13.879.014,25.611,4.85,33.986,13.984,8.332,9.088,12.728,21.8,12.714,36.76l-.073,72.4Z"/><path class="d" d="M791.1,50.978h.057c26.533.026,43.942,18.9,43.913,48.011L835,168.661l-39.355-.039.064-64.233c.013-13.3-4.978-19.9-14.881-19.91h-.026c-12.258,0-19.316,8.562-19.331,23.094l-.06,61.015-39.357-.039L722.17,54.29l27.612.027L755.176,66.1c8.506-9.459,21.176-15.125,35.926-15.126m0-5.458h0c-13.023,0-24.871,4-34.124,11.4l-2.233-4.878-1.457-3.183-3.5,0-27.612-.028-5.459-.005,0,5.458-.113,114.26L716.593,174l5.459,0,39.356.039,5.459.006,0-5.459.061-61.014c.008-8.049,2.421-17.643,13.872-17.642,4.243,0,5.922,1.593,6.817,2.787,1.727,2.3,2.637,6.336,2.631,11.66l-.063,64.232-.006,5.459,5.459.005,39.354.039,5.459.006,0-5.459L840.53,99c.032-31.956-19.807-53.447-49.365-53.476Z"/><path class="c" d="M905.532,171.46c-26.741-.027-43.338-16.737-43.312-43.609l.041-40.385-20.913-.021.012-13.009,52.8-56.111,11.993.012-.032,33.406,28.7.028-.035,35.767-27.713-.028-.033,33.634c-.007,6.7,3.722,10.393,10.5,10.4l17.834.017-.038,39.93Z"/><path class="d" d="M895.335,21.055l8.084.008-.033,33.406,28.705.029-.03,30.308-27.712-.028-.036,36.363c-.008,8.181,4.926,13.123,13.228,13.131l15.106.015-.034,34.471-27.078-.027c-25.269-.025-40.611-15.487-40.586-40.878l.043-43.114-20.913-.02.01-9.2,51.246-54.464m-2.356-5.46-1.619,1.72L840.113,71.779l-1.481,1.573,0,2.162-.009,9.2,0,5.459,5.458.005,15.454.015-.037,37.656c-.014,13.933,4.271,25.621,12.392,33.8s19.765,12.525,33.646,12.539l27.078.027,5.459,0,0-5.458.034-34.47.006-5.459-5.459,0-15.105-.015c-5.238,0-7.781-2.513-7.776-7.668l.031-30.9,22.254.022,5.458.006.006-5.459.03-30.308,0-5.458-5.458-.006-23.247-.023.028-27.947,0-5.459-5.458,0-8.084-.008-2.362,0Z"/><g class="e"><path d="M337.022,78.667c-8.443,0-14.887,3.574-18.641,10.335l-2.247,4.05,42.721.04-2.423-4.116C352.413,82.142,345.883,78.675,337.022,78.667ZM326.369,87.6c2.684-2.333,6.206-3.478,10.65-3.478,4.679,0,8.4,1.155,11.248,3.5Z"/><path d="M654.678,78.981c-8.442,0-14.887,3.574-18.641,10.336l-2.246,4.05,42.72.042-2.422-4.119C670.068,82.458,663.538,78.989,654.678,78.981Zm-10.653,8.936c2.683-2.333,6.206-3.478,10.65-3.478,4.678,0,8.4,1.156,11.249,3.5Z"/><path d="M921.439,123.306c-2.2,0-3.807-.484-4.765-1.43s-1.426-2.5-1.423-4.649l.029-29.316,27.712.028.044-44.4L914.33,43.51l.033-33.406-18.178-.019L840.936,68.8V69a49.261,49.261,0,0,0-8.773-13.6c-9.214-10.049-22.044-15.367-37.106-15.383h-.063c-12.667,0-24.174,3.624-33.512,10.516L758.2,43.356l-39.178-.04-.037,36.919A63.968,63.968,0,0,0,704.639,58.9c-12.716-12.485-30.433-19.371-49.889-19.391h-.081c-19.171,0-36.706,6.838-49.376,19.25a64.592,64.592,0,0,0-15.354,23.812c-3.808-25.632-22.05-42.784-46.987-42.809h0a51.557,51.557,0,0,0-34.758,13.21c-8.551-8.572-20.2-13.264-33.147-13.278A50.591,50.591,0,0,0,444,50.466l-3.38-7.427L401.369,43l-.038,36.922a63.953,63.953,0,0,0-14.349-21.339C374.267,46.1,356.55,39.215,337.093,39.2h-.081c-19.171,0-36.7,6.837-49.376,19.249a64.464,64.464,0,0,0-14.593,21.807l.037-37.377-53.449-.055-.07,70.545c-.008,8.027-3.312,12.1-9.822,12.1-6.617-.007-9.967-4.083-9.959-12.116l.072-70.543L146.4,42.749l-.037,37.272a53.689,53.689,0,0,0-11.94-24.964c-9.038-10.28-21.712-15.721-36.652-15.736h0a55.4,55.4,0,0,0-23.458,5.267l.043-43.169L20.906,1.365l-.168,169.611,53.448.054.068-68.062c.011-10.653,4.143-16.055,12.281-16.055,2.677,0,4.223.51,5.339,1.755,1.68,1.873,2.529,5.609,2.524,11.1l-.071,71.28,53.45.052.041-41.666a54.93,54.93,0,0,0,16.23,29.127c11.428,10.676,27.2,16.327,45.712,16.346,32.489,0,55.815-17.761,61.751-45.457a65.528,65.528,0,0,0,16.173,26.069c12.753,12.566,30.252,19.5,49.357,19.516,15.527,0,29.938-4.385,41.675-12.68a65.076,65.076,0,0,0,22.561-28.323l-.038,37.319,53.448.055.07-69.7c.015-14.783,6.626-14.783,9.469-14.783,2.566,0,3.282,1.009,3.667,1.55.709,1,1.9,3.51,1.894,9.1l-.074,73.843,52.424.052.069-69.7c.015-14.783,6.27-14.783,9.31-14.783,1.41,0,2.478.069,3.387.93,1.507,1.426,2.335,4.879,2.33,9.72l-.075,73.844,53.451.053.037-37.627a65.1,65.1,0,0,0,14.647,21.974c12.716,12.532,30.231,19.443,49.4,19.463,15.526,0,29.937-4.384,41.674-12.678a65.087,65.087,0,0,0,22.561-28.322l-.037,37.317,53.449.053.067-68.061c.011-10.8,4.03-16.056,12.284-16.056,2.945,0,7.874.01,7.861,12.857l-.072,71.28,53.45.055.076-76.718c0-2.472-.123-4.88-.346-7.236l16.166.017-.036,36.067c-.014,14.361,4.43,26.437,12.853,34.922s20.46,12.994,34.772,13.009l34.124.033.048-48.562ZM142.324,165.638,99.791,165.6l.065-65.822c.007-6.979-1.275-11.8-3.918-14.751-2.864-3.194-6.735-3.567-9.4-3.57-5.328,0-17.724,2.1-17.742,21.509l-.063,62.6L26.2,165.523,26.359,6.828,68.89,6.87l-.045,46.915,4.088-2.337A50.145,50.145,0,0,1,97.769,44.78c13.326.013,24.583,4.813,32.556,13.88,7.91,9,12.082,21.65,12.068,36.585ZM267.55,115.124c-.032,32.494-23.255,54.326-57.873,54.326-17.013-.016-31.5-5.161-41.9-14.875-10.473-9.787-16-23.468-15.986-39.566l.066-66.8,42.532.043-.064,65.085c-.011,11,5.75,17.57,15.414,17.579,9.56,0,15.273-6.56,15.284-17.55l.064-65.083,42.533.041Zm133.386-8.1a74.816,74.816,0,0,1-.833,9.719l-.2,1.361-84.524-.084,1.494,3.744c3.384,8.485,10.352,12.975,20.153,12.985,8.546,0,15.745-3.7,19.255-9.89l.457-.8,42.242.041-.635,2.055A60.209,60.209,0,0,1,375.566,157.9c-10.812,7.64-24.132,11.679-38.6,11.679-17.582-.017-33.723-6.391-45.448-17.946s-18.157-27.406-18.14-44.668c.016-17.369,6.438-33.216,18.08-44.621s27.823-17.689,45.556-17.69h.076c18.018.017,34.38,6.349,46.07,17.826,11.487,11.28,17.8,26.768,17.787,43.61Zm-50.293,16.489c-2.79,3.644-7.749,5.778-13.612,5.778-5.929-.007-10.237-1.912-13.06-5.8Zm234.513,42.565-42.532-.043.067-68.385c.007-6.636-1.314-11.113-4.035-13.69a9.707,9.707,0,0,0-7.174-2.424c-9.764,0-14.721,6.808-14.734,20.235l-.064,64.239-41.507-.042.068-68.385c.007-5.42-.97-9.548-2.9-12.268-1.838-2.585-4.491-3.843-8.134-3.846-12.305,0-14.9,11.005-14.908,20.236l-.063,64.237-42.531-.042.115-117.434L437.1,48.5l4.949,10.871,2.767-2.478a45.359,45.359,0,0,1,30.269-11.735c12.317.012,23.3,4.8,30.941,13.494l1.926,2.192,2.059-2.068a46.08,46.08,0,0,1,32.933-13.55c24.922.025,42.31,19.6,42.282,47.6Zm133.432-58.632a75.4,75.4,0,0,1-.828,9.612l-.2,1.36-84.524-.084,1.494,3.745c3.383,8.485,10.351,12.974,20.153,12.985,8.547,0,15.744-3.7,19.254-9.889l.456-.807,42.244.042L716,126.464a60.208,60.208,0,0,1-22.782,31.75c-10.812,7.641-24.134,11.679-38.6,11.679-17.649-.017-33.807-6.373-45.5-17.893s-18.11-27.4-18.094-44.721c.018-17.369,6.439-33.217,18.081-44.621s27.824-17.689,45.557-17.69h.076c18.018.017,34.379,6.348,46.069,17.826,11.486,11.279,17.8,26.768,17.786,43.611ZM668.3,123.827c-2.788,3.645-7.748,5.778-13.613,5.778-5.929-.006-10.237-1.912-13.059-5.8Zm172.181,42.5-42.53-.041.064-65.821C798.033,82.163,788,82.15,784.7,82.146c-6.619,0-17.725,2.794-17.743,21.508l-.062,62.6-42.532-.042.116-117.435,30.218.029,4.777,10.437,2.748-2.338c8.793-7.482,20.125-11.437,32.776-11.438h.058c13.493.013,24.933,4.721,33.086,13.614,8.136,8.874,12.428,21.319,12.413,35.988Zm97.609.1-28.665-.028c-12.828-.012-23.516-3.954-30.9-11.4s-11.28-18.183-11.268-31.071l.041-41.525-20.912-.022.01-11.416,52.149-55.422,10.358.011-.033,33.406,28.706.028-.033,33.484-27.712-.028-.035,34.775c0,3.663,1.021,6.536,3.045,8.536s4.907,3,8.6,3.007l16.694.016Z"/></g><path class="f" d="M338.386,77.3c-8.442,0-14.886,3.574-18.64,10.336L317.5,91.687l42.721.04L357.8,87.611C353.778,80.777,347.248,77.31,338.386,77.3Zm-10.653,8.936c2.684-2.333,6.206-3.478,10.65-3.478,4.679,0,8.4,1.156,11.249,3.5Z"/><path class="f" d="M656.042,77.616c-8.442,0-14.886,3.574-18.64,10.336L635.155,92l42.721.043-2.423-4.12C671.433,81.093,664.9,77.624,656.042,77.616ZM645.39,86.553c2.682-2.334,6.206-3.478,10.65-3.478,4.677,0,8.4,1.155,11.248,3.5Z"/><path class="f" d="M922.8,121.942c-2.2,0-3.807-.484-4.765-1.43s-1.426-2.5-1.424-4.65l.03-29.316,27.711.028.044-44.4-28.706-.028.034-33.406L897.55,8.721,842.3,67.437v.194a49.234,49.234,0,0,0-8.774-13.6c-9.213-10.05-22.044-15.368-37.105-15.384h-.064c-12.666,0-24.173,3.625-33.511,10.517l-3.282-7.172-39.179-.04L720.35,78.87A63.971,63.971,0,0,0,706,57.535c-12.715-12.485-30.432-19.37-49.889-19.39h-.081c-19.171,0-36.705,6.837-49.376,19.249A64.6,64.6,0,0,0,591.3,81.207C587.5,55.574,569.254,38.423,544.317,38.4h0a51.557,51.557,0,0,0-34.758,13.21c-8.552-8.573-20.2-13.265-33.148-13.278A50.593,50.593,0,0,0,445.363,49.1l-3.38-7.426-39.249-.038L402.7,78.559a63.938,63.938,0,0,0-14.349-21.338C375.631,44.736,357.914,37.85,338.458,37.83h-.081c-19.171,0-36.706,6.838-49.376,19.25a64.441,64.441,0,0,0-14.593,21.806l.037-37.377L221,41.455,220.926,112c-.008,8.028-3.313,12.1-9.823,12.1-6.616-.006-9.966-4.083-9.958-12.116l.072-70.543-53.451-.053-.037,37.273a53.689,53.689,0,0,0-11.941-24.965c-9.037-10.28-21.712-15.721-36.652-15.735h0a55.411,55.411,0,0,0-23.458,5.266L75.718.055,22.27,0,22.1,169.612l53.449.053.067-68.062C75.629,90.95,79.762,85.548,87.9,85.548c2.677,0,4.223.51,5.338,1.755,1.681,1.874,2.53,5.609,2.524,11.1l-.07,71.28,53.449.052.041-41.665a54.93,54.93,0,0,0,16.23,29.126c11.429,10.676,27.2,16.328,45.713,16.346,32.489,0,55.815-17.761,61.751-45.456a65.524,65.524,0,0,0,16.173,26.068c12.753,12.567,30.251,19.5,49.357,19.516,15.526,0,29.937-4.384,41.675-12.68a65.064,65.064,0,0,0,22.56-28.322l-.038,37.319,53.448.054.071-69.7c.015-14.782,6.626-14.782,9.468-14.782,2.567,0,3.282,1.009,3.668,1.55.708,1,1.9,3.51,1.893,9.1l-.073,73.844,52.423.052.07-69.7c.014-14.783,6.27-14.783,9.309-14.783,1.41,0,2.479.07,3.388.931,1.507,1.425,2.334,4.878,2.329,9.72l-.075,73.843,53.451.054.038-37.628a65.122,65.122,0,0,0,14.646,21.975c12.716,12.532,30.232,19.443,49.4,19.463,15.526,0,29.937-4.385,41.675-12.679a65.08,65.08,0,0,0,22.56-28.321L720.26,170.3l53.449.054.067-68.062c.01-10.8,4.03-16.055,12.284-16.055,2.945,0,7.874.009,7.861,12.857l-.072,71.28,53.449.054.076-76.718c0-2.471-.122-4.88-.345-7.235l16.166.016-.036,36.067c-.015,14.362,4.43,26.438,12.853,34.923s20.46,12.994,34.772,13.009l34.124.033.048-48.563ZM143.688,164.273l-42.533-.041.066-65.822c.006-6.978-1.276-11.8-3.918-14.75-2.864-3.194-6.735-3.568-9.4-3.57-5.327,0-17.723,2.1-17.742,21.508L70.1,164.2l-42.531-.042L27.723,5.464l42.532.041-.046,46.916L74.3,50.083a50.142,50.142,0,0,1,24.836-6.668c13.326.013,24.582,4.813,32.555,13.88,7.911,9,12.083,21.65,12.068,36.586Zm125.227-50.514c-.032,32.495-23.256,54.327-57.873,54.327-17.013-.016-31.5-5.161-41.9-14.876-10.473-9.787-16-23.467-15.986-39.565l.067-66.8,42.531.042-.064,65.085c-.01,11,5.751,17.57,15.415,17.58,9.56,0,15.273-6.561,15.283-17.551l.064-65.083,42.533.041Zm133.386-8.1a75.022,75.022,0,0,1-.833,9.719l-.2,1.36-84.523-.084,1.494,3.745c3.383,8.484,10.351,12.974,20.153,12.985,8.546,0,15.745-3.7,19.255-9.891l.457-.805,42.242.042-.636,2.054a60.2,60.2,0,0,1-22.781,31.75c-10.811,7.64-24.132,11.679-38.6,11.679-17.583-.018-33.723-6.391-45.449-17.946s-18.157-27.407-18.139-44.668c.016-17.369,6.438-33.217,18.079-44.621s27.824-17.689,45.557-17.691h.076c18.018.018,34.38,6.349,46.069,17.827,11.487,11.279,17.8,26.768,17.788,43.609Zm-50.293,16.488c-2.79,3.645-7.749,5.778-13.613,5.778-5.928-.006-10.237-1.912-13.059-5.8ZM586.52,164.713l-42.531-.043.066-68.385c.007-6.635-1.313-11.113-4.035-13.69a9.7,9.7,0,0,0-7.173-2.424c-9.764,0-14.721,6.808-14.735,20.236l-.064,64.238-41.506-.041.068-68.386c.006-5.419-.971-9.548-2.9-12.268-1.838-2.585-4.491-3.843-8.134-3.846-12.306,0-14.9,11-14.908,20.236l-.063,64.237-42.532-.041L408.184,47.1l30.284.029L443.417,58l2.766-2.479a45.368,45.368,0,0,1,30.269-11.735c12.318.012,23.305,4.8,30.942,13.494l1.926,2.192,2.059-2.068a46.078,46.078,0,0,1,32.932-13.55c24.923.025,42.311,19.6,42.283,47.605Zm133.433-58.632a75.4,75.4,0,0,1-.829,9.612l-.2,1.361L634.4,116.97l1.494,3.744c3.384,8.485,10.352,12.975,20.153,12.985,8.547,0,15.745-3.7,19.255-9.889l.456-.806,42.243.041-.635,2.055a60.211,60.211,0,0,1-22.782,31.749c-10.812,7.641-24.134,11.679-38.6,11.679-17.649-.017-33.807-6.372-45.495-17.893s-18.11-27.4-18.094-44.721c.017-17.369,6.439-33.216,18.081-44.621S638.3,43.6,656.033,43.6h.076c18.018.017,34.38,6.348,46.07,17.826,11.485,11.279,17.8,26.768,17.786,43.611Zm-50.289,16.382c-2.787,3.644-7.747,5.778-13.612,5.778-5.929-.007-10.237-1.912-13.06-5.805Zm172.181,42.5-42.53-.041.064-65.822c.019-18.3-10.016-18.317-13.318-18.321-6.619,0-17.725,2.795-17.744,21.509l-.061,62.6-42.533-.043.116-117.434,30.218.029,4.778,10.437,2.748-2.339c8.792-7.481,20.125-11.436,32.775-11.438h.059c13.492.014,24.933,4.722,33.086,13.614,8.135,8.874,12.428,21.319,12.413,35.989Zm97.61.1-28.666-.028c-12.828-.012-23.515-3.954-30.9-11.4s-11.281-18.184-11.269-31.071l.042-41.526-20.913-.021.011-11.417,52.149-55.421,10.358.01L910.231,47.6l28.705.028L938.9,81.111l-27.711-.028-.035,34.774c0,3.663,1.021,6.536,3.045,8.537s4.907,3,8.6,3.006l16.693.016Z"/></svg>